<svg width="64" height="64" viewBox="0 0 64 64" fill="none" xmlns="http://www.w3.org/2000/svg">
<circle cx="32" cy="32" r="32" fill="url(#paint0_linear_91_1502)"/>
<path fill-rule="evenodd" clip-rule="evenodd" d="M52.0039 28.5004C52.0039 28.5004 52.5039 31.5004 53.5039 33.5004C54.5039 35.5004 58.0039 31.5004 58.0039 31.5004C58.0039 31.5004 57.0039 37.5004 54.5039 41.0004C54.0107 41.6907 53.5988 42.2794 53.24 42.792C51.604 45.1296 51.0742 45.8867 49 47.5C45.5167 50.2092 45.1588 50.3206 43.4513 50.8522C42.9529 51.0073 42.3396 51.1982 41.5 51.5C37.7838 52.8356 35 53.5 30 53.5C25 53.5 20.9103 51.5 19.5 50.4972C18.0897 49.4945 14.7516 45.8624 13 42.5C11.1733 38.9935 10.9994 35 11 32C11.0009 28.0463 12.6766 23 14.0082 21C15.6803 18.4887 17.3516 17.3373 19.0245 16.1849C19.3509 15.96 19.6774 15.7351 20.0039 15.5C22.0748 14.0093 22.9958 13.7732 25.1132 13.2304C25.3882 13.1599 25.6833 13.0843 26.0039 13C28.7921 12.2669 31.3797 12 34.5039 12C37.5039 12 39.8472 13.0004 42.5039 14.5004C44.6814 15.7298 47.5039 18.5004 47.5039 18.5004L50.0039 22.0004L51.0039 25.0004L52.0039 28.5004ZM33 22.0075C32.1335 21.8991 31 23.0075 31 23.0075V28.5075C31 28.5075 32.1335 29.6158 33 29.5075C33.6986 29.4201 34.5 28.5075 34.5 28.5075V26.0075V23.0075C34.5 23.0075 33.6986 22.0948 33 22.0075ZM25 23.0075C25 23.0075 23.8732 22.0075 23 22.0075C22.1268 22.0075 21 23.0075 21 23.0075V28.5075C21 28.5075 22.1268 29.5075 23 29.5075C23.8732 29.5075 25 28.5075 25 28.5075V23.0075ZM23.5 33.0078H33.5C33.5 33.0078 34.0239 34.9597 33.5 36.0075C33.1396 36.7284 32.7078 37.0236 32.055 37.4698L32.055 37.4698L32 37.5075C31.2445 38.0243 30.6002 37.8755 29.8575 37.704C29.4469 37.6092 29.0062 37.5075 28.5 37.5075C27.9939 37.5075 27.5532 37.6092 27.1425 37.704L27.1425 37.7041C26.3998 37.8755 25.7555 38.0243 25 37.5075L24.945 37.4698C24.2922 37.0236 23.8604 36.7284 23.5 36.0075C22.9762 34.9597 23.5 33.0078 23.5 33.0078Z" fill="white"/>
<defs>
<linearGradient id="paint0_linear_91_1502" x1="16.5" y1="17.5" x2="57" y2="61" gradientUnits="userSpaceOnUse">
<stop stop-color="#FFAA58"/>
<stop offset="1" stop-color="#F0662C"/>
</linearGradient>
</defs>
</svg>
