<svg width="26" height="26" viewBox="0 0 26 26" fill="none" xmlns="http://www.w3.org/2000/svg">
<path d="M8.01866 5.27529L7.31155 4.56818L5.89734 5.9824L6.60444 6.6895L8.01866 5.27529ZM18.5688 18.6539L19.2759 19.361L20.6901 17.9468L19.983 17.2396L18.5688 18.6539ZM19.983 6.6895L20.6901 5.9824L19.2759 4.56818L18.5688 5.27529L19.983 6.6895ZM6.60444 6.6895L12.5866 12.6717L14.0008 11.2575L8.01866 5.27529L6.60444 6.6895ZM12.5866 12.6717L18.5688 18.6539L19.983 17.2396L14.0008 11.2575L12.5866 12.6717ZM12.5866 11.2575L5.27507 18.569L6.68928 19.9832L14.0008 12.6717L12.5866 11.2575ZM6.68928 19.9832L19.983 6.6895L18.5688 5.27529L5.27507 18.569L6.68928 19.9832Z" fill="white"/>
</svg>
