<svg width="48" height="42" viewBox="0 0 48 42" fill="none" xmlns="http://www.w3.org/2000/svg">
<path fill-rule="evenodd" clip-rule="evenodd" d="M41.0039 16.5004C41.0039 16.5004 41.5039 19.5004 42.5039 21.5004C43.5039 23.5004 47.0039 19.5004 47.0039 19.5004C47.0039 19.5004 46.0039 25.5004 43.5039 29.0004C43.0107 29.6907 42.5988 30.2794 42.24 30.792C40.604 33.1296 40.0742 33.8867 38 35.5C34.5167 38.2092 34.1588 38.3206 32.4513 38.8522C31.9529 39.0073 31.3396 39.1982 30.5 39.5C26.7838 40.8356 24 41.5 19 41.5C14 41.5 9.91034 39.5 8.5 38.4972C7.08967 37.4945 3.75165 33.8624 2 30.5C0.173305 26.9935 -0.000637649 23 1.74734e-06 20C0.000852561 16.0463 1.67655 11 3.00821 9.00001C4.68033 6.48868 6.35165 5.3373 8.0245 4.18486C8.35092 3.95998 8.67739 3.73507 9.00394 3.50001C11.0748 2.00931 11.9958 1.77323 14.1132 1.23044C14.3882 1.15994 14.6833 1.08427 15.0039 1C17.7921 0.266941 20.3797 0 23.5039 0C26.5039 0 28.8472 1.00045 31.5039 2.50037C33.6814 3.72977 36.5039 6.50038 36.5039 6.50038L39.0039 10.0004L40.0039 13.0004L41.0039 16.5004ZM22 10.0075C21.1335 9.89914 20 11.0075 20 11.0075V16.5075C20 16.5075 21.1335 17.6158 22 17.5075C22.6986 17.4201 23.5 16.5075 23.5 16.5075V14.0075V11.0075C23.5 11.0075 22.6986 10.0948 22 10.0075ZM14 11.0075C14 11.0075 12.8732 10.0075 12 10.0075C11.1268 10.0075 10 11.0075 10 11.0075V16.5075C10 16.5075 11.1268 17.5075 12 17.5075C12.8732 17.5075 14 16.5075 14 16.5075V11.0075ZM12.5 21.0078H22.5C22.5 21.0078 23.0239 22.9597 22.5 24.0075C22.1396 24.7284 21.7078 25.0236 21.055 25.4698L21.055 25.4698L21 25.5075C20.2445 26.0243 19.6002 25.8755 18.8575 25.704C18.4469 25.6092 18.0062 25.5075 17.5 25.5075C16.9939 25.5075 16.5532 25.6092 16.1425 25.704L16.1425 25.7041C15.3998 25.8755 14.7555 26.0243 14 25.5075L13.945 25.4698C13.2922 25.0236 12.8604 24.7284 12.5 24.0075C11.9762 22.9597 12.5 21.0078 12.5 21.0078Z" fill="white"/>
</svg>
