<svg width="22" height="22" viewBox="0 0 22 22" fill="none" xmlns="http://www.w3.org/2000/svg">
<path fill-rule="evenodd" clip-rule="evenodd" d="M16.8235 1.29412H5.17647C3.03231 1.29412 1.29412 3.03231 1.29412 5.17647V16.8235C1.29412 18.9677 3.03231 20.7059 5.17647 20.7059H16.8235C18.9677 20.7059 20.7059 18.9677 20.7059 16.8235V5.17647C20.7059 3.03231 18.9677 1.29412 16.8235 1.29412ZM5.17647 0C2.31758 0 0 2.31758 0 5.17647V16.8235C0 19.6824 2.31758 22 5.17647 22H16.8235C19.6824 22 22 19.6824 22 16.8235V5.17647C22 2.31758 19.6824 0 16.8235 0H5.17647ZM11 14.8824C13.1442 14.8824 14.8824 13.1442 14.8824 11C14.8824 8.85584 13.1442 7.11765 11 7.11765C8.85584 7.11765 7.11765 8.85584 7.11765 11C7.11765 13.1442 8.85584 14.8824 11 14.8824ZM11 16.1765C13.8589 16.1765 16.1765 13.8589 16.1765 11C16.1765 8.14111 13.8589 5.82353 11 5.82353C8.14111 5.82353 5.82353 8.14111 5.82353 11C5.82353 13.8589 8.14111 16.1765 11 16.1765ZM16.5 7.11765C17.036 7.11765 17.4706 6.6831 17.4706 6.14706C17.4706 5.61102 17.036 5.17647 16.5 5.17647C15.964 5.17647 15.5294 5.61102 15.5294 6.14706C15.5294 6.6831 15.964 7.11765 16.5 7.11765Z" fill="white"/>
</svg>
