<svg width="27" height="25" viewBox="0 0 27 25" fill="none" xmlns="http://www.w3.org/2000/svg">
    <path fill-rule="evenodd" clip-rule="evenodd" d="M9.145.55A10.42 10.42 0 0 0 .652 9.103l-.02.12A9.687 9.687 0 0 0 6.765 19.88c-.071.614-.192 1.318-.399 1.937-.5 1.5-1 2.5-1 2.5.892-.549 1.96-1.082 2.97-1.587 1.538-.769 2.941-1.47 3.385-2.056l.527.046c.744.064 1.493.067 2.237.007l3.426-.274A9.667 9.667 0 0 0 26.747 9.74c-.516-4.64-4.074-8.434-8.684-9.172l-2.5-.4a13.326 13.326 0 0 0-4.389.03L9.145.55z" fill="#9F9F9F"/>
    <path d="M6.407 14h-.81V8.285H3.59v-.711h4.815v.71H6.407V14zM12.773 14l-.774-1.99H9.452L8.687 14h-.819l2.511-6.453h.729L13.61 14h-.837zm-1.737-4.653a29.774 29.774 0 0 1-.216-.648 5.3 5.3 0 0 0-.09-.315c-.03.12-.063.243-.099.369-.03.12-.063.23-.099.333-.03.102-.057.189-.081.26l-.729 1.945h2.034l-.72-1.944zM14.49 14V7.574h.81v5.706h2.807V14H14.49zM23.907 14h-.954l-2.277-3.07-.657.577V14h-.81V7.574h.81v3.168c.18-.204.363-.408.549-.612l.558-.612 1.737-1.944h.945l-2.547 2.799L23.907 14z" fill="#202022"/>
</svg>
