<svg width="39" height="32" viewBox="0 0 39 32" fill="none" xmlns="http://www.w3.org/2000/svg">
<path d="M9 5V1H1V31H9V27M9 5H4M9 5V8.5M9 8.5H5M9 8.5V12M9 12H5M9 12V16M9 16H4M9 16V19.5M9 19.5H5M9 19.5V23M9 23H5M9 23V27M9 27H4" stroke="#EDEAE7" stroke-width="2"/>
<path fill-rule="evenodd" clip-rule="evenodd" d="M21 0H20.9173L20.8356 0.0136061L17.8356 0.513606L17.5951 0.553694L17.4 0.7L15.4 2.2L15.3432 2.24264L15.2929 2.29289L13.2929 4.29289L12.2929 5.29289L13.7071 6.70711L14.7071 5.70711L16.6569 3.75736L18.4049 2.44631L21.0828 2H24H26.764L28.5528 2.89443L28.59 2.91303L28.6286 2.92848L30.938 3.85225L32.7427 5.65686L35.6459 9.52787L37 12.2361V18.8377L36.0937 21.5567L34.2229 24.3629L32.2929 26.2929L30.4598 28.126L27.7202 29.0392L25.8769 29.5H20.1231L18.4106 29.0719L17.0547 28.1679L17.0349 28.1548L17.0145 28.1425L14.7073 26.7582L13.8321 25.4453L12.168 26.5547L13.168 28.0547L13.2927 28.2418L13.4855 28.3575L15.9651 29.8452L17.4453 30.8321L17.5894 30.9281L17.7575 30.9701L19.7575 31.4701L19.8769 31.5H20H26H26.1231L26.2426 31.4701L28.2426 30.9701L28.2798 30.9608L28.3162 30.9487L31.3162 29.9487L31.5402 29.874L31.7071 29.7071L33.7071 27.7071L35.7071 25.7071L35.7771 25.6371L35.8321 25.5547L37.8321 22.5547L37.9064 22.4433L37.9487 22.3162L38.9487 19.3162L39 19.1623V19V12V11.7639L38.8944 11.5528L37.3944 8.55279L37.3541 8.47214L37.3 8.4L34.3 4.4L34.2574 4.34315L34.2071 4.29289L32.2071 2.29289L32.062 2.14775L31.8714 2.07152L29.41 1.08697L27.4472 0.105573L27.2361 0H27H24H21ZM20.1961 6.01942L19.8597 5.95213L19.5528 6.10557L17.5528 7.10557L17.2547 7.25464L17.1056 7.55279L16.1056 9.55279L15.9402 9.88366L16.0299 10.2425L16.4692 12H14.5H13.5V13V16V19V20H14.5H15H16.5858L16.2929 20.2929L16 20.5858V21V22V22.4142L16.2929 22.7071L18.2929 24.7071L18.5858 25H19H21H22H23V24V21V20.5858L22.7071 20.2929L21.7071 19.2929L21.4142 19H21H19H18.25L19.3 17.6L19.3541 17.5279L19.3944 17.4472L19.8944 16.4472L20.1181 16L19.8944 15.5528L19.3944 14.5528L19.3219 14.4076L19.2071 14.2929L17.9142 13H19H22H22.6181L22.8944 12.4472L23.3944 11.4472L23.5 11.2361V11.5352L23.9453 11.8321L25.4453 12.8321L25.6972 13H26H28H28.2361L28.4472 12.8944L28.9355 12.6503L28.2929 13.2929L27.2929 14.2929L27 14.5858V15V16V16.2361L27.1056 16.4472L28.1056 18.4472L28.1782 18.5924L28.2929 18.7071L28.5858 19H28H26H25.5858L25.2929 19.2929L24.2929 20.2929L24 20.5858V21V24V25H25H26H27H27.2361L27.4472 24.8944L29.4472 23.8944L29.5924 23.8219L29.7071 23.7071L30.7071 22.7071L31 22.4142V22V21V20.5858L30.7071 20.2929L30.4142 20H32H33V19V14V13.5858L32.7071 13.2929L31.7071 12.2929L31.4142 12H31H30.2361L30.4472 11.8944L31 11.618V11V10V9.58579L30.7071 9.29289L29.7071 8.29289L28.7071 7.29289L27.7071 6.29289L27.4142 6H27H24.5H23.5V6.6802L22.6961 6.51942L20.1961 6.01942ZM18.7454 8.74536L20.1403 8.04787L21.5 8.3198V10.7639L21.382 11H19H18.2808L18.0599 10.1163L18.7454 8.74536ZM25.5 8V10.4648L26.3028 11H27.764L28.9785 10.3927L28.2929 9.70711L27.2929 8.70711L26.5858 8H25.5ZM15.5 16V14H16.0858L17.6782 15.5924L17.882 16L17.6459 16.4721L16.5 18H15.5V16ZM23.5 12.7981L24.0547 13.1679L25.5547 14.1679L26 14.4648V15V17V17.5352L25.5547 17.8321L24.0547 18.8321L23.5 19.2019L22.9453 18.8321L21.4453 17.8321L21 17.5352V17V15V14.4648L21.4453 14.1679L22.9453 13.1679L23.5 12.7981ZM23 16.4648L23.5 16.7981L24 16.4648V15.5352L23.5 15.2019L23 15.5352V16.4648ZM29.7071 14.7071L30.4142 14H30.5858L31 14.4142V18H30.4142L29.8219 17.4076L29 15.7639V15.4142L29.7071 14.7071ZM18 21.5858L19.4142 23H21V21.4142L20.5858 21H19H18.4142L18 21.4142V21.5858ZM26 21.4142L26.4142 21H28H28.5858L29 21.4142V21.5858L28.4077 22.1781L26.764 23H26V21.4142Z" fill="#EDEAE7"/>
</svg>
