<svg width="30" height="29" viewBox="0 0 30 29" fill="none" xmlns="http://www.w3.org/2000/svg">
    <path fill-rule="evenodd" clip-rule="evenodd" d="M19.08 4.898c-.818-1.927-2.184-2.985-4.03-2.892-.909.046-1.612.335-2.178.798-.578.472-1.063 1.168-1.45 2.09-.238.567-.264 1.477-.181 2.379.024.267.057.517.09.734h7.84c.033-.217.066-.468.09-.736.085-.902.058-1.81-.181-2.373zm2.11 3.11c.024-.173.045-.358.063-.552.088-.943.115-2.285-.332-3.34C19.875 1.655 17.864-.138 14.95.008c-1.315.067-2.431.501-3.344 1.247-.9.736-1.554 1.735-2.028 2.865-.442 1.054-.416 2.394-.329 3.337.018.193.04.378.062.55H4.5a1 1 0 0 0-.982.81l-3.5 18A1 1 0 0 0 1 28.006h28a1 1 0 0 0 .986-1.164l-3-18A1 1 0 0 0 26 8.007h-4.81zM21 11.214a2.5 2.5 0 1 1-2 0v-1.208h-7.5v1.208a2.5 2.5 0 1 1-2 0v-1.208H5.324l-3.11 16h25.605l-2.666-16H21v1.208z" fill="#222"/>
</svg>
