<svg width="37" height="26" viewBox="0 0 37 26" fill="none" xmlns="http://www.w3.org/2000/svg">
    <path d="m10.75 9 7-7.5h5V25h-5.5l-6.5-8m0-8v8m0-8h-9v8h.5m8.5 0h-2.5m0 0v8h-6v-8m6 0h-6m21-9v10s2.023-1.097 3-2c1.022-.944 1-1.722 1-3 0-1.064-.168-2.129-1-3-1.123-1.176-3-2-3-2z" stroke="#000" stroke-width="2"/>
    <path fill-rule="evenodd" clip-rule="evenodd" d="m32.915 3.248-4.5 4-1.33-1.495 4.5-4 1.33 1.495zM36.25 13h-5.5v-2h5.5v2zm-8.158 5.753 4 3.5 1.317-1.505-4-3.5-1.317 1.505z" fill="#FF6620"/>
</svg>
