<svg width="20" height="22" viewBox="0 0 20 22" fill="none" xmlns="http://www.w3.org/2000/svg">
    <path fill-rule="evenodd" clip-rule="evenodd" d="M13.671 11.078a6 6 0 1 0-6.547-.1c-.303.107-.6.23-.89.372-1.267.615-2.339 1.53-3.36 2.63-1.1 1.188-1.806 2.961-2.224 4.257a23.442 23.442 0 0 0-.638 2.425l-.008.043-.003.013v.005H0L1.474 21l1.475.276v-.005l.006-.027.024-.117a20.422 20.422 0 0 1 .526-1.968c.4-1.239.944-2.465 1.57-3.139.88-.95 1.66-1.579 2.47-1.972.792-.385 1.695-.586 2.883-.549 1.136.036 1.987.248 2.713.618.732.373 1.428.953 2.188 1.852.553.654.99 1.85 1.284 3.085a18.611 18.611 0 0 1 .365 2.063l.003.026v.004L18.475 21l1.493-.147v-.007l-.002-.013-.005-.043-.017-.152a21.648 21.648 0 0 0-.41-2.278c-.309-1.294-.871-3.097-1.914-4.329-.931-1.1-1.926-1.98-3.116-2.587a8.042 8.042 0 0 0-.832-.366z" fill="#222"/>
</svg>
