<svg width="62" height="90" viewBox="0 0 62 90" fill="none" xmlns="http://www.w3.org/2000/svg">
<path d="M14.5238 72.6441V74.5845H16.8652V75.175H14.5238V77.9169H13.8301V72.0957H17.4722V72.6863H14.5238V72.6441Z" fill="white"/>
<path d="M17.7764 77.875V77.2845H19.0771V72.6023H17.7764V72.0117H21.0717V72.6023H19.7709V77.2845H21.0717V77.875H17.7764Z" fill="white"/>
<path d="M25.4502 77.9169L22.415 73.1924V77.9169H21.7646V72.0957H22.4584L25.4502 76.7357H25.4935V72.0957H26.1439V77.959H25.4502V77.9169Z" fill="white"/>
<path d="M30.7838 77.875L30.1767 76.1878H27.792L27.185 77.875H26.4912L28.6592 72.0117H29.3096L31.4775 77.875H30.7838ZM29.006 72.8975L28.0088 75.6394H29.9599L29.006 72.8975Z" fill="white"/>
<path d="M31.9111 77.8741V72.053H32.6049V77.2836H35.5533V77.8741H31.9111Z" fill="white"/>
<path d="M35.8564 77.875V77.2845H37.1572V72.6023H35.8564V72.0117H39.1517V72.6023H37.851V77.2845H39.1517V77.875H35.8564Z" fill="white"/>
<path d="M41.7533 78.0012C40.5826 78.0012 39.8021 77.4106 39.542 76.4404L40.2357 76.2717C40.4092 76.9044 40.8861 77.3685 41.7533 77.3685C42.4037 77.3685 43.1408 77.031 43.1408 76.2717C43.1408 75.6812 42.7072 75.4281 42.1435 75.2593C42.0568 75.2172 41.0162 74.9219 40.9295 74.8797C40.3225 74.6688 39.8021 74.247 39.8021 73.5299C39.8021 72.4753 40.626 71.8848 41.7099 71.8848C42.6638 71.8848 43.3576 72.18 43.7045 73.0237L43.1408 73.2768C42.8373 72.6862 42.4037 72.4753 41.7533 72.4753C41.1463 72.4753 40.5392 72.8128 40.5392 73.4455C40.5392 73.9095 40.8861 74.2048 41.3631 74.3313C41.4498 74.3735 42.4904 74.6688 42.6205 74.711C43.2709 74.9219 43.8345 75.3437 43.8345 76.1874C43.8779 77.3685 42.924 78.0012 41.7533 78.0012Z" fill="white"/>
<path d="M46.5228 72.6433V77.8739H45.8291V72.6433H44.0947V72.0527H48.2572V72.6433H46.5228Z" fill="white"/>
<path d="M57 8.72291L6 0V41.4907L49.6585 49L57 8.72291Z" fill="#D22127"/>
<path d="M39.858 16.9168L31.8873 30.0545L29.1646 15.0287L26.2052 14.5174L18.2345 27.5764L15.5513 12.6293L12 12L15.9064 32.5325L18.7869 33.0045L26.7182 20.1815L29.5197 34.8926L32.4397 35.4039L40.726 22.0303L42.0676 29.1498L39.5423 28.7171L37.6088 31.7852L42.699 32.6899L43.646 37.41L47 38L43.3303 17.5068L39.858 16.9168Z" fill="white"/>
<path d="M11.5747 61.8008L9.58022 69.1405H8.32281L6.93532 64.6692L5.54783 69.1405H4.33377L2.2959 61.8008H3.85682L4.98416 66.4408L6.37165 61.8008H7.49899L8.88648 66.4408L10.0572 61.8008H11.5747Z" fill="#D22127"/>
<path d="M17.2978 69.1405H12.3115V61.8008H17.2978V63.0662H13.7857V64.7957H16.7775V66.0612H13.7857V67.875H17.2978V69.1405Z" fill="#D22127"/>
<path d="M23.8021 67.0325C23.8021 67.7075 23.5853 68.2136 23.1517 68.5933C22.7181 68.9729 22.1545 69.1417 21.4607 69.1417H18.3389V61.7598H21.374C22.1111 61.7598 22.6748 61.9285 23.1084 62.3081C23.542 62.6878 23.7154 63.194 23.7154 63.8267C23.7154 64.2063 23.5853 64.5438 23.4119 64.8391C23.2384 65.0922 23.0216 65.2609 22.8049 65.3453C23.1084 65.4718 23.3252 65.6405 23.4986 65.8514C23.7154 66.1889 23.8021 66.5685 23.8021 67.0325ZM22.2412 63.9111C22.2412 63.658 22.1545 63.4471 21.981 63.2783C21.8076 63.1096 21.5908 63.0674 21.2873 63.0674H19.8564V64.7547H21.2873C21.5908 64.7547 21.851 64.6703 22.0244 64.5438C22.1545 64.3751 22.2412 64.1641 22.2412 63.9111ZM22.3279 66.9482C22.3279 66.6951 22.2412 66.4842 22.1111 66.3154C21.9377 66.1467 21.6775 66.0624 21.374 66.0624H19.8131V67.8762H21.374C21.6775 67.8762 21.9377 67.7918 22.1111 67.6231C22.2412 67.4544 22.3279 67.2013 22.3279 66.9482Z" fill="#D22127"/>
<path d="M31.7373 69.1417H30.1763L29.7427 67.834H27.0545L26.5775 69.1417H25.0166L27.7482 61.7598H28.9189L31.7373 69.1417ZM29.3525 66.6529L28.442 63.9532L27.4881 66.6529H29.3525Z" fill="#D22127"/>
<path d="M40.3222 61.8008L38.2843 69.1405H37.0703L35.6828 64.6692L34.2953 69.1405H33.0379L31 61.8008H32.5609L33.7316 66.4408L35.1191 61.8008H36.2031L37.5906 66.4408L38.7613 61.8008H40.3222Z" fill="#D22127"/>
<path d="M46.1324 69.1417H44.5714L44.1379 67.834H41.4496L40.9726 69.1417H39.4551L42.1867 61.7598H43.3574L46.1324 69.1417ZM43.7476 66.6529L42.8371 63.9532L41.8832 66.6529H43.7476Z" fill="#D22127"/>
<path d="M52.2029 69.1417H50.5119L49.0377 66.1889H47.9537V69.1417H46.4795V61.7598H49.4279C50.165 61.7598 50.772 61.9707 51.249 62.4347C51.6826 62.8565 51.8994 63.3627 51.8994 64.0376C51.8994 64.5016 51.7693 64.9234 51.4658 65.3031C51.2056 65.6405 50.9021 65.8514 50.5119 65.978L52.2029 69.1417ZM50.4252 64.0376C50.4252 63.7423 50.3384 63.4892 50.1217 63.3205C49.9482 63.1518 49.6881 63.0674 49.3412 63.0674H47.9537V65.0078H49.3412C49.6447 65.0078 49.9049 64.9234 50.1217 64.7547C50.3384 64.5438 50.4252 64.3329 50.4252 64.0376Z" fill="#D22127"/>
<path d="M58.2728 65.4305V65.8945C58.2728 66.4851 58.2295 66.9491 58.1861 67.2444C58.0994 67.7084 57.8392 68.088 57.5357 68.4255C57.3189 68.6364 57.0154 68.8473 56.6685 68.9317C56.3217 69.0582 55.9314 69.1004 55.5412 69.1004H52.8096V61.7185H55.5412C55.9314 61.7185 56.3217 61.7607 56.6685 61.8872C57.0154 62.0138 57.3189 62.1825 57.5357 62.4356C57.8826 62.7731 58.0994 63.1527 58.1861 63.5745C58.2728 63.8698 58.2728 64.3338 58.2728 64.8822V65.4305ZM56.7986 65.4305C56.7986 64.84 56.7986 64.4182 56.7552 64.1651C56.7119 63.912 56.6252 63.7011 56.4951 63.5323C56.365 63.3636 56.1916 63.2371 56.0181 63.1949C55.8447 63.1105 55.6279 63.0683 55.3678 63.0683H54.2404V67.8771H55.3678C55.8447 67.8771 56.2349 67.7084 56.4517 67.4131C56.5818 67.2444 56.6685 67.0335 56.7119 66.7804C56.7986 66.4851 56.7986 66.0633 56.7986 65.4305Z" fill="#D22127"/>
<path d="M3.68418 77.9991V77.3242L5.6787 75.0464C6.02557 74.6246 6.24236 74.2449 6.24236 73.7809V73.6544C6.24236 73.2325 5.98221 72.9373 5.41854 72.9373C4.89823 72.9373 4.59472 73.2325 4.59472 73.6966V73.8653H3.51074V73.6544C3.51074 72.642 4.33456 72.0936 5.4619 72.0936C6.67595 72.0936 7.28298 72.8107 7.28298 73.7387C7.28298 74.8355 6.50252 75.5104 5.80877 76.2697L5.02831 77.1133H7.3697V77.9991H3.68418Z" fill="#D22127"/>
<path d="M7.63008 77.9991V77.3242L9.62459 75.0464C9.97147 74.6246 10.1883 74.2449 10.1883 73.7809V73.6544C10.1883 73.2325 9.92811 72.9373 9.36444 72.9373C8.84413 72.9373 8.54062 73.2325 8.54062 73.6966V73.8653H7.5V73.6544C7.5 72.642 8.32382 72.0936 9.45116 72.0936C10.6652 72.0936 11.2722 72.8107 11.2722 73.7387C11.2722 74.8355 10.4918 75.5104 9.79803 76.2697L9.01757 77.1133H11.359V77.9991H7.63008Z" fill="#D22127"/>
</svg>
