<svg width="37" height="90" viewBox="0 0 37 90" fill="none" xmlns="http://www.w3.org/2000/svg">
<path d="M7.43605 87.3869L8.65516 82.3633H9.87427L8.28943 88.8134H6.64363L5.48548 83.6657L4.32732 88.8754H2.68152L1.09668 82.4253H2.31579L3.5349 87.4489L4.69305 82.4253H6.2779L7.43605 87.3869Z" fill="white"/>
<path d="M11.9466 88.8759H10.7275V82.4258H11.9466V88.8759Z" fill="white"/>
<path d="M14.5673 83.9763V88.8759H13.4092V82.4258H14.994L17.4322 87.3254V82.4258H18.5904V88.8759H17.0056L14.5673 83.9763Z" fill="white"/>
<path d="M21.2128 83.9763V88.8759H20.0547V82.4258H21.6395L24.0778 87.3254V82.4258H25.2359V88.8759H23.6511L21.2128 83.9763Z" fill="white"/>
<path d="M26.6367 82.4258H30.5379V83.4801H27.8558V85.0306H30.355V86.085H27.8558V87.7595H30.5379V88.8139H26.6367V82.4258Z" fill="white"/>
<path d="M35.5375 88.8759L34.0745 86.7672H32.9164V88.8759H31.6973V82.4258H34.3184C35.7813 82.4258 36.3299 83.046 36.3299 84.1623V85.0306C36.3299 85.7749 36.0251 86.3331 35.3546 86.5811L36.9394 88.8759H35.5375ZM34.3184 83.4801H32.9773V85.6508H34.3184C34.9889 85.6508 35.1717 85.4028 35.1717 84.8446V84.2244C35.1717 83.7282 34.9279 83.4801 34.3184 83.4801Z" fill="white"/>
<path d="M2.43852 58.8572C2.43852 59.6014 2.7433 60.0356 3.77954 60.0356C4.14527 60.0356 4.57196 59.9735 4.9377 59.9735V57.6168H6.27872V61.0279C5.48629 61.276 4.51101 61.4 3.71858 61.4C1.88992 61.4 0.975586 60.5937 0.975586 59.1053V55.8182C0.975586 54.2057 1.88992 53.5234 3.8405 53.5234C4.45005 53.5234 5.30343 53.5855 6.03489 53.7715L5.85203 55.0739C5.18152 54.9499 4.45005 54.8879 3.71858 54.8879C2.7433 54.8879 2.37756 55.322 2.37756 56.0663V58.8572H2.43852Z" fill="white"/>
<path d="M10.6067 53.5234C12.4963 53.5234 13.1059 54.4537 13.1059 55.5701V59.1053C13.1059 60.2216 12.4354 61.1519 10.6067 61.1519H7.80273V53.5234H10.6067ZM9.20471 59.9115H10.4238C11.3991 59.9115 11.6429 59.5394 11.6429 58.7952V55.9422C11.6429 55.198 11.3991 54.8259 10.4238 54.8259H9.20471V59.9115Z" fill="white"/>
<path d="M21.4565 59.4774L22.9194 53.5234H24.3214L22.4318 61.2139H20.4812L19.0792 55.0119L17.6773 61.2139H15.8486L13.959 53.5234H15.361L16.8239 59.4774L18.2259 53.5234H20.1155L21.4565 59.4774Z" fill="white"/>
<path d="M25.3574 53.5234H29.99V54.8259H26.7594V56.6865H29.6853V57.9889H26.7594V59.9735H29.99V61.276H25.3574V53.5234Z" fill="white"/>
<path d="M31.4531 61.2139V53.5234H34.4399C35.8419 53.5234 36.4515 54.1436 36.4515 55.136V55.9422C36.4515 56.5624 36.2077 56.9345 35.5981 57.1826C36.2686 57.3067 36.6953 57.8649 36.6953 58.6091V59.4154C36.6953 60.5317 36.0248 61.1519 34.6228 61.1519H31.4531V61.2139ZM35.0495 55.322C35.0495 54.8879 34.8057 54.7018 34.318 54.7018H32.9161V56.7485H34.2571C34.8057 56.7485 34.9885 56.5004 34.9885 56.0042V55.322H35.0495ZM35.2933 58.6711C35.2933 58.175 35.0495 57.9269 34.5009 57.9269H32.9161V60.0356H34.379C35.0495 60.0356 35.2933 59.8495 35.2933 59.2913V58.6711Z" fill="white"/>
<path d="M4.99867 69.7728H2.19472L1.70707 71.3233H0.244141L2.62141 63.6328H4.63294L7.0102 71.3233H5.48632L4.99867 69.7728ZM2.56045 68.4704H4.63294L3.59669 64.8112L2.56045 68.4704Z" fill="white"/>
<path d="M14.386 69.5868L15.849 63.6328H17.2509L15.3613 71.3233H13.4108L12.0088 65.1213L10.6068 71.3233H8.65622L6.7666 63.6328H8.16858L9.63151 69.5868L11.0335 63.6328H12.9231L14.386 69.5868Z" fill="white"/>
<path d="M21.6387 69.7733H18.8348L18.3471 71.3858H16.8232L19.2005 63.6953H21.212L23.5893 71.3858H22.0654L21.6387 69.7733ZM19.2005 68.4709H21.273L20.2368 64.8117L19.2005 68.4709Z" fill="white"/>
<path d="M28.8935 71.3233L27.1258 68.7805H25.7848V71.3233H24.3828V63.6328H27.4306C29.1983 63.6328 29.8688 64.3771 29.8688 65.6795V66.6718C29.8688 67.6021 29.5031 68.2223 28.7107 68.5324L30.6003 71.2613H28.8935V71.3233ZM27.7963 64.9352H26.2115V67.5401H27.7963C28.5887 67.5401 28.8326 67.23 28.8326 66.6098V65.8655C28.8326 65.1833 28.5887 64.9352 27.7963 64.9352Z" fill="white"/>
<path d="M34.1965 63.6343C36.0862 63.6343 36.6957 64.5646 36.6957 65.681V69.2161C36.6957 70.3325 36.0252 71.2628 34.1965 71.2628H31.3926V63.5723H34.1965V63.6343ZM32.7946 70.0844H34.0137C34.989 70.0844 35.2328 69.7123 35.2328 68.968V66.1151C35.2328 65.3709 34.989 64.9987 34.0137 64.9987H32.7946V70.0844Z" fill="white"/>
<path d="M0 76.8438H36.5124" stroke="#C9BC9C" stroke-width="0.25" stroke-miterlimit="10"/>
<path d="M31.7584 32.8711H28.8935H28.0401H21.274C20.9083 32.8711 20.6035 33.1192 20.6035 33.4293V36.5923V37.5226V38.0808H21.274H22.4322H28.0401C30.0516 38.0808 31.7584 35.724 31.7584 32.8711Z" fill="black"/>
<path d="M26.7609 5.76758V8.68253V9.55081V32.2502C26.7609 32.6223 26.5171 32.9324 26.2123 32.9324H23.1036H22.1892H21.6406V32.2502V31.0718V9.55081C21.6406 7.44212 23.9569 5.76758 26.7609 5.76758Z" fill="black"/>
<path d="M21.3349 21.2734H20.4815H13.7154C13.3497 21.2734 13.0449 21.5215 13.0449 21.8316V23.8783V24.9947V25.925V26.4831V32.6231V33.7395V35.29H13.5935H14.6907H17.6166C17.9214 35.29 18.1652 34.9799 18.1652 34.6078V26.4831H20.4815C22.554 26.4831 24.1998 24.1264 24.1998 21.2734H21.3349Z" fill="black"/>
<path d="M31.0864 33.3066H28.0996H27.1853H20.1754C19.8097 33.3066 19.5049 33.5547 19.5049 33.8648V37.1519V38.0822V38.6404H20.1754H21.3335H27.1853C29.3187 38.7024 31.0864 36.2836 31.0864 33.3066Z" fill="#413E3D"/>
<path d="M27.4298 5.14844V8.18743V9.11773V32.6854C27.4298 33.0575 27.186 33.3676 26.8812 33.3676H23.6506H22.7363H22.1877V32.6854V31.507V9.05571C22.1267 6.885 24.504 5.14844 27.4298 5.14844Z" fill="#413E3D"/>
<path d="M20.6025 20.9648H19.6882H12.6783C12.3126 20.9648 12.0078 21.2129 12.0078 21.523V23.6317V24.8101V25.7404V26.2986V32.6867V33.8651V35.4776H12.5564H13.7146H16.7623C17.0671 35.4776 17.3109 35.1675 17.3109 34.7954V26.3606H19.6882C21.8216 26.3606 23.5894 23.9418 23.5894 20.9648H20.6025Z" fill="#413E3D"/>
<path d="M30.4159 33.7383H27.3071H26.3928H19.0781C18.7124 33.7383 18.3467 33.9864 18.3467 34.3585V37.7696V38.7619V39.3821H19.0781H20.2973H26.3319C28.5872 39.3201 30.4159 36.8393 30.4159 33.7383Z" fill="#5F5D5D"/>
<path d="M28.1612 4.46484V7.62788V8.55818V32.9942C28.1612 33.3663 27.9174 33.7384 27.5517 33.7384H24.1991H23.2238H22.6143V32.9942V31.7537V8.55818C22.6143 6.32545 25.1134 4.46484 28.1612 4.46484Z" fill="#5F5D5D"/>
<path d="M19.8706 20.6519H18.9563H11.6416C11.2759 20.6519 10.9102 20.8999 10.9102 21.2721V23.4428V24.6832V25.6755V26.2957V32.8699V34.0482V35.7228H11.5197H12.6779H15.8476C16.1523 35.7228 16.4571 35.4127 16.4571 34.9785V26.2337H18.9563C21.1507 26.2337 22.9793 23.6909 22.9793 20.5898H19.8706V20.6519Z" fill="#5F5D5D"/>
<path d="M29.7459 34.1738H26.5152H25.54H17.9815C17.5548 34.1738 17.25 34.4839 17.25 34.794V38.3292V39.3835V40.0037H17.9815H19.2615H25.54C27.8563 40.0037 29.7459 37.3989 29.7459 34.1738Z" fill="#797979"/>
<path d="M28.8324 3.8457V7.13278V8.06308V33.4294C28.8324 33.8635 28.5276 34.1736 28.2228 34.1736H24.7483H23.7121H23.1025V33.4294V32.1269V8.06308C23.1025 5.76833 25.6627 3.8457 28.8324 3.8457Z" fill="#797979"/>
<path d="M19.1402 20.343H18.165H10.6065C10.1798 20.343 9.875 20.6531 9.875 20.9632V23.196V24.4984V25.5527V26.1729V33.0572V34.2976V35.9721H10.4846H11.7037H14.9343C15.3 35.9721 15.5439 35.662 15.5439 35.2279V26.1109H18.104C20.4203 26.1109 22.3099 23.5061 22.3099 20.281H19.1402V20.343Z" fill="#797979"/>
<path d="M29.0749 34.6074H25.7833H24.808H16.8838C16.4571 34.6074 16.1523 34.9175 16.1523 35.2896V38.9488V40.0032V40.6234H16.8838H18.2248H24.7471C27.1243 40.6234 29.0749 37.8945 29.0749 34.6074Z" fill="#939393"/>
<path d="M29.5022 3.22656V6.57566V7.56798V33.8025C29.5022 34.2367 29.1974 34.5468 28.8926 34.5468H25.2962H24.26H23.6504V33.8025V32.4381V7.63C23.5895 5.14919 26.2715 3.22656 29.5022 3.22656Z" fill="#939393"/>
<path d="M18.4079 20.0332H17.3717H9.56936C9.14267 20.0332 8.83789 20.3433 8.83789 20.7154V23.0722V24.3746V25.429V26.0492V33.1815V34.4839V36.2825H9.44745H10.7275H14.0801C14.4458 36.2825 14.6896 35.9104 14.6896 35.5383V26.0492H17.3717C19.7489 26.0492 21.6995 23.3203 21.6995 20.0332H18.4079Z" fill="#939393"/>
<path d="M28.4053 35.041H24.9918H23.9556H15.7875C15.3608 35.041 14.9951 35.3511 14.9951 35.7232V39.5065V40.6228V41.3051H15.7875H17.1286H23.8337C26.3938 41.243 28.4053 38.4521 28.4053 35.041Z" fill="#ABACAD"/>
<path d="M30.1731 2.54297V6.0161V7.07045V34.2353C30.1731 34.6695 29.8683 35.0416 29.5026 35.0416H25.7843H24.6871H24.0166V34.2353V32.8709V7.13247C24.0776 4.58964 26.8206 2.54297 30.1731 2.54297Z" fill="#ABACAD"/>
<path d="M17.677 19.6602H16.6407H8.53363C8.10694 19.6602 7.74121 19.9703 7.74121 20.3424V22.7612V24.1256V25.242V25.9242V33.3046V34.607V36.4676H8.41172H9.75274H13.2272C13.5929 36.4676 13.8977 36.0955 13.8977 35.6614V25.9242H16.6407C19.1399 25.9242 21.0905 23.1333 21.0905 19.6602H17.677Z" fill="#ABACAD"/>
<path d="M27.674 35.4746H24.1386H23.0414H14.7514C14.3247 35.4746 13.959 35.7847 13.959 36.1568V40.0641V41.1805V41.8627H14.7514H16.1534H23.1023C25.6624 41.9247 27.674 39.0098 27.674 35.4746Z" fill="#C2C3C4"/>
<path d="M30.9044 1.92188V5.51905V6.63541V34.6686C30.9044 35.1027 30.5996 35.4748 30.2339 35.4748H26.3937H25.2965H24.626V34.6686V33.2421V6.63541C24.565 4.03056 27.369 1.92188 30.9044 1.92188Z" fill="#C2C3C4"/>
<path d="M16.9456 19.3516H15.8484H7.4975C7.07081 19.3516 6.70508 19.6617 6.70508 20.0338V22.5146V23.9411V25.0574V25.7396V33.3681V34.7326V36.6552H7.37559H8.71661H12.313C12.6787 36.6552 12.9835 36.2831 12.9835 35.8489V25.8017H15.8484C18.4085 25.8017 20.481 22.8867 20.481 19.3516H16.9456Z" fill="#C2C3C4"/>
<path d="M27.0024 35.9102H23.3451H22.2479H13.6532C13.1655 35.9102 12.7998 36.2203 12.7998 36.6544V40.6857V41.8641V42.6083H13.6532H15.1161H22.3089C24.869 42.5463 27.0024 39.5694 27.0024 35.9102Z" fill="#D8D9D9"/>
<path d="M31.5744 1.30273V5.02395V6.14031V35.1038C31.5744 35.5999 31.2696 35.972 30.8429 35.972H26.8808H25.7227H24.9912V35.1038V33.6153V6.14031C25.0522 3.47344 27.978 1.30273 31.5744 1.30273Z" fill="#D8D9D9"/>
<path d="M16.2137 19.041H15.1165H6.4608C5.97316 19.041 5.60742 19.3511 5.60742 19.7853V22.3901V23.8786V25.057V25.8012V33.6778V35.1043V37.0889H6.33889H7.74086H11.4592C11.8249 37.0889 12.1906 36.7168 12.1906 36.2206V25.7392H15.1165C17.7376 25.7392 19.871 22.7622 19.871 19.103H16.2137V19.041Z" fill="#D8D9D9"/>
<path d="M26.3315 36.3418H22.5522H21.3941H12.5555C12.0679 36.3418 11.7021 36.6519 11.7021 37.086V41.2414V42.4198V43.164H12.5555H14.0185H21.3941C24.1371 43.164 26.3315 40.125 26.3315 36.3418Z" fill="#EDEDED"/>
<path d="M32.2451 0.619141V4.4644V5.64278V35.4745C32.2451 35.9707 31.9404 36.3428 31.5137 36.3428H27.4297H26.2715H25.54V35.4745V33.924V5.64278C25.54 2.85187 28.5269 0.619141 32.2451 0.619141Z" fill="#EDEDED"/>
<path d="M15.4823 18.7285H14.3242H5.42467C4.93702 18.7285 4.57129 19.0386 4.57129 19.4728V22.1396V23.6281V24.8685V25.6128V33.7374V35.2259V37.2105H5.30276H6.76569H10.6059C11.0326 37.2105 11.3374 36.8384 11.3374 36.3423V25.6128H14.3851C17.1281 25.6128 19.3225 22.5117 19.3225 18.7285H15.4823Z" fill="#EDEDED"/>
<path d="M25.6619 36.7773H21.7607H20.6026H11.4593C10.9716 36.7773 10.5449 37.1495 10.5449 37.5216V41.801V43.0414V43.7856H11.4593H12.9831H20.6026C23.4065 43.8477 25.6619 40.6846 25.6619 36.7773Z" fill="white"/>
<path d="M32.9767 0V3.96929V5.14768V35.9097C32.9767 36.4059 32.611 36.84 32.2453 36.84H28.0393H26.8202H26.0888V35.9097V34.3592V5.14768C26.0278 2.29475 29.1365 0 32.9767 0Z" fill="white"/>
<path d="M14.751 18.4199H13.5928H4.44949C3.96184 18.4199 3.53516 18.73 3.53516 19.1642V21.8931V23.4436V24.684V25.4282V33.7389V35.3514V37.4601H4.26662H5.72955H9.69166C10.1184 37.4601 10.4231 37.026 10.4231 36.5919V25.4902H13.5319C16.3358 25.4902 18.5912 22.3272 18.5912 18.4199H14.751Z" fill="white"/>
</svg>
