<svg xmlns="http://www.w3.org/2000/svg" width="29.505" height="27.353" viewBox="0 0 29.505 27.353">
  <g id="icon_cart" data-name="icon/cart" transform="translate(0.251 0.25)">
    <path id="Shape" d="M23.029,26.852A3.357,3.357,0,1,1,26.441,23.5,3.388,3.388,0,0,1,23.029,26.852Zm0-5.479A2.123,2.123,0,1,0,25.187,23.5,2.143,2.143,0,0,0,23.029,21.373ZM9.383,26.852A3.357,3.357,0,1,1,12.794,23.5,3.388,3.388,0,0,1,9.383,26.852Zm0-5.479A2.123,2.123,0,1,0,11.54,23.5,2.143,2.143,0,0,0,9.383,21.373Zm13.575-2.912H9.616A3.144,3.144,0,0,1,6.493,15.9L4.245,3.524A2.519,2.519,0,0,0,2.188,1.516L.524,1.23A.63.63,0,0,1,.111.97.606.606,0,0,1,.01.511.629.629,0,0,1,.634,0,.653.653,0,0,1,.746.01L2.4.294A3.785,3.785,0,0,1,5.5,3.307l.457,2.5H28.371a.652.652,0,0,1,.508.247.635.635,0,0,1,.1.552L25.99,16.26A3.138,3.138,0,0,1,22.958,18.461ZM6.181,7.038l1.569,8.64a1.878,1.878,0,0,0,1.869,1.537H22.964a1.9,1.9,0,0,0,1.814-1.32L27.52,7.038Z" stroke="#000" stroke-miterlimit="10" stroke-width="0.5"/>
  </g>
</svg>
