<svg xmlns="http://www.w3.org/2000/svg" xmlns:xlink="http://www.w3.org/1999/xlink" width="85" height="40" viewBox="0 0 85 40">
    <defs>
        <filter id="prefix__a" width="230.4%" height="266.7%" x="-65.2%" y="-83.3%" filterUnits="objectBoundingBox">
            <feOffset in="SourceAlpha" result="shadowOffsetOuter1"/>
            <feGaussianBlur in="shadowOffsetOuter1" result="shadowBlurOuter1" stdDeviation="5"/>
            <feColorMatrix in="shadowBlurOuter1" values="0 0 0 0 0.270588235 0 0 0 0 0.270588235 0 0 0 0 0.270588235 0 0 0 0.16 0"/>
        </filter>
        <text id="prefix__b" fill="#F0F0F0" font-family="AppleSDGothicNeo-Regular, Apple SD Gothic Neo" font-size="12" font-weight="normal">
            <tspan x="42" y="22">담기</tspan>
        </text>
    </defs>
    <g fill="none" fill-rule="evenodd">
        <rect width="84" height="39" x=".5" y=".5" fill="#FFF" fill-opacity=".663" stroke="#FFF" stroke-opacity=".5" opacity=".136" rx="15"/>
        <path fill="#FFF" d="M35.578 16.562H25.64l-.203-1.102c-.124-.68-.672-1.21-1.37-1.33l-.735-.126c-.153-.026-.3.073-.327.222-.027.149.075.29.228.317l.738.126c.465.08.83.434.912.886l.996 5.463c.118.654.702 1.13 1.385 1.13h5.911c.621.002 1.17-.393 1.349-.971l1.323-4.262c.024-.083.009-.173-.042-.244-.054-.068-.137-.108-.226-.109zM33.21 22.89c.835 0 1.512.664 1.513 1.481 0 .819-.678 1.482-1.513 1.482-.835 0-1.513-.663-1.513-1.482 0-.818.678-1.481 1.513-1.481zm-6.05 0c.835 0 1.511.664 1.512 1.481 0 .819-.677 1.482-1.512 1.482-.836 0-1.513-.663-1.513-1.482 0-.818.677-1.481 1.513-1.481zm6.05.545c-.528 0-.956.419-.956.936 0 .518.428.937.956.937s.957-.42.957-.937c0-.517-.429-.936-.957-.936zm-6.05 0c-.529 0-.957.419-.957.936 0 .518.428.937.957.937.528 0 .956-.42.956-.937 0-.517-.428-.936-.956-.936zm8.041-6.328l-1.216 3.91c-.106.347-.435.584-.808.582h-5.91c-.41.001-.762-.285-.831-.678l-.696-3.814h9.461z"/>
        <g fill="#F0F0F0">
            <use filter="url(#prefix__a)" xlink:href="#prefix__b"/>
            <use xlink:href="#prefix__b"/>
        </g>
    </g>
</svg>
