<?xml version="1.0" encoding="utf-8"?>
<svg version="1.1" xmlns:xlink="http://www.w3.org/1999/xlink" width="28px" height="19px" xmlns="http://www.w3.org/2000/svg">
  <g transform="matrix(1 0 0 1 -201 -181 )">
    <path d="M 14 10.3636363636364  L 14 5.18181818181818  L 8.75 5.18181818181818  L 8.75 10.3636363636364  L 14 10.3636363636364  Z M 7 13.8181818181818  L 15.75 13.8181818181818  L 15.75 15.5454545454545  L 7 15.5454545454545  L 7 13.8181818181818  Z M 7 3.45454545454545  L 15.75 3.45454545454545  L 15.75 12.0909090909091  L 7 12.0909090909091  L 7 3.45454545454545  Z M 17.5 13.8181818181818  L 24.5 13.8181818181818  L 24.5 15.5454545454545  L 17.5 15.5454545454545  L 17.5 13.8181818181818  Z M 17.5 10.3636363636364  L 24.5 10.3636363636364  L 24.5 12.0909090909091  L 17.5 12.0909090909091  L 17.5 10.3636363636364  Z M 17.5 6.90909090909091  L 24.5 6.90909090909091  L 24.5 8.63636363636364  L 17.5 8.63636363636364  L 17.5 6.90909090909091  Z M 17.5 3.45454545454545  L 24.5 3.45454545454545  L 24.5 5.18181818181818  L 17.5 5.18181818181818  L 17.5 3.45454545454545  Z M 3.240234375 17.0163352272727  C 3.41341145833333 16.8454071969697  3.5 16.6429924242424  4 16.4090909090909  L 4 3.45454545454545  L 2 3.45454545454545  L 2 16.4090909090909  C 1.75 16.6429924242424  1.83658854166667 16.8454071969697  2.009765625 17.0163352272727  C 2.18294270833333 17.1872632575758  2.38802083333333 17.2727272727273  2.625 17.2727272727273  C 2.86197916666667 17.2727272727273  3.06705729166667 17.1872632575758  3.240234375 17.0163352272727  Z M 25.990234375 17.0163352272727  C 26.1634114583333 16.8454071969697  26.25 16.6429924242424  26 16.4090909090909  L 26 2  L 5.25 2  L 5.25 16.4090909090909  C 5.25 16.7059659090909  5.19986979166667 16.9938446969697  5.099609375 17  L 25.375 17  C 25.6119791666667 17.2727272727273  25.8170572916667 17.1872632575758  25.990234375 17.0163352272727  Z M 3.5 0  L 28 0  L 28 16.4090909090909  C 28 17.1287878787879  27.7447916666667 17.7405303030303  27.234375 18.2443181818182  C 26.7239583333333 18.7481060606061  26.1041666666667 19  25.375 19  L 2.625 19  C 1.89583333333333 19  1.27604166666667 18.7481060606061  0.765625 18.2443181818182  C 0.255208333333333 17.7405303030303  0 17.1287878787879  0 16.4090909090909  L 0 1.72727272727273  L 3.5 1.72727272727273  L 3.5 0  Z " fill-rule="nonzero" fill="#000000" stroke="none" transform="matrix(1 0 0 1 201 181 )" />
  </g>
</svg>