<?xml version="1.0" encoding="utf-8"?>
<svg version="1.1" xmlns:xlink="http://www.w3.org/1999/xlink" width="17px" height="17px" xmlns="http://www.w3.org/2000/svg">
  <g transform="matrix(1 0 0 1 -294 -181 )">
    <path d="M 13.6484375 4.5  L 16.5 4.5  L 16.5 17  L 0.25 17  L 0.25 4.5  L 3.1015625 4.5  C 2.87369791666667 4.11588541666667  2.759765625 3.69921875  2.759765625 3.25  C 2.759765625 2.90494791666667  2.82486979166667 2.5810546875  2.955078125 2.2783203125  C 3.08528645833333 1.9755859375  3.2626953125 1.71028645833333  3.4873046875 1.482421875  C 3.7119140625 1.25455729166667  3.9755859375 1.07552083333333  4.2783203125 0.9453125  C 4.5810546875 0.815104166666666  4.90494791666667 0.75  5.25 0.75  C 5.88151041666667 0.75  6.47233072916667 0.898111979166666  7.0224609375 1.1943359375  C 7.57259114583334 1.49055989583333  8.0234375 1.90234375  8.375 2.4296875  C 8.7265625 1.90234375  9.17740885416667 1.49055989583333  9.7275390625 1.1943359375  C 10.2776692708333 0.898111979166666  10.8684895833333 0.75  11.5 0.75  C 11.8450520833333 0.75  12.1689453125 0.815104166666666  12.4716796875 0.9453125  C 12.7744140625 1.07552083333333  13.0397135416667 1.25455729166667  13.267578125 1.482421875  C 13.4954427083333 1.71028645833333  13.6744791666667 1.9755859375  13.8046875 2.2783203125  C 13.9348958333333 2.5810546875  14 2.90494791666667  14 3.25  C 14 3.47135416666667  13.9690755208333 3.68782552083333  13.9072265625 3.8994140625  C 13.8453776041667 4.11100260416667  13.7591145833333 4.31119791666667  13.6484375 4.5  Z M 8 15.75  L 8 5.75  L 1.5 5.75  L 1.5 15.75  L 8 15.75  Z M 5.25 4.5  L 7.75 4.5  C 7.75 4.15494791666667  7.68489583333333 3.8310546875  7.5546875 3.5283203125  C 7.42447916666667 3.2255859375  7.24544270833333 2.96028645833333  7.017578125 2.732421875  C 6.78971354166667 2.50455729166667  6.5244140625 2.32552083333333  6.2216796875 2.1953125  C 5.9189453125 2.06510416666667  5.59505208333333 2  5.25 2  C 5.07421875 2  4.91145833333333 2.03255208333333  4.76171875 2.09765625  C 4.61197916666667 2.16276041666667  4.48014322916667 2.25227864583333  4.3662109375 2.3662109375  C 4.25227864583333 2.48014322916667  4.16276041666667 2.61197916666667  4.09765625 2.76171875  C 4.03255208333333 2.91145833333333  4 3.07421875  4 3.25  C 4 3.42578125  4.03255208333333 3.58854166666667  4.09765625 3.73828125  C 4.16276041666667 3.88802083333333  4.25227864583333 4.01985677083333  4.3662109375 4.1337890625  C 4.48014322916667 4.24772135416667  4.61197916666667 4.33723958333333  4.76171875 4.40234375  C 4.91145833333333 4.46744791666667  5.07421875 4.5  5.25 4.5  Z M 11.98828125 2.09765625  C 11.8385416666667 2.03255208333333  11.67578125 2  11.5 2  C 11.1549479166667 2  10.8310546875 2.06510416666667  10.5283203125 2.1953125  C 10.2255859375 2.32552083333333  9.96028645833334 2.50455729166667  9.732421875 2.732421875  C 9.50455729166667 2.96028645833333  9.32552083333334 3.2255859375  9.1953125 3.5283203125  C 9.06510416666667 3.8310546875  9 4.15494791666667  9 4.5  L 11.5 4.5  C 11.67578125 4.5  11.8385416666667 4.46744791666667  11.98828125 4.40234375  C 12.1380208333333 4.33723958333333  12.2698567708333 4.24772135416667  12.3837890625 4.1337890625  C 12.4977213541667 4.01985677083333  12.5872395833333 3.88802083333333  12.65234375 3.73828125  C 12.7174479166667 3.58854166666667  12.75 3.42578125  12.75 3.25  C 12.75 3.07421875  12.7174479166667 2.91145833333333  12.65234375 2.76171875  C 12.5872395833333 2.61197916666667  12.4977213541667 2.48014322916667  12.3837890625 2.3662109375  C 12.2698567708333 2.25227864583333  12.1380208333333 2.16276041666667  11.98828125 2.09765625  Z M 15 15.75  L 15 5.75  L 9 5.75  L 9 15.75  L 15 15.75  Z " fill-rule="nonzero" fill="#000000" stroke="none" transform="matrix(1 0 0 1 294 181 )" />
  </g>
</svg>