<?xml version="1.0" encoding="utf-8"?>
<svg version="1.1" xmlns:xlink="http://www.w3.org/1999/xlink" width="18px" height="23px" xmlns="http://www.w3.org/2000/svg">
  <g transform="matrix(1 0 0 1 -35 -1700 )">
    <path d="M 12.56484375 10.4738898026316  L 11.521875 9.38630756578947  C 11.8734375 9.04742324561404  12.144921875 8.65731222587719  12.336328125 8.21597450657895  C 12.527734375 7.7746367872807  12.6234375 7.30571546052632  12.6234375 6.80921052631579  C 12.6234375 6.31270559210526  12.527734375 5.84378426535088  12.336328125 5.40244654605263  C 12.144921875 4.96110882675439  11.8734375 4.57099780701754  11.521875 4.23211348684211  L 12.56484375 3.14453125  C 13.06484375 3.63315515350877  13.449609375 4.19073807565789  13.719140625 4.81728001644737  C 13.988671875 5.44382195723684  14.1234375 6.10779879385965  14.1234375 6.80921052631579  C 14.1234375 7.51062225877193  13.988671875 8.17459909539474  13.719140625 8.80114103618421  C 13.449609375 9.42768297697369  13.06484375 9.98526589912281  12.56484375 10.4738898026316  Z M 13.6078125 2.05694901315789  L 14.65078125 0.969366776315789  C 15.04140625 1.34765625  15.391015625 1.76141036184211  15.699609375 2.21062911184211  C 16.008203125 2.65984786184211  16.26796875 3.13270970394737  16.47890625 3.62921463815789  C 16.68984375 4.12571957236842  16.85 4.64192708333333  16.959375 5.17783717105263  C 17.06875 5.71374725877193  17.1234375 6.25753837719298  17.1234375 6.80921052631579  C 17.1234375 7.3608826754386  17.06875 7.90467379385965  16.959375 8.44058388157895  C 16.85 8.97649396929825  16.68984375 9.49270148026316  16.47890625 9.98920641447369  C 16.26796875 10.4857113486842  16.008203125 10.9585731907895  15.699609375 11.4077919407895  C 15.391015625 11.8570106907895  15.04140625 12.2707648026316  14.65078125 12.6490542763158  L 13.6078125 11.5614720394737  C 14.25625 10.9309895833333  14.754296875 10.2079050164474  15.101953125 9.39221833881579  C 15.449609375 8.57653166118421  15.6234375 7.71552905701754  15.6234375 6.80921052631579  C 15.6234375 5.90289199561404  15.449609375 5.04188939144737  15.101953125 4.22620271381579  C 14.754296875 3.41051603618421  14.25625 2.68743146929825  13.6078125 2.05694901315789  Z M 6.178125 9.38630756578947  L 5.13515625 10.4738898026316  C 4.63515625 9.98526589912281  4.250390625 9.42768297697369  3.980859375 8.80114103618421  C 3.711328125 8.17459909539474  3.5765625 7.51062225877193  3.5765625 6.80921052631579  C 3.5765625 6.10779879385965  3.711328125 5.44382195723684  3.980859375 4.81728001644737  C 4.250390625 4.19073807565789  4.63515625 3.63315515350877  5.13515625 3.14453125  L 6.178125 4.23211348684211  C 5.8265625 4.57099780701754  5.555078125 4.96110882675439  5.363671875 5.40244654605263  C 5.172265625 5.84378426535088  5.0765625 6.31270559210526  5.0765625 6.80921052631579  C 5.0765625 7.30571546052632  5.172265625 7.7746367872807  5.363671875 8.21597450657895  C 5.555078125 8.65731222587719  5.8265625 9.04742324561404  6.178125 9.38630756578947  Z M 4.0921875 11.5614720394737  L 3.04921875 12.6490542763158  C 2.65859375 12.2707648026316  2.308984375 11.8570106907895  2.000390625 11.4077919407895  C 1.691796875 10.9585731907895  1.43203125 10.4857113486842  1.22109375 9.98920641447369  C 1.01015625 9.49270148026316  0.850000000000001 8.97649396929825  0.740625 8.44058388157895  C 0.63125 7.90467379385965  0.5765625 7.3608826754386  0.5765625 6.80921052631579  C 0.5765625 6.25753837719298  0.63125 5.71374725877193  0.740625 5.17783717105263  C 0.850000000000001 4.64192708333333  1.01015625 4.12571957236842  1.22109375 3.62921463815789  C 1.43203125 3.13270970394737  1.691796875 2.65984786184211  2.000390625 2.21062911184211  C 2.308984375 1.76141036184211  2.65859375 1.34765625  3.04921875 0.969366776315789  L 4.0921875 2.05694901315789  C 3.44375 2.68743146929825  2.945703125 3.41051603618421  2.598046875 4.22620271381579  C 2.250390625 5.04188939144737  2.0765625 5.90289199561404  2.0765625 6.80921052631579  C 2.0765625 7.71552905701754  2.250390625 8.57653166118421  2.598046875 9.39221833881579  C 2.945703125 10.2079050164474  3.44375 10.9309895833333  4.0921875 11.5614720394737  Z M 10.92421875 5.92259457236842  C 11.04140625 6.19843064692983  11.1 6.49396929824561  11.1 6.80921052631579  C 11.1 7.16385690789474  11.023828125 7.49683045504386  10.871484375 7.80813116776316  C 10.719140625 8.11943188048246  10.50625 8.38147615131579  10.2328125 8.59426398026316  L 14.88515625 22.6973684210526  L 13.31484375 22.6973684210526  L 12.30703125 19.6710526315789  L 5.39296875 19.6710526315789  L 4.38515625 22.6973684210526  L 2.81484375 22.6973684210526  L 7.4671875 8.59426398026316  C 7.19375 8.38147615131579  6.980859375 8.11943188048246  6.828515625 7.80813116776316  C 6.676171875 7.49683045504386  6.6 7.16385690789474  6.6 6.80921052631579  C 6.6 6.49396929824561  6.65859375 6.19843064692983  6.77578125 5.92259457236842  C 6.89296875 5.64675849780702  7.053125 5.40638706140351  7.25625 5.20148026315789  C 7.459375 4.99657346491228  7.69765625 4.83501233552632  7.97109375 4.716796875  C 8.24453125 4.59858141447368  8.5375 4.53947368421053  8.85 4.53947368421053  C 9.1625 4.53947368421053  9.45546875 4.59858141447368  9.72890625 4.716796875  C 10.00234375 4.83501233552632  10.240625 4.99657346491228  10.44375 5.20148026315789  C 10.646875 5.40638706140351  10.80703125 5.64675849780702  10.92421875 5.92259457236842  Z M 9.37734375 6.27724095394737  C 9.22890625 6.12750137061404  9.053125 6.05263157894737  8.85 6.05263157894737  C 8.646875 6.05263157894737  8.47109375 6.12750137061404  8.32265625 6.27724095394737  C 8.17421875 6.4269805372807  8.1 6.60430372807018  8.1 6.80921052631579  C 8.1 7.0141173245614  8.17421875 7.19144051535088  8.32265625 7.34118009868421  C 8.47109375 7.49091968201754  8.646875 7.56578947368421  8.85 7.56578947368421  C 9.053125 7.56578947368421  9.22890625 7.49091968201754  9.37734375 7.34118009868421  C 9.52578125 7.19144051535088  9.6 7.0141173245614  9.6 6.80921052631579  C 9.6 6.60430372807018  9.52578125 6.4269805372807  9.37734375 6.27724095394737  Z M 10.31484375 13.6184210526316  L 8.85 9.19716282894737  L 7.38515625 13.6184210526316  L 10.31484375 13.6184210526316  Z M 5.88515625 18.1578947368421  L 11.81484375 18.1578947368421  L 10.80703125 15.1315789473684  L 6.89296875 15.1315789473684  L 5.88515625 18.1578947368421  Z " fill-rule="nonzero" fill="#00b8ff" stroke="none" transform="matrix(1 0 0 1 35 1700 )" />
  </g>
</svg>