<?xml version="1.0" encoding="utf-8"?>
<svg version="1.1" xmlns:xlink="http://www.w3.org/1999/xlink" width="20px" height="18px" xmlns="http://www.w3.org/2000/svg">
  <g transform="matrix(1 0 0 1 -855 -368 )">
    <path d="M 0.810546875 9.810546875  L 10 0.611328125  L 19.189453125 9.810546875  L 18.310546875 10.689453125  L 17.5 9.888671875  L 17.5 17.75  L 11.25 17.75  L 11.25 11.5  L 8.75 11.5  L 8.75 17.75  L 2.5 17.75  L 2.5 9.888671875  L 1.689453125 10.689453125  L 0.810546875 9.810546875  Z M 12.5 16.5  L 16.25 16.5  L 16.25 8.638671875  L 10 2.388671875  L 3.75 8.638671875  L 3.75 16.5  L 7.5 16.5  L 7.5 10.25  L 12.5 10.25  L 12.5 16.5  Z " fill-rule="nonzero" fill="#00b8ff" stroke="none" transform="matrix(1 0 0 1 855 368 )" />
  </g>
</svg>