<?xml version="1.0" encoding="utf-8"?>
<svg version="1.1" xmlns:xlink="http://www.w3.org/1999/xlink" width="17px" height="15px" xmlns="http://www.w3.org/2000/svg">
  <g transform="matrix(1 0 0 1 -23 -182 )">
    <path d="M 0.68896484375 8.17545572916667  L 8.5 0.509440104166667  L 16.31103515625 8.17545572916667  L 15.56396484375 8.90787760416667  L 14.875 8.24055989583333  L 14.875 14.7916666666667  L 9.5625 14.7916666666667  L 9.5625 9.58333333333333  L 7.4375 9.58333333333333  L 7.4375 14.7916666666667  L 2.125 14.7916666666667  L 2.125 8.24055989583333  L 1.43603515625 8.90787760416667  L 0.68896484375 8.17545572916667  Z M 10.625 13.75  L 13.8125 13.75  L 13.8125 7.19889322916667  L 8.5 1.99055989583333  L 3.1875 7.19889322916667  L 3.1875 13.75  L 6.375 13.75  L 6.375 8.54166666666667  L 10.625 8.54166666666667  L 10.625 13.75  Z " fill-rule="nonzero" fill="#333333" stroke="none" transform="matrix(1 0 0 1 23 182 )" />
  </g>
</svg>