<?xml version="1.0" encoding="utf-8"?>
<svg version="1.1" xmlns:xlink="http://www.w3.org/1999/xlink" width="13px" height="11px" xmlns="http://www.w3.org/2000/svg">
  <g transform="matrix(1 0 0 1 -36 -40 )">
    <path d="M 10.7075892857143 5.90104166666667  C 11.6168154761905 5.00347222222222  12.0714285714286 4.15364583333333  12.0714285714286 3.3515625  C 12.0714285714286 2.96484375  12.0194382440476 2.62348090277778  11.9154575892857 2.32747395833333  C 11.8114769345238 2.03146701388889  11.678478422619 1.79633246527778  11.5164620535714 1.6220703125  C 11.3544456845238 1.44780815972222  11.1573660714286 1.30577256944444  10.9252232142857 1.19596354166667  C 10.6930803571429 1.08615451388889  10.4657738095238 1.01215277777778  10.2433035714286 0.973958333333333  C 10.0208333333333 0.935763888888887  9.78385416666667 0.916666666666667  9.53236607142857 0.916666666666667  C 9.28087797619048 0.916666666666667  9.01004464285714 0.9775390625  8.71986607142857 1.09928385416667  C 8.4296875 1.22102864583333  8.16248139880952 1.37380642361111  7.91824776785714 1.5576171875  C 7.67401413690476 1.74142795138889  7.46484375 1.91330295138889  7.29073660714286 2.0732421875  C 7.11662946428572 2.23318142361111  6.97154017857143 2.37999131944444  6.85546875 2.513671875  C 6.76841517857143 2.61870659722222  6.6499255952381 2.67122395833333  6.5 2.67122395833333  C 6.35007440476191 2.67122395833333  6.23158482142857 2.61870659722222  6.14453125 2.513671875  C 6.02845982142857 2.37999131944444  5.88337053571429 2.23318142361111  5.70926339285714 2.0732421875  C 5.53515625 1.91330295138889  5.32598586309524 1.74142795138889  5.08175223214286 1.5576171875  C 4.83751860119048 1.37380642361111  4.5703125 1.22102864583333  4.28013392857143 1.09928385416667  C 3.98995535714286 0.9775390625  3.71912202380952 0.916666666666667  3.46763392857143 0.916666666666667  C 3.21614583333333 0.916666666666667  2.97916666666667 0.935763888888887  2.75669642857143 0.973958333333333  C 2.53422619047619 1.01215277777778  2.30691964285714 1.08615451388889  2.07477678571429 1.19596354166667  C 1.84263392857143 1.30577256944444  1.64555431547619 1.44780815972222  1.48353794642857 1.6220703125  C 1.32152157738095 1.79633246527778  1.18852306547619 2.03146701388889  1.08454241071429 2.32747395833333  C 0.980561755952381 2.62348090277778  0.928571428571428 2.96484375  0.928571428571428 3.3515625  C 0.928571428571428 4.15364583333333  1.38076636904762 5.00108506944444  2.28515625 5.89388020833333  L 6.5 9.904296875  L 10.7075892857143 5.90104166666667  Z M 12.0786830357143 0.888020833333333  C 12.6928943452381 1.48003472222222  13 2.30121527777778  13 3.3515625  C 13 4.40668402777778  12.4462425595238 5.48090277777778  11.3387276785714 6.57421875  L 6.81919642857143 10.87109375  C 6.73214285714286 10.95703125  6.62574404761905 11  6.5 11  C 6.37425595238095 11  6.26785714285714 10.95703125  6.18080357142857 10.87109375  L 1.65401785714286 6.55989583333333  C 1.60565476190476 6.52170138888889  1.53915550595238 6.45963541666667  1.45452008928571 6.37369791666667  C 1.36988467261905 6.28776041666667  1.23567708333333 6.13140190972222  1.05189732142857 5.90462239583333  C 0.86811755952381 5.67784288194444  0.703683035714286 5.44509548611111  0.55859375 5.20638020833333  C 0.413504464285714 4.96766493055556  0.28413318452381 4.67881944444444  0.170479910714286 4.33984375  C 0.0568266369047619 4.00086805555555  0 3.67144097222222  0 3.3515625  C 0 2.30121527777778  0.307105654761905 1.48003472222222  0.921316964285714 0.888020833333333  C 1.53552827380952 0.296006944444444  2.38430059523809 0  3.46763392857143 0  C 3.76748511904762 0  4.07338169642857 0.0513237847222215  4.38532366071429 0.153971354166667  C 4.697265625 0.25661892361111  4.98744419642857 0.395073784722222  5.255859375 0.5693359375  C 5.52427455357143 0.743598090277777  5.75520833333333 0.907118055555554  5.94866071428571 1.05989583333333  C 6.1421130952381 1.21267361111111  6.32589285714286 1.375  6.5 1.546875  C 6.67410714285714 1.375  6.85788690476191 1.21267361111111  7.05133928571429 1.05989583333333  C 7.24479166666667 0.907118055555554  7.47572544642857 0.743598090277777  7.744140625 0.5693359375  C 8.01255580357143 0.395073784722222  8.302734375 0.25661892361111  8.61467633928571 0.153971354166667  C 8.92661830357143 0.0513237847222215  9.23251488095238 0  9.53236607142857 0  C 10.6156994047619 0  11.4644717261905 0.296006944444444  12.0786830357143 0.888020833333333  Z " fill-rule="nonzero" fill="#42bbec" stroke="none" transform="matrix(1 0 0 1 36 40 )" />
  </g>
</svg>