<?xml version="1.0" encoding="utf-8"?>
<svg version="1.1" xmlns:xlink="http://www.w3.org/1999/xlink" width="23px" height="20px" xmlns="http://www.w3.org/2000/svg">
  <g transform="matrix(1 0 0 1 -320 -871 )">
    <path d="M 18.9441964285714 10.7291666666667  C 20.5528273809524 9.09722222222222  21.3571428571429 7.55208333333333  21.3571428571429 6.09375  C 21.3571428571429 5.390625  21.2651599702381 4.76996527777778  21.0811941964286 4.23177083333333  C 20.897228422619 3.69357638888889  20.6619233630952 3.26605902777778  20.3752790178571 2.94921875  C 20.0886346726191 2.63237847222222  19.7399553571429 2.37413194444444  19.3292410714286 2.17447916666667  C 18.9185267857143 1.97482638888889  18.516369047619 1.84027777777778  18.1227678571429 1.77083333333333  C 17.7291666666667 1.70138888888889  17.3098958333333 1.66666666666667  16.8649553571429 1.66666666666667  C 16.4200148809524 1.66666666666667  15.9408482142857 1.77734375  15.4274553571429 1.99869791666667  C 14.9140625 2.22005208333333  14.4413132440476 2.49782986111111  14.0092075892857 2.83203125  C 13.5771019345238 3.16623263888889  13.20703125 3.47873263888889  12.8989955357143 3.76953125  C 12.5909598214286 4.06032986111111  12.3342633928571 4.32725694444444  12.12890625 4.5703125  C 11.9748883928571 4.76128472222222  11.7652529761905 4.85677083333333  11.5 4.85677083333333  C 11.2347470238095 4.85677083333333  11.0251116071429 4.76128472222222  10.87109375 4.5703125  C 10.6657366071429 4.32725694444444  10.4090401785714 4.06032986111111  10.1010044642857 3.76953125  C 9.79296875 3.47873263888889  9.42289806547619 3.16623263888889  8.99079241071428 2.83203125  C 8.55868675595238 2.49782986111111  8.0859375 2.22005208333333  7.57254464285714 1.99869791666667  C 7.05915178571429 1.77734375  6.57998511904762 1.66666666666667  6.13504464285714 1.66666666666667  C 5.69010416666667 1.66666666666667  5.27083333333333 1.70138888888889  4.87723214285714 1.77083333333333  C 4.48363095238095 1.84027777777778  4.08147321428571 1.97482638888889  3.67075892857143 2.17447916666667  C 3.26004464285714 2.37413194444444  2.91136532738095 2.63237847222222  2.62472098214286 2.94921875  C 2.33807663690476 3.26605902777778  2.10277157738095 3.69357638888889  1.91880580357143 4.23177083333333  C 1.73484002976191 4.76996527777778  1.64285714285714 5.390625  1.64285714285714 6.09375  C 1.64285714285714 7.55208333333333  2.4428943452381 9.09288194444444  4.04296875 10.7161458333333  L 11.5 18.0078125  L 18.9441964285714 10.7291666666667  Z M 21.3699776785714 1.61458333333333  C 22.4566592261905 2.69097222222222  23 4.18402777777778  23 6.09375  C 23 8.01215277777778  22.020275297619 9.96527777777778  20.0608258928571 11.953125  L 12.0647321428571 19.765625  C 11.9107142857143 19.921875  11.7224702380952 20  11.5 20  C 11.2775297619048 20  11.0892857142857 19.921875  10.9352678571429 19.765625  L 2.92633928571429 11.9270833333333  C 2.84077380952381 11.8576388888889  2.72312127976191 11.7447916666667  2.57338169642857 11.5885416666667  C 2.42364211309524 11.4322916666667  2.18619791666667 11.1480034722222  1.86104910714286 10.7356770833333  C 1.53590029761905 10.3233506944444  1.24497767857143 9.90017361111111  0.98828125 9.46614583333333  C 0.731584821428571 9.03211805555556  0.502697172619048 8.50694444444444  0.301618303571429 7.890625  C 0.10053943452381 7.27430555555555  0 6.67534722222222  0 6.09375  C 0 4.18402777777778  0.543340773809524 2.69097222222222  1.63002232142857 1.61458333333333  C 2.71670386904762 0.538194444444444  4.21837797619048 0  6.13504464285714 0  C 6.66555059523809 0  7.20675223214286 0.093315972222221  7.75864955357143 0.279947916666667  C 8.310546875 0.466579861111109  8.82393973214286 0.718315972222221  9.298828125 1.03515625  C 9.77371651785714 1.35199652777778  10.1822916666667 1.64930555555555  10.5245535714286 1.92708333333333  C 10.8668154761905 2.20486111111111  11.1919642857143 2.5  11.5 2.8125  C 11.8080357142857 2.5  12.1331845238095 2.20486111111111  12.4754464285714 1.92708333333333  C 12.8177083333333 1.64930555555555  13.2262834821429 1.35199652777778  13.701171875 1.03515625  C 14.1760602678571 0.718315972222221  14.689453125 0.466579861111109  15.2413504464286 0.279947916666667  C 15.7932477678571 0.093315972222221  16.3344494047619 0  16.8649553571429 0  C 18.7816220238095 0  20.2832961309524 0.538194444444444  21.3699776785714 1.61458333333333  Z " fill-rule="nonzero" fill="#42bbec" stroke="none" transform="matrix(1 0 0 1 320 871 )" />
  </g>
</svg>