<?xml version="1.0" encoding="utf-8"?>
<svg version="1.1" xmlns:xlink="http://www.w3.org/1999/xlink" width="41px" height="43px" xmlns="http://www.w3.org/2000/svg">
  <g transform="matrix(1 0 0 1 -1276 -844 )">
    <path d="M 19.1208767361111 2.39797491776316  C 19.5509259259259 2.21379865679825  20.0106336805556 2.12171052631579  20.5 2.12171052631579  C 20.9893663194444 2.12171052631579  21.4490740740741 2.21379865679825  21.8791232638889 2.39797491776316  C 22.3091724537037 2.58215117872807  22.6873191550926 2.83631441885965  23.0135633680556 3.16046463815789  C 23.3398075810185 3.48461485745614  23.5956127025463 3.86033442982456  23.7809787326389 4.28762335526316  C 23.9663447627315 4.71491228070176  24.0590277777778 5.17166940789474  24.0590277777778 5.65789473684211  C 24.0590277777778 6.14412006578947  23.9663447627315 6.60087719298246  23.7809787326389 7.02816611842105  C 23.5956127025463 7.45545504385965  23.3398075810185 7.83117461622807  23.0135633680556 8.15532483552632  C 22.6873191550926 8.47947505482456  22.3091724537037 8.73363829495614  21.8791232638889 8.91781455592105  C 21.4490740740741 9.10199081688597  20.9893663194444 9.19407894736842  20.5 9.19407894736842  C 20.0106336805556 9.19407894736842  19.5509259259259 9.10199081688597  19.1208767361111 8.91781455592105  C 18.6908275462963 8.73363829495614  18.3126808449074 8.47947505482456  17.9864366319444 8.15532483552632  C 17.6601924189815 7.83117461622807  17.4043872974537 7.45545504385965  17.2190212673611 7.02816611842105  C 17.0336552372685 6.60087719298246  16.9409722222222 6.14412006578947  16.9409722222222 5.65789473684211  C 16.9409722222222 5.17166940789474  17.0336552372685 4.71491228070176  17.2190212673611 4.28762335526316  C 17.4043872974537 3.86033442982456  17.6601924189815 3.48461485745614  17.9864366319444 3.16046463815789  C 18.3126808449074 2.83631441885965  18.6908275462963 2.58215117872807  19.1208767361111 2.39797491776316  Z M 5.46310763888889 11.8793688322368  C 5.29998553240741 11.4889151589912  5.21842447916667 11.0726768092105  5.21842447916667 10.6306537828947  C 5.21842447916667 10.1886307565789  5.29998553240741 9.77607593201754  5.46310763888889 9.39298930921053  C 5.62622974537037 9.00990268640351  5.85237630208333 8.67470189144737  6.14154730902778 8.3873869243421  C 6.43071831597222 8.10007195723684  6.77179181134259 7.87169339364035  7.16476779513889 7.70225123355263  C 7.55774377893519 7.53280907346491  7.97667100694444 7.44808799342105  8.42154947916667 7.44808799342105  C 8.86642795138889 7.44808799342105  9.2816478587963 7.53280907346491  9.66720920138889 7.70225123355263  C 10.0527705439815 7.87169339364035  10.39013671875 8.10007195723684  10.6793077256944 8.3873869243421  C 10.9684787326389 8.67470189144737  11.1983326099537 9.00990268640351  11.3688693576389 9.39298930921053  C 11.5394061053241 9.77607593201754  11.6246744791667 10.1886307565789  11.6246744791667 10.6306537828947  C 11.6246744791667 11.0726768092105  11.5394061053241 11.4889151589912  11.3688693576389 11.8793688322368  C 11.1983326099537 12.2698225054825  10.9684787326389 12.6087068256579  10.6793077256944 12.8960217927632  C 10.39013671875 13.1833367598684  10.0527705439815 13.4080317982456  9.66720920138889 13.5701069078947  C 9.2816478587963 13.7321820175439  8.86642795138889 13.8132195723684  8.42154947916667 13.8132195723684  C 7.97667100694444 13.8132195723684  7.55774377893519 13.7321820175439  7.16476779513889 13.5701069078947  C 6.77179181134259 13.4080317982456  6.43071831597222 13.1833367598684  6.14154730902778 12.8960217927632  C 5.85237630208333 12.6087068256579  5.62622974537037 12.2698225054825  5.46310763888889 11.8793688322368  Z M 2.30447048611111 20.0236430921053  C 2.64554398148148 19.8763020833333  3.01627604166667 19.8026315789474  3.41666666666667 19.8026315789474  C 3.81705729166667 19.8026315789474  4.18778935185185 19.8763020833333  4.52886284722222 20.0236430921053  C 4.86993634259259 20.1709841008772  5.17022931134259 20.3735779879386  5.42974175347222 20.6314247532895  C 5.68925419560185 20.8892715186404  5.89315682870371 21.1876370614035  6.04144965277778 21.5265213815789  C 6.18974247685185 21.8654057017544  6.26388888888889 22.2337582236842  6.26388888888889 22.6315789473684  C 6.26388888888889 23.0293996710526  6.18974247685185 23.3977521929825  6.04144965277778 23.7366365131579  C 5.89315682870371 24.0755208333333  5.68925419560185 24.3738863760965  5.42974175347222 24.6317331414474  C 5.17022931134259 24.8895799067983  4.86993634259259 25.0921737938597  4.52886284722222 25.2395148026316  C 4.18778935185185 25.3868558114035  3.81705729166667 25.4605263157895  3.41666666666667 25.4605263157895  C 3.01627604166667 25.4605263157895  2.64554398148148 25.3868558114035  2.30447048611111 25.2395148026316  C 1.96339699074074 25.0921737938597  1.66310402199074 24.8895799067983  1.40359157986111 24.6317331414474  C 1.14407913773148 24.3738863760965  0.94017650462963 24.0755208333333  0.791883680555556 23.7366365131579  C 0.643590856481482 23.3977521929825  0.569444444444444 23.0293996710526  0.569444444444444 22.6315789473684  C 0.569444444444444 22.2337582236842  0.643590856481482 21.8654057017544  0.791883680555556 21.5265213815789  C 0.94017650462963 21.1876370614035  1.14407913773148 20.8892715186404  1.40359157986111 20.6314247532895  C 1.66310402199074 20.3735779879386  1.96339699074074 20.1709841008772  2.30447048611111 20.0236430921053  Z M 6.13042534722222 35.5939041940789  C 5.99696180555556 35.2918551260965  5.93023003472222 34.9713884320175  5.93023003472222 34.6325041118421  C 5.93023003472222 34.2936197916667  5.99696180555556 33.9731530975877  6.13042534722222 33.6711040296053  C 6.26388888888889 33.3690549616228  6.44184027777778 33.1075246710526  6.66427951388889 32.8865131578947  C 6.88671875 32.6655016447368  7.14993851273148 32.4886924342105  7.45393880208333 32.3560855263158  C 7.75793909143519 32.2234786184211  8.0804759837963 32.1571751644737  8.42154947916667 32.1571751644737  C 8.76262297453704 32.1571751644737  9.08515986689815 32.2234786184211  9.38916015625 32.3560855263158  C 9.69316044560185 32.4886924342105  9.95638020833333 32.6655016447368  10.1788194444444 32.8865131578947  C 10.4012586805556 33.1075246710526  10.5792100694444 33.3690549616228  10.7126736111111 33.6711040296053  C 10.8461371527778 33.9731530975877  10.9128689236111 34.2936197916667  10.9128689236111 34.6325041118421  C 10.9128689236111 34.9713884320175  10.8461371527778 35.2918551260965  10.7126736111111 35.5939041940789  C 10.5792100694444 35.8959532620614  10.4012586805556 36.1574835526316  10.1788194444444 36.3784950657895  C 9.95638020833333 36.5995065789474  9.69316044560185 36.7763157894737  9.38916015625 36.9089226973684  C 9.08515986689815 37.0415296052632  8.76262297453704 37.1078330592105  8.42154947916667 37.1078330592105  C 8.0804759837963 37.1078330592105  7.75793909143519 37.0415296052632  7.45393880208333 36.9089226973684  C 7.14993851273148 36.7763157894737  6.88671875 36.5995065789474  6.66427951388889 36.3784950657895  C 6.44184027777778 36.1574835526316  6.26388888888889 35.8959532620614  6.13042534722222 35.5939041940789  Z M 18.9874131944444 38.1023848684211  C 19.4026331018519 37.6898300438597  19.9068287037037 37.4835526315789  20.5 37.4835526315789  C 21.0931712962963 37.4835526315789  21.5973668981482 37.6898300438597  22.0125868055556 38.1023848684211  C 22.427806712963 38.5149396929825  22.6354166666667 39.015899122807  22.6354166666667 39.6052631578947  C 22.6354166666667 40.1946271929825  22.427806712963 40.695586622807  22.0125868055556 41.1081414473684  C 21.5973668981482 41.5206962719298  21.0931712962963 41.7269736842105  20.5 41.7269736842105  C 19.9068287037037 41.7269736842105  19.4026331018519 41.5206962719298  18.9874131944444 41.1081414473684  C 18.572193287037 40.695586622807  18.3645833333333 40.1946271929825  18.3645833333333 39.6052631578947  C 18.3645833333333 39.015899122807  18.572193287037 38.5149396929825  18.9874131944444 38.1023848684211  Z M 31.310546875 35.8922697368421  C 30.9694733796296 35.5533854166667  30.7989366319444 35.1334635416667  30.7989366319444 34.6325041118421  C 30.7989366319444 34.1315446820175  30.9694733796296 33.7116228070175  31.310546875 33.3727384868421  C 31.6516203703704 33.0338541666667  32.0742549189815 32.8644120065789  32.5784505208333 32.8644120065789  C 33.0826461226852 32.8644120065789  33.5052806712963 33.0338541666667  33.8463541666667 33.3727384868421  C 34.187427662037 33.7116228070175  34.3579644097222 34.1315446820175  34.3579644097222 34.6325041118421  C 34.3579644097222 35.1334635416667  34.187427662037 35.5533854166667  33.8463541666667 35.8922697368421  C 33.5052806712963 36.2311540570175  33.0826461226852 36.4005962171053  32.5784505208333 36.4005962171053  C 32.0742549189815 36.4005962171053  31.6516203703704 36.2311540570175  31.310546875 35.8922697368421  Z M 36.5823567708333 21.6370271381579  C 36.8641131365741 21.3570792214912  37.1977719907407 21.2171052631579  37.5833333333333 21.2171052631579  C 37.9688946759259 21.2171052631579  38.3025535300926 21.3570792214912  38.5843098958333 21.6370271381579  C 38.8660662615741 21.9169750548246  39.0069444444444 22.2484923245614  39.0069444444444 22.6315789473684  C 39.0069444444444 23.0146655701754  38.8660662615741 23.3461828399123  38.5843098958333 23.6261307565789  C 38.3025535300926 23.9060786732456  37.9688946759259 24.0460526315789  37.5833333333333 24.0460526315789  C 37.1977719907407 24.0460526315789  36.8641131365741 23.9060786732456  36.5823567708333 23.6261307565789  C 36.3006004050926 23.3461828399123  36.1597222222222 23.0146655701754  36.1597222222222 22.6315789473684  C 36.1597222222222 22.2484923245614  36.3006004050926 21.9169750548246  36.5823567708333 21.6370271381579  Z M 31.0658637152778 7.05026726973684  C 31.5404007523148 6.84398985745614  32.0445963541667 6.74085115131579  32.5784505208333 6.74085115131579  C 33.1123046875 6.74085115131579  33.6165002893519 6.84398985745614  34.0910373263889 7.05026726973684  C 34.5655743634259 7.25654468201754  34.9807942708333 7.53649259868421  35.3366970486111 7.89011101973684  C 35.6925998263889 8.24372944078947  35.9743561921296 8.65628426535088  36.1819661458333 9.12777549342105  C 36.389576099537 9.59926672149123  36.4933810763889 10.1002261513158  36.4933810763889 10.6306537828947  C 36.4933810763889 11.1610814144737  36.389576099537 11.6620408442982  36.1819661458333 12.1335320723684  C 35.9743561921296 12.6050233004386  35.6925998263889 13.017578125  35.3366970486111 13.3711965460526  C 34.9807942708333 13.7248149671053  34.5655743634259 14.0047628837719  34.0910373263889 14.2110402960526  C 33.6165002893519 14.4173177083333  33.1123046875 14.5204564144737  32.5784505208333 14.5204564144737  C 32.0445963541667 14.5204564144737  31.5404007523148 14.4173177083333  31.0658637152778 14.2110402960526  C 30.5913266782407 14.0047628837719  30.1761067708333 13.7248149671053  29.8202039930556 13.3711965460526  C 29.4643012152778 13.017578125  29.182544849537 12.6050233004386  28.9749348958333 12.1335320723684  C 28.7673249421296 11.6620408442982  28.6635199652778 11.1610814144737  28.6635199652778 10.6306537828947  C 28.6635199652778 10.1002261513158  28.7673249421296 9.59926672149123  28.9749348958333 9.12777549342105  C 29.182544849537 8.65628426535088  29.4643012152778 8.24372944078947  29.8202039930556 7.89011101973684  C 30.1761067708333 7.53649259868421  30.5913266782407 7.25654468201754  31.0658637152778 7.05026726973684  Z " fill-rule="nonzero" fill="#ffffff" stroke="none" transform="matrix(1 0 0 1 1276 844 )" />
  </g>
</svg>