<?xml version="1.0" encoding="utf-8"?>
<svg version="1.1" xmlns:xlink="http://www.w3.org/1999/xlink" width="20px" height="20px" xmlns="http://www.w3.org/2000/svg">
  <g transform="matrix(1 0 0 1 -1727 -1402 )">
    <path d="M 10.146484375 12.265625  C 9.912109375 12.5325520833333  9.6484375 12.7669270833333  9.35546875 12.96875  C 10.0130208333333 13.2291666666667  10.6119791666667 13.5758463541667  11.15234375 14.0087890625  C 11.6927083333333 14.4417317708333  12.1549479166667 14.9381510416667  12.5390625 15.498046875  C 12.9231770833333 16.0579427083333  13.2210286458333 16.6666666666667  13.4326171875 17.32421875  C 13.6442057291667 17.9817708333333  13.75 18.6653645833333  13.75 19.375  L 13.75 20  L 12.5 20  L 12.5 19.375  C 12.5 18.6002604166667  12.3518880208333 17.87109375  12.0556640625 17.1875  C 11.7594401041667 16.50390625  11.357421875 15.908203125  10.849609375 15.400390625  C 10.341796875 14.892578125  9.74609375 14.4905598958333  9.0625 14.1943359375  C 8.37890625 13.8981119791667  7.64973958333333 13.75  6.875 13.75  C 6.10026041666667 13.75  5.37109375 13.8981119791667  4.6875 14.1943359375  C 4.00390625 14.4905598958333  3.408203125 14.892578125  2.900390625 15.400390625  C 2.392578125 15.908203125  1.99055989583334 16.50390625  1.6943359375 17.1875  C 1.39811197916666 17.87109375  1.25 18.6002604166667  1.25 19.375  L 1.25 20  L 0 20  L 0 19.375  C 0 18.6653645833333  0.105794270833336 17.9817708333333  0.3173828125 17.32421875  C 0.528971354166664 16.6666666666667  0.826822916666664 16.0579427083333  1.2109375 15.498046875  C 1.59505208333334 14.9381510416667  2.05729166666666 14.4417317708333  2.59765625 14.0087890625  C 3.13802083333334 13.5758463541667  3.73697916666666 13.2291666666667  4.39453125 12.96875  C 4.1015625 12.7669270833333  3.837890625 12.5325520833333  3.603515625 12.265625  C 3.369140625 11.9986979166667  3.17057291666666 11.7106119791667  3.0078125 11.4013671875  C 2.84505208333334 11.0921223958333  2.7197265625 10.7666015625  2.6318359375 10.4248046875  C 2.5439453125 10.0830078125  2.5 9.73307291666667  2.5 9.375  C 2.5 8.76953125  2.61555989583334 8.20149739583334  2.8466796875 7.6708984375  C 3.07779947916666 7.14029947916667  3.39029947916666 6.67805989583333  3.7841796875 6.2841796875  C 4.17805989583333 5.89029947916667  4.64029947916667 5.57779947916667  5.1708984375 5.3466796875  C 5.70149739583333 5.11555989583333  6.26953125 5  6.875 5  C 7.48046875 5  8.04850260416667 5.11555989583333  8.5791015625 5.3466796875  C 9.10970052083334 5.57779947916667  9.57194010416667 5.89029947916667  9.9658203125 6.2841796875  C 10.3597005208333 6.67805989583333  10.6722005208333 7.14029947916667  10.9033203125 7.6708984375  C 11.1344401041667 8.20149739583334  11.25 8.76953125  11.25 9.375  C 11.25 9.73307291666667  11.2060546875 10.0830078125  11.1181640625 10.4248046875  C 11.0302734375 10.7666015625  10.9049479166667 11.0921223958333  10.7421875 11.4013671875  C 10.5794270833333 11.7106119791667  10.380859375 11.9986979166667  10.146484375 12.265625  Z M 5.6591796875 12.255859375  C 6.0400390625 12.4186197916667  6.4453125 12.5  6.875 12.5  C 7.3046875 12.5  7.70833333333333 12.4186197916667  8.0859375 12.255859375  C 8.46354166666667 12.0930989583333  8.7939453125 11.8701171875  9.0771484375 11.5869140625  C 9.3603515625 11.3037109375  9.5849609375 10.9716796875  9.7509765625 10.5908203125  C 9.9169921875 10.2099609375  10 9.8046875  10 9.375  C 10 8.9453125  9.9169921875 8.54166666666667  9.7509765625 8.1640625  C 9.5849609375 7.78645833333333  9.3603515625 7.4560546875  9.0771484375 7.1728515625  C 8.7939453125 6.8896484375  8.46354166666667 6.6650390625  8.0859375 6.4990234375  C 7.70833333333333 6.3330078125  7.3046875 6.25  6.875 6.25  C 6.4453125 6.25  6.0400390625 6.3330078125  5.6591796875 6.4990234375  C 5.2783203125 6.6650390625  4.9462890625 6.8896484375  4.6630859375 7.1728515625  C 4.3798828125 7.4560546875  4.15690104166667 7.78645833333333  3.994140625 8.1640625  C 3.83138020833334 8.54166666666667  3.75 8.9453125  3.75 9.375  C 3.75 9.8046875  3.83138020833334 10.2099609375  3.994140625 10.5908203125  C 4.15690104166667 10.9716796875  4.3798828125 11.3037109375  4.6630859375 11.5869140625  C 4.9462890625 11.8701171875  5.2783203125 12.0930989583333  5.6591796875 12.255859375  Z M 5 0  L 20 0  L 20 10  L 17.5 10  L 13.75 13.75  L 13.75 10  L 12.5 10  L 12.5 8.75  L 15 8.75  L 15 10.732421875  L 16.982421875 8.75  L 18.75 8.75  L 18.75 1.25  L 6.25 1.25  L 6.25 3.49609375  C 6.04166666666667 3.52213541666667  5.83170572916667 3.55631510416667  5.6201171875 3.5986328125  C 5.40852864583333 3.64095052083333  5.20182291666667 3.69791666666667  5 3.76953125  L 5 0  Z " fill-rule="nonzero" fill="#333333" stroke="none" transform="matrix(1 0 0 1 1727 1402 )" />
  </g>
</svg>