<?xml version="1.0" encoding="utf-8"?>
<svg version="1.1" xmlns:xlink="http://www.w3.org/1999/xlink" width="20px" height="15px" xmlns="http://www.w3.org/2000/svg">
  <g transform="matrix(1 0 0 1 -141 -236 )">
    <path d="M 17.5 1.75  L 20 1.75  L 20 14  L 1.25 14  L 1.25 11.75  L 0 11.75  L 0 0.5  L 17.5 0.5  L 17.5 1.75  Z M 16.25 1.75  L 15 1.75  C 15 1.92578125  15.0325520833333 2.08854166666667  15.09765625 2.23828125  C 15.1627604166667 2.38802083333333  15.2522786458333 2.51985677083333  15.3662109375 2.6337890625  C 15.4801432291667 2.74772135416667  15.6119791666667 2.83723958333333  15.76171875 2.90234375  C 15.9114583333333 2.96744791666667  16.07421875 3  16.25 3  L 16.25 1.75  Z M 1.25 1.75  L 1.25 3  C 1.42578125 3  1.58854166666667 2.96744791666667  1.73828125 2.90234375  C 1.88802083333333 2.83723958333333  2.01985677083333 2.74772135416667  2.1337890625 2.6337890625  C 2.24772135416667 2.51985677083333  2.33723958333333 2.38802083333333  2.40234375 2.23828125  C 2.46744791666667 2.08854166666667  2.5 1.92578125  2.5 1.75  L 1.25 1.75  Z M 1.25 4.25  L 1.25 8  C 1.59505208333333 8  1.9189453125 8.06510416666667  2.2216796875 8.1953125  C 2.5244140625 8.32552083333334  2.78971354166667 8.50455729166667  3.017578125 8.732421875  C 3.24544270833333 8.96028645833334  3.42447916666667 9.2255859375  3.5546875 9.5283203125  C 3.68489583333333 9.8310546875  3.75 10.1549479166667  3.75 10.5  L 13.75 10.5  C 13.75 10.1549479166667  13.8151041666667 9.8310546875  13.9453125 9.5283203125  C 14.0755208333333 9.2255859375  14.2545572916667 8.96028645833334  14.482421875 8.732421875  C 14.7102864583333 8.50455729166667  14.9755859375 8.32552083333334  15.2783203125 8.1953125  C 15.5810546875 8.06510416666667  15.9049479166667 8  16.25 8  L 16.25 4.25  C 15.9049479166667 4.25  15.5810546875 4.18489583333333  15.2783203125 4.0546875  C 14.9755859375 3.92447916666667  14.7102864583333 3.74544270833333  14.482421875 3.517578125  C 14.2545572916667 3.28971354166667  14.0755208333333 3.0244140625  13.9453125 2.7216796875  C 13.8151041666667 2.4189453125  13.75 2.09505208333333  13.75 2  L 3.75 2  C 3.75 2.09505208333333  3.68489583333333 2.4189453125  3.5546875 2.7216796875  C 3.42447916666667 3.0244140625  3.24544270833333 3.28971354166667  3.017578125 3.517578125  C 2.78971354166667 3.74544270833333  2.5244140625 3.92447916666667  2.2216796875 4.0546875  C 1.9189453125 4.18489583333333  1.59505208333333 4.25  1.25 4.25  Z M 16.25 10.5  L 16.25 9.25  C 16.07421875 9.25  15.9114583333333 9.28255208333334  15.76171875 9.34765625  C 15.6119791666667 9.41276041666667  15.4801432291667 9.50227864583334  15.3662109375 9.6162109375  C 15.2522786458333 9.73014322916667  15.1627604166667 9.86197916666667  15.09765625 10.01171875  C 15.0325520833333 10.1614583333333  15 10.32421875  15 10.5  L 16.25 10.5  Z M 1.25 9.25  L 1.25 10.5  L 2.5 10.5  C 2.5 10.32421875  2.46744791666667 10.1614583333333  2.40234375 10.01171875  C 2.33723958333333 9.86197916666667  2.24772135416667 9.73014322916667  2.1337890625 9.6162109375  C 2.01985677083333 9.50227864583334  1.88802083333333 9.41276041666667  1.73828125 9.34765625  C 1.58854166666667 9.28255208333334  1.42578125 9.25  1.25 9.25  Z M 18.75 13  L 18.75 3  L 17.5 3  L 17.5 11.75  L 2.5 11.75  L 2.5 13  L 18.75 13  Z M 4.814453125 6.564453125  C 4.69075520833333 6.68815104166667  4.54427083333333 6.75  4.375 6.75  C 4.20572916666667 6.75  4.05924479166667 6.68815104166667  3.935546875 6.564453125  C 3.81184895833333 6.44075520833334  3.75 6.29427083333334  3.75 6.125  C 3.75 5.95572916666667  3.81184895833333 5.80924479166667  3.935546875 5.685546875  C 4.05924479166667 5.56184895833333  4.20572916666667 5.5  4.375 5.5  C 4.54427083333333 5.5  4.69075520833333 5.56184895833333  4.814453125 5.685546875  C 4.93815104166667 5.80924479166667  5 5.95572916666667  5 6.125  C 5 6.29427083333334  4.93815104166667 6.44075520833334  4.814453125 6.564453125  Z M 13.564453125 6.564453125  C 13.4407552083333 6.68815104166667  13.2942708333333 6.75  13.125 6.75  C 12.9557291666667 6.75  12.8092447916667 6.68815104166667  12.685546875 6.564453125  C 12.5618489583333 6.44075520833334  12.5 6.29427083333334  12.5 6.125  C 12.5 5.95572916666667  12.5618489583333 5.80924479166667  12.685546875 5.685546875  C 12.8092447916667 5.56184895833333  12.9557291666667 5.5  13.125 5.5  C 13.2942708333333 5.5  13.4407552083333 5.56184895833333  13.564453125 5.685546875  C 13.6881510416667 5.80924479166667  13.75 5.95572916666667  13.75 6.125  C 13.75 6.29427083333334  13.6881510416667 6.44075520833334  13.564453125 6.564453125  Z M 9.7216796875 9.0546875  C 9.4189453125 9.18489583333334  9.09505208333333 9.25  8.75 9.25  C 8.40494791666667 9.25  8.0810546875 9.18489583333334  7.7783203125 9.0546875  C 7.4755859375 8.92447916666667  7.21028645833333 8.74544270833334  6.982421875 8.517578125  C 6.75455729166667 8.28971354166667  6.57552083333333 8.0244140625  6.4453125 7.7216796875  C 6.31510416666667 7.4189453125  6.25 7.09505208333333  6.25 6.75  L 6.25 5.5  C 6.25 5.15494791666667  6.31510416666667 4.8310546875  6.4453125 4.5283203125  C 6.57552083333333 4.2255859375  6.75455729166667 3.96028645833333  6.982421875 3.732421875  C 7.21028645833333 3.50455729166667  7.4755859375 3.32552083333333  7.7783203125 3.1953125  C 8.0810546875 3.06510416666667  8.40494791666667 3  8.75 3  C 9.09505208333333 3  9.4189453125 3.06510416666667  9.7216796875 3.1953125  C 10.0244140625 3.32552083333333  10.2897135416667 3.50455729166667  10.517578125 3.732421875  C 10.7454427083333 3.96028645833333  10.9244791666667 4.2255859375  11.0546875 4.5283203125  C 11.1848958333333 4.8310546875  11.25 5.15494791666667  11.25 5.5  L 11.25 6.75  C 11.25 7.09505208333333  11.1848958333333 7.4189453125  11.0546875 7.7216796875  C 10.9244791666667 8.0244140625  10.7454427083333 8.28971354166667  10.517578125 8.517578125  C 10.2897135416667 8.74544270833334  10.0244140625 8.92447916666667  9.7216796875 9.0546875  Z M 7.5 5.5  L 7.5 6.75  C 7.5 6.92578125  7.53255208333333 7.08854166666667  7.59765625 7.23828125  C 7.66276041666667 7.38802083333334  7.75227864583333 7.51985677083334  7.8662109375 7.6337890625  C 7.98014322916667 7.74772135416667  8.11197916666667 7.83723958333333  8.26171875 7.90234375  C 8.41145833333333 7.96744791666667  8.57421875 8  8.75 8  C 8.92578125 8  9.08854166666667 7.96744791666667  9.23828125 7.90234375  C 9.38802083333334 7.83723958333333  9.51985677083334 7.74772135416667  9.6337890625 7.6337890625  C 9.74772135416667 7.51985677083334  9.83723958333333 7.38802083333334  9.90234375 7.23828125  C 9.96744791666667 7.08854166666667  10 6.92578125  10 6.75  L 10 5.5  C 10 5.32421875  9.96744791666667 5.16145833333333  9.90234375 5.01171875  C 9.83723958333333 4.86197916666667  9.74772135416667 4.73014322916667  9.6337890625 4.6162109375  C 9.51985677083334 4.50227864583333  9.38802083333334 4.41276041666667  9.23828125 4.34765625  C 9.08854166666667 4.28255208333333  8.92578125 4.25  8.75 4.25  C 8.57421875 4.25  8.41145833333333 4.28255208333333  8.26171875 4.34765625  C 8.11197916666667 4.41276041666667  7.98014322916667 4.50227864583333  7.8662109375 4.6162109375  C 7.75227864583333 4.73014322916667  7.66276041666667 4.86197916666667  7.59765625 5.01171875  C 7.53255208333333 5.16145833333333  7.5 5.32421875  7.5 5.5  Z " fill-rule="nonzero" fill="#333333" stroke="none" transform="matrix(1 0 0 1 141 236 )" />
  </g>
</svg>