<?xml version="1.0" encoding="utf-8"?>
<svg version="1.1" xmlns:xlink="http://www.w3.org/1999/xlink" width="50px" height="50px" xmlns="http://www.w3.org/2000/svg">
  <g transform="matrix(1 0 0 1 -162 -87 )">
    <path d="M 24.4384765625 26.07421875  C 22.6155598958333 25.3580729166667  20.7194010416667 25  18.75 25  C 17.3177083333333 25  15.9342447916667 25.1871744791667  14.599609375 25.5615234375  C 13.2649739583333 25.9358723958333  12.0198567708333 26.4607747395833  10.8642578125 27.13623046875  C 9.70865885416667 27.8116861979167  8.65478515625 28.62548828125  7.70263671875 29.57763671875  C 6.75048828125 30.52978515625  5.93668619791667 31.5836588541667  5.26123046875 32.7392578125  C 4.58577473958333 33.8948567708333  4.06087239583333 35.1399739583333  3.6865234375 36.474609375  C 3.31217447916667 37.8092447916667  3.125 39.1927083333333  3.125 40.625  L 0 40.625  C 0 38.720703125  0.288899739583333 36.8570963541667  0.86669921875 35.0341796875  C 1.44449869791667 33.2112630208333  2.26643880208333 31.5226236979167  3.33251953125 29.96826171875  C 4.39860026041667 28.4138997395833  5.67626953125 27.03857421875  7.16552734375 25.84228515625  C 8.65478515625 24.64599609375  10.302734375 23.73046875  12.109375 23.095703125  C 11.1979166666667 22.509765625  10.3800455729167 21.8343098958333  9.65576171875 21.0693359375  C 8.93147786458333 20.3043619791667  8.31705729166667 19.4661458333333  7.8125 18.5546875  C 7.30794270833333 17.6432291666667  6.92138671875 16.6788736979167  6.65283203125 15.66162109375  C 6.38427734375 14.6443684895833  6.25 13.5904947916667  6.25 12.5  C 6.25 10.7747395833333  6.57552083333333 9.15120442708333  7.2265625 7.62939453125  C 7.87760416666667 6.10758463541667  8.76871744791667 4.78108723958333  9.89990234375 3.64990234375  C 11.0310872395833 2.51871744791667  12.3575846354167 1.62760416666667  13.87939453125 0.9765625  C 15.4012044270833 0.325520833333333  17.0247395833333 0  18.75 0  C 20.4752604166667 0  22.0987955729167 0.325520833333333  23.62060546875 0.9765625  C 25.1424153645833 1.62760416666667  26.4689127604167 2.51871744791667  27.60009765625 3.64990234375  C 28.7312825520833 4.78108723958333  29.6223958333333 6.10758463541667  30.2734375 7.62939453125  C 30.9244791666667 9.15120442708333  31.25 10.7747395833333  31.25 12.5  C 31.25 13.5904947916667  31.11572265625 14.6443684895833  30.84716796875 15.66162109375  C 30.57861328125 16.6788736979167  30.1920572916667 17.6432291666667  29.6875 18.5546875  C 29.1829427083333 19.4661458333333  28.5685221354167 20.3043619791667  27.84423828125 21.0693359375  C 27.1199544270833 21.8343098958333  26.3020833333333 22.509765625  25.390625 23.095703125  C 26.513671875 23.5188802083333  27.587890625 24.0437825520833  28.61328125 24.67041015625  C 29.638671875 25.2970377604167  30.5908203125 26.0172526041667  31.4697265625 26.8310546875  L 29.345703125 29.150390625  C 27.8971354166667 27.8157552083333  26.2613932291667 26.7903645833333  24.4384765625 26.07421875  Z M 10.107421875 8.8623046875  C 9.619140625 10.0016276041667  9.375 11.2141927083333  9.375 12.5  C 9.375 13.8020833333333  9.619140625 15.0187174479167  10.107421875 16.14990234375  C 10.595703125 17.2810872395833  11.26708984375 18.27392578125  12.12158203125 19.12841796875  C 12.97607421875 19.98291015625  13.9689127604167 20.654296875  15.10009765625 21.142578125  C 16.2312825520833 21.630859375  17.4479166666667 21.875  18.75 21.875  C 20.0358072916667 21.875  21.2483723958333 21.630859375  22.3876953125 21.142578125  C 23.5270182291667 20.654296875  24.52392578125 19.98291015625  25.37841796875 19.12841796875  C 26.23291015625 18.27392578125  26.904296875 17.2810872395833  27.392578125 16.14990234375  C 27.880859375 15.0187174479167  28.125 13.8020833333333  28.125 12.5  C 28.125 11.2141927083333  27.880859375 10.0016276041667  27.392578125 8.8623046875  C 26.904296875 7.72298177083333  26.23291015625 6.72607421875  25.37841796875 5.87158203125  C 24.52392578125 5.01708984375  23.5270182291667 4.345703125  22.3876953125 3.857421875  C 21.2483723958333 3.369140625  20.0358072916667 3.125  18.75 3.125  C 17.4479166666667 3.125  16.2312825520833 3.369140625  15.10009765625 3.857421875  C 13.9689127604167 4.345703125  12.97607421875 5.01708984375  12.12158203125 5.87158203125  C 11.26708984375 6.72607421875  10.595703125 7.72298177083333  10.107421875 8.8623046875  Z M 49.755859375 36.328125  L 46.728515625 37.5732421875  C 46.826171875 38.0615234375  46.875 38.5579427083333  46.875 39.0625  C 46.875 39.5670572916667  46.826171875 40.0634765625  46.728515625 40.5517578125  L 49.755859375 41.796875  L 48.5595703125 44.7021484375  L 45.5322265625 43.4326171875  C 44.9625651041667 44.2626953125  44.2626953125 44.9625651041667  43.4326171875 45.5322265625  L 44.7021484375 48.5595703125  L 41.796875 49.755859375  L 40.5517578125 46.728515625  C 40.0634765625 46.826171875  39.5670572916667 46.875  39.0625 46.875  C 38.5579427083333 46.875  38.0615234375 46.826171875  37.5732421875 46.728515625  L 36.328125 49.755859375  L 33.4228515625 48.5595703125  L 34.6923828125 45.5322265625  C 33.8623046875 44.9625651041667  33.1624348958333 44.2626953125  32.5927734375 43.4326171875  L 29.5654296875 44.7021484375  L 28.369140625 41.796875  L 31.396484375 40.5517578125  C 31.298828125 40.0634765625  31.25 39.5670572916667  31.25 39.0625  C 31.25 38.5579427083333  31.298828125 38.0615234375  31.396484375 37.5732421875  L 28.369140625 36.328125  L 29.5654296875 33.4228515625  L 32.5927734375 34.6923828125  C 33.1624348958333 33.8623046875  33.8623046875 33.1624348958333  34.6923828125 32.5927734375  L 33.4228515625 29.5654296875  L 36.328125 28.369140625  L 37.5732421875 31.396484375  C 38.0615234375 31.298828125  38.5579427083333 31.25  39.0625 31.25  C 39.5670572916667 31.25  40.0634765625 31.298828125  40.5517578125 31.396484375  L 41.796875 28.369140625  L 44.7021484375 29.5654296875  L 43.4326171875 32.5927734375  C 44.2626953125 33.1624348958333  44.9625651041667 33.8623046875  45.5322265625 34.6923828125  L 48.5595703125 33.4228515625  L 49.755859375 36.328125  Z M 37.2314453125 43.3837890625  C 37.8011067708333 43.6279296875  38.4114583333333 43.75  39.0625 43.75  C 39.7135416666667 43.75  40.3238932291667 43.6279296875  40.8935546875 43.3837890625  C 41.4632161458333 43.1396484375  41.9596354166667 42.8059895833333  42.3828125 42.3828125  C 42.8059895833333 41.9596354166667  43.1396484375 41.4632161458333  43.3837890625 40.8935546875  C 43.6279296875 40.3238932291667  43.75 39.7135416666667  43.75 39.0625  C 43.75 38.4114583333333  43.6279296875 37.8011067708333  43.3837890625 37.2314453125  C 43.1396484375 36.6617838541667  42.8059895833333 36.1653645833333  42.3828125 35.7421875  C 41.9596354166667 35.3190104166667  41.4632161458333 34.9853515625  40.8935546875 34.7412109375  C 40.3238932291667 34.4970703125  39.7135416666667 34.375  39.0625 34.375  C 38.4114583333333 34.375  37.8011067708333 34.4970703125  37.2314453125 34.7412109375  C 36.6617838541667 34.9853515625  36.1653645833333 35.3190104166667  35.7421875 35.7421875  C 35.3190104166667 36.1653645833333  34.9853515625 36.6617838541667  34.7412109375 37.2314453125  C 34.4970703125 37.8011067708333  34.375 38.4114583333333  34.375 39.0625  C 34.375 39.7135416666667  34.4970703125 40.3238932291667  34.7412109375 40.8935546875  C 34.9853515625 41.4632161458333  35.3190104166667 41.9596354166667  35.7421875 42.3828125  C 36.1653645833333 42.8059895833333  36.6617838541667 43.1396484375  37.2314453125 43.3837890625  Z " fill-rule="nonzero" fill="#333333" stroke="none" transform="matrix(1 0 0 1 162 87 )" />
  </g>
</svg>