<?xml version="1.0" encoding="utf-8"?>
<svg version="1.1" xmlns:xlink="http://www.w3.org/1999/xlink" width="16px" height="20px" xmlns="http://www.w3.org/2000/svg">
  <g transform="matrix(1 0 0 1 -536 -137 )">
    <path d="M 0.5 20  L 0.5 0  L 15.5 0  L 15.5 20  L 0.5 20  Z M 2 18.75  L 14 18.75  L 14 1.25  L 2 1.25  L 2 18.75  Z M 5.5 3.75  L 13 3.75  L 13 5  L 5.5 5  L 5.5 3.75  Z M 5.5 7.5  L 11.75 7.5  L 11.75 8.75  L 5.5 8.75  L 5.5 7.5  Z M 5.5 11.25  L 9.25 11.25  L 9.25 12.5  L 5.5 12.5  L 5.5 11.25  Z M 5.5 15  L 13 15  L 13 16.25  L 5.5 16.25  L 5.5 15  Z M 3 3.75  L 4.25 3.75  L 4.25 5  L 3 5  L 3 3.75  Z M 3 7.5  L 4.25 7.5  L 4.25 8.75  L 3 8.75  L 3 7.5  Z M 3 11.25  L 4.25 11.25  L 4.25 12.5  L 3 12.5  L 3 11.25  Z M 3 15  L 4.25 15  L 4.25 16.25  L 3 16.25  L 3 15  Z " fill-rule="nonzero" fill="#333333" stroke="none" transform="matrix(1 0 0 1 536 137 )" />
  </g>
</svg>