<?xml version="1.0" encoding="utf-8"?>
<svg version="1.1" xmlns:xlink="http://www.w3.org/1999/xlink" width="20px" height="18px" xmlns="http://www.w3.org/2000/svg">
  <g transform="matrix(1 0 0 1 -305 -233 )">
    <path d="M 13.2421875 0.435546875  C 13.6653645833333 0.311848958333333  14.1471354166667 0.25  14.6875 0.25  C 15.4231770833333 0.25  16.11328125 0.389973958333333  16.7578125 0.669921875  C 17.40234375 0.949869791666667  17.9654947916667 1.3291015625  18.447265625 1.8076171875  C 18.9290364583333 2.2861328125  19.3082682291667 2.84928385416667  19.5849609375 3.4970703125  C 19.8616536458333 4.14485677083333  20 4.83333333333333  20 5.5625  C 20 6.27213541666667  19.8649088541667 6.95247395833333  19.5947265625 7.603515625  C 19.3245442708333 8.25455729166667  18.9420572916667 8.82747395833334  18.447265625 9.322265625  L 10 17.759765625  L 1.552734375 9.322265625  C 1.05794270833333 8.82747395833334  0.675455729166667 8.25455729166667  0.4052734375 7.603515625  C 0.135091145833333 6.95247395833333  0 6.27213541666667  0 5.5625  C 0 4.83333333333333  0.138346354166667 4.14485677083333  0.4150390625 3.4970703125  C 0.691731770833333 2.84928385416667  1.07096354166667 2.2861328125  1.552734375 1.8076171875  C 2.03450520833333 1.3291015625  2.59765625 0.949869791666667  3.2421875 0.669921875  C 3.88671875 0.389973958333333  4.57682291666667 0.25  5.3125 0.25  C 5.85286458333333 0.25  6.33463541666667 0.311848958333333  6.7578125 0.435546875  C 7.18098958333333 0.559244791666667  7.5732421875 0.730143229166667  7.9345703125 0.9482421875  C 8.2958984375 1.16634114583333  8.64095052083333 1.42838541666667  8.9697265625 1.734375  C 9.29850260416667 2.04036458333333  9.64192708333334 2.37565104166667  10 2.740234375  C 10.3580729166667 2.37565104166667  10.7014973958333 2.04036458333333  11.0302734375 1.734375  C 11.3590494791667 1.42838541666667  11.7041015625 1.16634114583333  12.0654296875 0.9482421875  C 12.4267578125 0.730143229166667  12.8190104166667 0.559244791666667  13.2421875 0.435546875  Z M 10 15.9921875  L 17.55859375 8.43359375  C 17.9427083333333 8.04947916666667  18.2356770833333 7.61002604166667  18.4375 7.115234375  C 18.6393229166667 6.62044270833333  18.740234375 6.10286458333333  18.740234375 5.5625  C 18.740234375 4.99609375  18.6360677083333 4.46712239583333  18.427734375 3.9755859375  C 18.2194010416667 3.48404947916667  17.9313151041667 3.0576171875  17.5634765625 2.6962890625  C 17.1956380208333 2.3349609375  16.7659505208333 2.0517578125  16.2744140625 1.8466796875  C 15.7828776041667 1.6416015625  15.25390625 1.5390625  14.6875 1.5390625  C 14.140625 1.5390625  13.6555989583333 1.62532552083333  13.232421875 1.7978515625  C 12.8092447916667 1.97037760416667  12.4186197916667 2.19661458333333  12.060546875 2.4765625  C 11.7024739583333 2.75651041666667  11.3590494791667 3.07389322916667  11.0302734375 3.4287109375  C 10.7014973958333 3.78352864583333  10.3580729166667 4.14322916666667  10 4.5078125  C 9.6484375 4.15625  9.306640625 3.80143229166667  8.974609375 3.443359375  C 8.642578125 3.08528645833333  8.2958984375 2.76302083333333  7.9345703125 2.4765625  C 7.5732421875 2.19010416666667  7.17936197916667 1.95572916666667  6.7529296875 1.7734375  C 6.32649739583333 1.59114583333333  5.84635416666667 1.5  5.3125 1.5  C 4.75260416666667 1.5  4.22526041666667 1.60579427083333  3.73046875 1.8173828125  C 3.23567708333333 2.02897135416667  2.80436197916667 2.31868489583333  2.4365234375 2.6865234375  C 2.06868489583333 3.05436197916667  1.77897135416667 3.48567708333333  1.5673828125 3.98046875  C 1.35579427083333 4.47526041666667  1.25 5.00260416666667  1.25 5.5625  C 1.25 6.10286458333333  1.3525390625 6.62044270833333  1.5576171875 7.115234375  C 1.7626953125 7.61002604166667  2.05729166666667 8.04947916666667  2.44140625 8.43359375  L 10 15.9921875  Z " fill-rule="nonzero" fill="#333333" stroke="none" transform="matrix(1 0 0 1 305 233 )" />
  </g>
</svg>