<?xml version="1.0" encoding="utf-8"?>
<svg version="1.1" xmlns:xlink="http://www.w3.org/1999/xlink" width="17px" height="19px" xmlns="http://www.w3.org/2000/svg">
  <g transform="matrix(1 0 0 1 -119 -181 )">
    <path d="M 0.25 4.234375  L 8.375 0.171875  L 16.5 4.234375  L 16.5 14.390625  L 8.375 18.443359375  L 0.25 14.390625  L 0.25 4.234375  Z M 12.0859375 5.81640625  L 14.478515625 4.625  L 8.375 1.578125  L 6.021484375 2.75  L 12.0859375 5.81640625  Z M 2.271484375 4.625  L 8.375 7.671875  L 10.69921875 6.51953125  L 4.625 3.453125  L 2.271484375 4.625  Z M 7.75 8.765625  L 1.5 5.640625  L 1.5 13.609375  L 7.75 16.734375  L 7.75 8.765625  Z M 9 8.765625  L 9 16.734375  L 15.25 13.609375  L 15.25 5.640625  L 9 8.765625  Z " fill-rule="nonzero" fill="#000000" stroke="none" transform="matrix(1 0 0 1 119 181 )" />
  </g>
</svg>