<?xml version="1.0" encoding="utf-8"?>
<svg version="1.1" xmlns:xlink="http://www.w3.org/1999/xlink" width="13px" height="13px" xmlns="http://www.w3.org/2000/svg">
  <g transform="matrix(1 0 0 1 -16 -887 )">
    <path d="M 8.12165912828947 12.6017680921053  C 7.57598341557018 12.7532209429825  7.00692160087719 12.8289473684211  6.41447368421053 12.8289473684211  C 5.82202576754386 12.8289473684211  5.25296395285088 12.7532209429825  4.70728824013158 12.6017680921053  C 4.16161252741228 12.4503152412281  3.65045915570176 12.2353858278509  3.173828125 11.9569798519737  C 2.69719709429825 11.6785738760965  2.26399739583333 11.3444867050439  1.87422902960526 10.9547183388158  C 1.48446066337719 10.5649499725877  1.15037349232456 10.1317502741228  0.871967516447368 9.65511924342105  C 0.593561540570176 9.1784882127193  0.378632127192983 8.66733484100877  0.227179276315789 8.12165912828947  C 0.0757264254385965 7.57598341557018  0 7.00692160087719  0 6.41447368421053  C 0 5.82202576754386  0.0757264254385965 5.25296395285088  0.227179276315789 4.70728824013158  C 0.378632127192983 4.16161252741228  0.593561540570176 3.65045915570176  0.871967516447368 3.173828125  C 1.15037349232456 2.69719709429825  1.48446066337719 2.26399739583333  1.87422902960526 1.87422902960526  C 2.26399739583333 1.48446066337719  2.69719709429825 1.15037349232456  3.173828125 0.871967516447368  C 3.65045915570176 0.593561540570176  4.16161252741228 0.378632127192983  4.70728824013158 0.227179276315789  C 5.25296395285088 0.0757264254385965  5.82202576754386 0  6.41447368421053 0  C 7.00692160087719 0  7.57598341557018 0.0757264254385965  8.12165912828947 0.227179276315789  C 8.66733484100877 0.378632127192983  9.1784882127193 0.593561540570176  9.65511924342105 0.871967516447368  C 10.1317502741228 1.15037349232456  10.5649499725877 1.48446066337719  10.9547183388158 1.87422902960526  C 11.3444867050439 2.26399739583333  11.6785738760965 2.69719709429825  11.9569798519737 3.173828125  C 12.2353858278509 3.65045915570176  12.4503152412281 4.16161252741228  12.6017680921053 4.70728824013158  C 12.7532209429825 5.25296395285088  12.8289473684211 5.82202576754386  12.8289473684211 6.41447368421053  C 12.8289473684211 7.00692160087719  12.7532209429825 7.57598341557018  12.6017680921053 8.12165912828947  C 12.4503152412281 8.66733484100877  12.2353858278509 9.1784882127193  11.9569798519737 9.65511924342105  C 11.6785738760965 10.1317502741228  11.3444867050439 10.5649499725877  10.9547183388158 10.9547183388158  C 10.5649499725877 11.3444867050439  10.1317502741228 11.6785738760965  9.65511924342105 11.9569798519737  C 9.1784882127193 12.2353858278509  8.66733484100877 12.4503152412281  8.12165912828947 12.6017680921053  Z M 7.88779810855263 1.05571546052632  C 7.41339432565789 0.922080592105263  6.92228618421053 0.855263157894737  6.41447368421053 0.855263157894737  C 5.90220668859649 0.855263157894737  5.40998492324561 0.922080592105263  4.93780838815789 1.05571546052632  C 4.46563185307018 1.18935032894737  4.02352316337719 1.37643914473684  3.61148231907895 1.61698190789474  C 3.1994414747807 1.85752467105263  2.82415021929825 2.14706688596491  2.48560855263158 2.48560855263158  C 2.14706688596491 2.82415021929825  1.85752467105263 3.1994414747807  1.61698190789474 3.61148231907895  C 1.37643914473684 4.02352316337719  1.18935032894737 4.46674547697369  1.05571546052632 4.94114925986842  C 0.922080592105263 5.41555304276316  0.855263157894737 5.90666118421053  0.855263157894737 6.41447368421053  C 0.855263157894737 6.92228618421053  0.922080592105263 7.41339432565789  1.05571546052632 7.88779810855263  C 1.18935032894737 8.36220189144737  1.37643914473684 8.80542420504386  1.61698190789474 9.21746504934211  C 1.85752467105263 9.62950589364035  2.14706688596491 10.0047971491228  2.48560855263158 10.3433388157895  C 2.82415021929825 10.6818804824561  3.1994414747807 10.9714226973684  3.61148231907895 11.2119654605263  C 4.02352316337719 11.4525082236842  4.46563185307018 11.6395970394737  4.93780838815789 11.7732319078947  C 5.40998492324561 11.9068667763158  5.90220668859649 11.9736842105263  6.41447368421053 11.9736842105263  C 6.92228618421053 11.9736842105263  7.41339432565789 11.9068667763158  7.88779810855263 11.7732319078947  C 8.36220189144737 11.6395970394737  8.80542420504386 11.4525082236842  9.21746504934211 11.2119654605263  C 9.62950589364035 10.9714226973684  10.0047971491228 10.6818804824561  10.3433388157895 10.3433388157895  C 10.6818804824561 10.0047971491228  10.9714226973684 9.62950589364035  11.2119654605263 9.21746504934211  C 11.4525082236842 8.80542420504386  11.6395970394737 8.36331551535088  11.7732319078947 7.89113898026316  C 11.9068667763158 7.41896244517544  11.9736842105263 6.92674067982456  11.9736842105263 6.41447368421053  C 11.9736842105263 5.90666118421053  11.9068667763158 5.41555304276316  11.7732319078947 4.94114925986842  C 11.6395970394737 4.46674547697369  11.4525082236842 4.02352316337719  11.2119654605263 3.61148231907895  C 10.9714226973684 3.1994414747807  10.6818804824561 2.82415021929825  10.3433388157895 2.48560855263158  C 10.0047971491228 2.14706688596491  9.62950589364035 1.85752467105263  9.21746504934211 1.61698190789474  C 8.80542420504386 1.37643914473684  8.36220189144737 1.18935032894737  7.88779810855263 1.05571546052632  Z M 5.98684210526316 9.40789473684211  L 5.98684210526316 5.13157894736842  L 6.84210526315789 5.13157894736842  L 6.84210526315789 9.40789473684211  L 5.98684210526316 9.40789473684211  Z M 5.98684210526316 4.27631578947369  L 5.98684210526316 3.42105263157895  L 6.84210526315789 3.42105263157895  L 6.84210526315789 4.27631578947369  L 5.98684210526316 4.27631578947369  Z " fill-rule="nonzero" fill="#000000" stroke="none" transform="matrix(1 0 0 1 16 887 )" />
  </g>
</svg>