<?xml version="1.0" encoding="utf-8"?>
<svg version="1.1" xmlns:xlink="http://www.w3.org/1999/xlink" width="17px" height="15px" xmlns="http://www.w3.org/2000/svg">
  <g transform="matrix(1 0 0 1 -16 -3209 )">
    <path d="M 15.9375 8.54166666666667  L 17 8.54166666666667  L 17 14.7916666666667  L 15.9375 14.7916666666667  L 15.9375 13.75  L 1.0625 13.75  L 1.0625 14.7916666666667  L 0 14.7916666666667  L 0 8.54166666666667  L 1.0625 8.54166666666667  L 1.0625 9.46126302083333  L 3.1875 5.29459635416667  L 3.1875 0.208333333333333  L 4.25 0.208333333333333  L 4.25 1.25  L 12.75 1.25  L 12.75 0.208333333333333  L 13.8125 0.208333333333333  L 13.8125 3.33333333333333  C 13.9619140625 3.33333333333333  14.1002604166667 3.36046006944445  14.2275390625 3.41471354166667  C 14.3548177083333 3.46896701388889  14.4668782552083 3.54356553819445  14.563720703125 3.63850911458333  C 14.6605631510417 3.73345269097222  14.7366536458333 3.84331597222222  14.7919921875 3.96809895833333  C 14.8473307291667 4.09288194444444  14.875 4.228515625  14.875 4.375  L 14.875 6.45833333333333  C 14.875 6.669921875  14.81689453125 6.85980902777778  14.70068359375 7.02799479166667  L 15.9375 9.46126302083333  L 15.9375 8.54166666666667  Z M 13.8125 4.375  L 9.5625 4.375  L 9.5625 6.45833333333333  L 13.8125 6.45833333333333  L 13.8125 4.375  Z M 12.75 2.29166666666667  L 4.25 2.29166666666667  L 4.25 5.41666666666667  L 8.5 5.41666666666667  L 8.5 4.375  C 8.5 4.228515625  8.52766927083333 4.09288194444444  8.5830078125 3.96809895833333  C 8.63834635416667 3.84331597222222  8.71443684895833 3.73345269097222  8.811279296875 3.63850911458333  C 8.90812174479167 3.54356553819445  9.02018229166667 3.46896701388889  9.1474609375 3.41471354166667  C 9.27473958333333 3.36046006944445  9.4130859375 3.33333333333333  9.5625 3.33333333333333  L 12.75 3.33333333333333  L 12.75 2.29166666666667  Z M 3.77685546875 6.45833333333333  L 2.19140625 9.58333333333333  L 14.80859375 9.58333333333333  L 13.74609375 7.5  L 9.5625 7.5  C 9.4130859375 7.5  9.27473958333333 7.47287326388889  9.1474609375 7.41861979166667  C 9.02018229166667 7.36436631944444  8.90812174479167 7.28976779513889  8.811279296875 7.19482421875  C 8.71443684895833 7.09988064236111  8.63834635416667 6.99001736111111  8.5830078125 6.865234375  C 8.52766927083333 6.74045138888889  8.5 6.60481770833333  8.5 6.45833333333333  L 3.77685546875 6.45833333333333  Z M 1.0625 12.7083333333333  L 15.9375 12.7083333333333  L 15.9375 10.625  L 1.0625 10.625  L 1.0625 12.7083333333333  Z " fill-rule="nonzero" fill="#999999" stroke="none" transform="matrix(1 0 0 1 16 3209 )" />
  </g>
</svg>