<?xml version="1.0" encoding="utf-8"?>
<svg version="1.1" xmlns:xlink="http://www.w3.org/1999/xlink" width="15px" height="15px" xmlns="http://www.w3.org/2000/svg">
  <g transform="matrix(1 0 0 1 -17 -500 )">
    <path d="M 14.20166015625 9.98291015625  L 14.86083984375 10.64208984375  L 10.78125 14.72900390625  L 8.81103515625 12.75146484375  L 9.47021484375 12.09228515625  L 10.78125 13.39599609375  L 14.20166015625 9.98291015625  Z M 6.251220703125 9.71923828125  C 6.043701171875 10.11474609375  5.7568359375 10.4443359375  5.390625 10.7080078125  C 5.712890625 10.869140625  6.00341796875 11.06689453125  6.26220703125 11.30126953125  C 6.52099609375 11.53564453125  6.741943359375 11.796875  6.925048828125 12.0849609375  C 7.108154296875 12.373046875  7.249755859375 12.685546875  7.349853515625 13.0224609375  C 7.449951171875 13.359375  7.5 13.7060546875  7.5 14.0625  L 6.5625 14.0625  C 6.5625 13.6767578125  6.4892578125 13.31298828125  6.3427734375 12.97119140625  C 6.1962890625 12.62939453125  5.994873046875 12.330322265625  5.738525390625 12.073974609375  C 5.482177734375 11.817626953125  5.18310546875 11.6162109375  4.84130859375 11.4697265625  C 4.49951171875 11.3232421875  4.1357421875 11.25  3.75 11.25  C 3.359375 11.25  2.994384765625 11.3232421875  2.655029296875 11.4697265625  C 2.315673828125 11.6162109375  2.017822265625 11.817626953125  1.761474609375 12.073974609375  C 1.505126953125 12.330322265625  1.3037109375 12.62939453125  1.1572265625 12.97119140625  C 1.0107421875 13.31298828125  0.9375 13.6767578125  0.9375 14.0625  L 0 14.0625  C 0 13.7060546875  0.050048828125 13.359375  0.150146484375 13.0224609375  C 0.250244140625 12.685546875  0.391845703125 12.373046875  0.574951171875 12.0849609375  C 0.758056640625 11.796875  0.97900390625 11.53564453125  1.23779296875 11.30126953125  C 1.49658203125 11.06689453125  1.787109375 10.869140625  2.109375 10.7080078125  C 1.7431640625 10.4443359375  1.456298828125 10.11474609375  1.248779296875 9.71923828125  C 1.041259765625 9.32373046875  0.9375 8.896484375  0.9375 8.4375  C 0.9375 8.0517578125  1.0107421875 7.68798828125  1.1572265625 7.34619140625  C 1.3037109375 7.00439453125  1.505126953125 6.705322265625  1.761474609375 6.448974609375  C 2.017822265625 6.192626953125  2.315673828125 5.9912109375  2.655029296875 5.8447265625  C 2.994384765625 5.6982421875  3.359375 5.625  3.75 5.625  C 4.208984375 5.625  4.63623046875 5.728759765625  5.03173828125 5.936279296875  C 5.42724609375 6.143798828125  5.7568359375 6.4306640625  6.0205078125 6.796875  C 6.2060546875 6.42578125  6.4453125 6.09375  6.73828125 5.80078125  C 7.03125 5.5078125  7.36328125 5.2685546875  7.734375 5.0830078125  C 7.3681640625 4.8193359375  7.081298828125 4.48974609375  6.873779296875 4.09423828125  C 6.666259765625 3.69873046875  6.5625 3.271484375  6.5625 2.8125  C 6.5625 2.4267578125  6.6357421875 2.06298828125  6.7822265625 1.72119140625  C 6.9287109375 1.37939453125  7.130126953125 1.080322265625  7.386474609375 0.823974609375  C 7.642822265625 0.567626953125  7.940673828125 0.3662109375  8.280029296875 0.2197265625  C 8.619384765625 0.0732421875  8.984375 0  9.375 0  C 9.7607421875 0  10.12451171875 0.0732421875  10.46630859375 0.2197265625  C 10.80810546875 0.3662109375  11.107177734375 0.567626953125  11.363525390625 0.823974609375  C 11.619873046875 1.080322265625  11.8212890625 1.37939453125  11.9677734375 1.72119140625  C 12.1142578125 2.06298828125  12.1875 2.4267578125  12.1875 2.8125  C 12.1875 3.271484375  12.083740234375 3.69873046875  11.876220703125 4.09423828125  C 11.668701171875 4.48974609375  11.3818359375 4.8193359375  11.015625 5.0830078125  C 11.337890625 5.244140625  11.62841796875 5.44189453125  11.88720703125 5.67626953125  C 12.14599609375 5.91064453125  12.366943359375 6.171875  12.550048828125 6.4599609375  C 12.733154296875 6.748046875  12.874755859375 7.060546875  12.974853515625 7.3974609375  C 13.074951171875 7.734375  13.125 8.0810546875  13.125 8.4375  L 12.1875 8.4375  C 12.1875 8.0517578125  12.1142578125 7.68798828125  11.9677734375 7.34619140625  C 11.8212890625 7.00439453125  11.619873046875 6.705322265625  11.363525390625 6.448974609375  C 11.107177734375 6.192626953125  10.80810546875 5.9912109375  10.46630859375 5.8447265625  C 10.12451171875 5.6982421875  9.7607421875 5.625  9.375 5.625  C 8.984375 5.625  8.619384765625 5.6982421875  8.280029296875 5.8447265625  C 7.940673828125 5.9912109375  7.642822265625 6.192626953125  7.386474609375 6.448974609375  C 7.130126953125 6.705322265625  6.9287109375 7.00439453125  6.7822265625 7.34619140625  C 6.6357421875 7.68798828125  6.5625 8.0517578125  6.5625 8.4375  C 6.5625 8.896484375  6.458740234375 9.32373046875  6.251220703125 9.71923828125  Z M 7.646484375 2.083740234375  C 7.548828125 2.310791015625  7.5 2.5537109375  7.5 2.8125  C 7.5 3.0712890625  7.548828125 3.314208984375  7.646484375 3.541259765625  C 7.744140625 3.768310546875  7.87841796875 3.96728515625  8.04931640625 4.13818359375  C 8.22021484375 4.30908203125  8.419189453125 4.443359375  8.646240234375 4.541015625  C 8.873291015625 4.638671875  9.1162109375 4.6875  9.375 4.6875  C 9.6337890625 4.6875  9.876708984375 4.638671875  10.103759765625 4.541015625  C 10.330810546875 4.443359375  10.52978515625 4.30908203125  10.70068359375 4.13818359375  C 10.87158203125 3.96728515625  11.005859375 3.768310546875  11.103515625 3.541259765625  C 11.201171875 3.314208984375  11.25 3.0712890625  11.25 2.8125  C 11.25 2.5537109375  11.201171875 2.310791015625  11.103515625 2.083740234375  C 11.005859375 1.856689453125  10.87158203125 1.65771484375  10.70068359375 1.48681640625  C 10.52978515625 1.31591796875  10.330810546875 1.181640625  10.103759765625 1.083984375  C 9.876708984375 0.986328125  9.6337890625 0.9375  9.375 0.9375  C 9.1162109375 0.9375  8.873291015625 0.986328125  8.646240234375 1.083984375  C 8.419189453125 1.181640625  8.22021484375 1.31591796875  8.04931640625 1.48681640625  C 7.87841796875 1.65771484375  7.744140625 1.856689453125  7.646484375 2.083740234375  Z M 2.021484375 7.708740234375  C 1.923828125 7.935791015625  1.875 8.1787109375  1.875 8.4375  C 1.875 8.6962890625  1.923828125 8.939208984375  2.021484375 9.166259765625  C 2.119140625 9.393310546875  2.25341796875 9.59228515625  2.42431640625 9.76318359375  C 2.59521484375 9.93408203125  2.794189453125 10.068359375  3.021240234375 10.166015625  C 3.248291015625 10.263671875  3.4912109375 10.3125  3.75 10.3125  C 4.0087890625 10.3125  4.251708984375 10.263671875  4.478759765625 10.166015625  C 4.705810546875 10.068359375  4.90478515625 9.93408203125  5.07568359375 9.76318359375  C 5.24658203125 9.59228515625  5.380859375 9.393310546875  5.478515625 9.166259765625  C 5.576171875 8.939208984375  5.625 8.6962890625  5.625 8.4375  C 5.625 8.1787109375  5.576171875 7.935791015625  5.478515625 7.708740234375  C 5.380859375 7.481689453125  5.24658203125 7.28271484375  5.07568359375 7.11181640625  C 4.90478515625 6.94091796875  4.705810546875 6.806640625  4.478759765625 6.708984375  C 4.251708984375 6.611328125  4.0087890625 6.5625  3.75 6.5625  C 3.4912109375 6.5625  3.248291015625 6.611328125  3.021240234375 6.708984375  C 2.794189453125 6.806640625  2.59521484375 6.94091796875  2.42431640625 7.11181640625  C 2.25341796875 7.28271484375  2.119140625 7.481689453125  2.021484375 7.708740234375  Z " fill-rule="nonzero" fill="#333333" stroke="none" transform="matrix(1 0 0 1 17 500 )" />
  </g>
</svg>