<?xml version="1.0" encoding="utf-8"?>
<svg version="1.1" xmlns:xlink="http://www.w3.org/1999/xlink" width="15px" height="15px" xmlns="http://www.w3.org/2000/svg">
  <g transform="matrix(1 0 0 1 -16 -2411 )">
    <path d="M 5.56315104166667 0.46875  C 6.181640625 0.295138888888889  6.82725694444445 0.208333333333333  7.5 0.208333333333333  C 8.16731770833333 0.208333333333333  8.81157769097222 0.295138888888889  9.43277994791667 0.46875  C 10.0539822048611 0.642361111111111  10.6344943576389 0.887858072916667  11.17431640625 1.20524088541667  C 11.7141384548611 1.52262369791667  12.2064887152778 1.90375434027778  12.6513671875 2.3486328125  C 13.0962456597222 2.79351128472222  13.4773763020833 3.28586154513889  13.7947591145833 3.82568359375  C 14.1121419270833 4.36550564236111  14.3576388888889 4.94601779513889  14.53125 5.56722005208333  C 14.7048611111111 6.18842230902778  14.7916666666667 6.83268229166667  14.7916666666667 7.5  C 14.7916666666667 8.16731770833333  14.7048611111111 8.81157769097222  14.53125 9.43277994791667  C 14.3576388888889 10.0539822048611  14.1121419270833 10.6344943576389  13.7947591145833 11.17431640625  C 13.4773763020833 11.7141384548611  13.0962456597222 12.2064887152778  12.6513671875 12.6513671875  C 12.2064887152778 13.0962456597222  11.7141384548611 13.4773763020833  11.17431640625 13.7947591145833  C 10.6344943576389 14.1121419270833  10.0539822048611 14.3576388888889  9.43277994791667 14.53125  C 8.81157769097222 14.7048611111111  8.16731770833333 14.7916666666667  7.5 14.7916666666667  C 6.83268229166667 14.7916666666667  6.18842230902778 14.7048611111111  5.56722005208333 14.53125  C 4.94601779513889 14.3576388888889  4.36550564236111 14.1121419270833  3.82568359375 13.7947591145833  C 3.28586154513889 13.4773763020833  2.79351128472222 13.0962456597222  2.3486328125 12.6513671875  C 1.90375434027778 12.2064887152778  1.52262369791667 11.7141384548611  1.20524088541667 11.17431640625  C 0.887858072916667 10.6344943576389  0.642361111111111 10.0553385416667  0.46875 9.43684895833333  C 0.295138888888889 8.818359375  0.208333333333333 8.17274305555556  0.208333333333333 7.5  C 0.208333333333333 6.83268229166667  0.295138888888889 6.18842230902778  0.46875 5.56722005208333  C 0.642361111111111 4.94601779513889  0.887858072916667 4.36550564236111  1.20524088541667 3.82568359375  C 1.52262369791667 3.28586154513889  1.90375434027778 2.79351128472222  2.3486328125 2.3486328125  C 2.79351128472222 1.90375434027778  3.28586154513889 1.52262369791667  3.82568359375 1.20524088541667  C 4.36550564236111 0.887858072916667  4.94466145833333 0.642361111111111  5.56315104166667 0.46875  Z M 5.83984375 13.5262044270833  C 6.37152777777778 13.6754014756944  6.92491319444445 13.75  7.5 13.75  C 8.07508680555556 13.75  8.62847222222222 13.6754014756944  9.16015625 13.5262044270833  C 9.69184027777778 13.3770073784722  10.1896158854167 13.1667751736111  10.6534830729167 12.8955078125  C 11.1173502604167 12.6242404513889  11.5391710069444 12.2987196180556  11.9189453125 11.9189453125  C 12.2987196180556 11.5391710069444  12.6242404513889 11.1173502604167  12.8955078125 10.6534830729167  C 13.1667751736111 10.1896158854167  13.3770073784722 9.69184027777778  13.5262044270833 9.16015625  C 13.6754014756944 8.62847222222222  13.75 8.07508680555556  13.75 7.5  C 13.75 6.92491319444445  13.6754014756944 6.37152777777778  13.5262044270833 5.83984375  C 13.3770073784722 5.30815972222222  13.1667751736111 4.81038411458333  12.8955078125 4.34651692708333  C 12.6242404513889 3.88264973958333  12.2987196180556 3.46082899305556  11.9189453125 3.0810546875  C 11.5391710069444 2.70128038194445  11.1173502604167 2.37575954861111  10.6534830729167 2.1044921875  C 10.1896158854167 1.83322482638889  9.69184027777778 1.62299262152778  9.16015625 1.47379557291667  C 8.62847222222222 1.32459852430556  8.07508680555556 1.25  7.5 1.25  C 6.92491319444445 1.25  6.37152777777778 1.32459852430556  5.83984375 1.47379557291667  C 5.30815972222222 1.62299262152778  4.81038411458333 1.83322482638889  4.34651692708333 2.1044921875  C 3.88264973958333 2.37575954861111  3.46082899305556 2.70128038194445  3.0810546875 3.0810546875  C 2.70128038194445 3.46082899305556  2.37575954861111 3.88264973958333  2.1044921875 4.34651692708333  C 1.83322482638889 4.81038411458333  1.62299262152778 5.30815972222222  1.47379557291667 5.83984375  C 1.32459852430556 6.37152777777778  1.25 6.92491319444445  1.25 7.5  C 1.25 8.07508680555556  1.32459852430556 8.62847222222222  1.47379557291667 9.16015625  C 1.62299262152778 9.69184027777778  1.83322482638889 10.1896158854167  2.1044921875 10.6534830729167  C 2.37575954861111 11.1173502604167  2.70128038194445 11.5391710069444  3.0810546875 11.9189453125  C 3.46082899305556 12.2987196180556  3.88264973958333 12.6242404513889  4.34651692708333 12.8955078125  C 4.81038411458333 13.1667751736111  5.30815972222222 13.3770073784722  5.83984375 13.5262044270833  Z M 6.28743489583333 4.62320963541667  C 6.66720920138889 4.45773654513889  7.07139756944445 4.375  7.5 4.375  C 7.92860243055556 4.375  8.33279079861111 4.45773654513889  8.71256510416667 4.62320963541667  C 9.09233940972222 4.78868272569444  9.42328559027778 5.01247829861111  9.70540364583333 5.29459635416667  C 9.98752170138889 5.57671440972222  10.2113172743056 5.90766059027778  10.3767903645833 6.28743489583333  C 10.5422634548611 6.66720920138889  10.625 7.07139756944445  10.625 7.5  C 10.625 7.92860243055556  10.5422634548611 8.33279079861111  10.3767903645833 8.71256510416667  C 10.2113172743056 9.09233940972222  9.98752170138889 9.42328559027778  9.70540364583333 9.70540364583333  C 9.42328559027778 9.98752170138889  9.09233940972222 10.2113172743056  8.71256510416667 10.3767903645833  C 8.33279079861111 10.5422634548611  7.92860243055556 10.625  7.5 10.625  C 7.07139756944445 10.625  6.66720920138889 10.5422634548611  6.28743489583333 10.3767903645833  C 5.90766059027778 10.2113172743056  5.57671440972222 9.98752170138889  5.29459635416667 9.70540364583333  C 5.01247829861111 9.42328559027778  4.78868272569444 9.09233940972222  4.62320963541667 8.71256510416667  C 4.45773654513889 8.33279079861111  4.375 7.92860243055556  4.375 7.5  C 4.375 7.07139756944445  4.45773654513889 6.66720920138889  4.62320963541667 6.28743489583333  C 4.78868272569444 5.90766059027778  5.01247829861111 5.57671440972222  5.29459635416667 5.29459635416667  C 5.57671440972222 5.01247829861111  5.90766059027778 4.78868272569444  6.28743489583333 4.62320963541667  Z " fill-rule="nonzero" fill="#999999" stroke="none" transform="matrix(1 0 0 1 16 2411 )" />
  </g>
</svg>