<?xml version="1.0" encoding="utf-8"?>
<svg version="1.1" xmlns:xlink="http://www.w3.org/1999/xlink" width="15px" height="15px" xmlns="http://www.w3.org/2000/svg">
  <g transform="matrix(1 0 0 1 -16 -3269 )">
    <path d="M 9.23583984375 1.73583984375  C 9.14306640625 1.82861328125  9.033203125 1.875  8.90625 1.875  C 8.779296875 1.875  8.66943359375 1.82861328125  8.57666015625 1.73583984375  C 8.48388671875 1.64306640625  8.4375 1.533203125  8.4375 1.40625  C 8.4375 1.34765625  8.45703125 1.27197265625  8.49609375 1.17919921875  C 8.53515625 1.08642578125  8.580322265625 0.98876953125  8.631591796875 0.88623046875  C 8.682861328125 0.78369140625  8.734130859375 0.68603515625  8.785400390625 0.59326171875  C 8.836669921875 0.50048828125  8.876953125 0.42724609375  8.90625 0.37353515625  C 8.935546875 0.42724609375  8.975830078125 0.50048828125  9.027099609375 0.59326171875  C 9.078369140625 0.68603515625  9.129638671875 0.78369140625  9.180908203125 0.88623046875  C 9.232177734375 0.98876953125  9.27734375 1.08642578125  9.31640625 1.17919921875  C 9.35546875 1.27197265625  9.375 1.34765625  9.375 1.40625  C 9.375 1.533203125  9.32861328125 1.64306640625  9.23583984375 1.73583984375  Z M 11.25 2.8125  L 15 6.5625  L 15 15  L 0 15  L 0 6.5625  L 8.4375 3.75  L 8.4375 2.578125  C 8.4375 2.5341796875  8.455810546875 2.496337890625  8.492431640625 2.464599609375  C 8.529052734375 2.432861328125  8.572998046875 2.408447265625  8.624267578125 2.391357421875  C 8.675537109375 2.374267578125  8.726806640625 2.362060546875  8.778076171875 2.354736328125  C 8.829345703125 2.347412109375  8.8720703125 2.34375  8.90625 2.34375  C 8.9404296875 2.34375  8.983154296875 2.347412109375  9.034423828125 2.354736328125  C 9.085693359375 2.362060546875  9.136962890625 2.374267578125  9.188232421875 2.391357421875  C 9.239501953125 2.408447265625  9.283447265625 2.432861328125  9.320068359375 2.464599609375  C 9.356689453125 2.496337890625  9.375 2.5341796875  9.375 2.578125  L 9.375 3.43505859375  L 11.25 2.8125  Z M 9.034423828125 5.614013671875  C 8.983154296875 5.621337890625  8.9404296875 5.625  8.90625 5.625  C 8.8720703125 5.625  8.829345703125 5.621337890625  8.778076171875 5.614013671875  C 8.726806640625 5.606689453125  8.675537109375 5.594482421875  8.624267578125 5.577392578125  C 8.572998046875 5.560302734375  8.529052734375 5.535888671875  8.492431640625 5.504150390625  C 8.455810546875 5.472412109375  8.4375 5.4345703125  8.4375 5.390625  L 8.4375 4.73876953125  L 2.96630859375 6.5625  L 13.67431640625 6.5625  L 10.99365234375 3.8818359375  L 9.375 4.423828125  L 9.375 5.390625  C 9.375 5.4345703125  9.356689453125 5.472412109375  9.320068359375 5.504150390625  C 9.283447265625 5.535888671875  9.239501953125 5.560302734375  9.188232421875 5.577392578125  C 9.136962890625 5.594482421875  9.085693359375 5.606689453125  9.034423828125 5.614013671875  Z M 14.0625 7.5  L 0.9375 7.5  L 0.9375 10.3125  L 14.0625 10.3125  L 14.0625 7.5  Z M 0.9375 14  L 14.0625 14  L 14.0625 11  L 0.9375 11  L 0.9375 14  Z " fill-rule="nonzero" fill="#999999" stroke="none" transform="matrix(1 0 0 1 16 3269 )" />
  </g>
</svg>