<?xml version="1.0" encoding="utf-8"?>
<svg version="1.1" xmlns:xlink="http://www.w3.org/1999/xlink" width="13px" height="15px" xmlns="http://www.w3.org/2000/svg">
  <g transform="matrix(1 0 0 1 -16 -824 )">
    <path d="M 0.191176470588235 0  L 8.51780790441176 0  L 12.6176470588235 4.02099609375  L 12.6176470588235 15  L 0.191176470588235 15  L 0.191176470588235 0  Z M 10.9821920955882 3.75  L 8.79411764705882 1.60400390625  L 8.79411764705882 3.75  L 10.9821920955882 3.75  Z M 1.14705882352941 0.9375  L 1.14705882352941 14  L 11.6617647058824 14  L 11.6617647058824 4.6875  L 7.83823529411765 4.6875  L 7.83823529411765 0.9375  L 1.14705882352941 0.9375  Z M 9.75 7.5  L 3.05882352941176 7.5  L 3.05882352941176 6.5625  L 9.75 6.5625  L 9.75 7.5  Z M 9.75 9.375  L 3.05882352941176 9.375  L 3.05882352941176 8.4375  L 9.75 8.4375  L 9.75 9.375  Z M 9.75 11.25  L 3.05882352941176 11.25  L 3.05882352941176 10.3125  L 9.75 10.3125  L 9.75 11.25  Z " fill-rule="nonzero" fill="#333333" stroke="none" transform="matrix(1 0 0 1 16 824 )" />
  </g>
</svg>