<?xml version="1.0" encoding="utf-8"?>
<svg version="1.1" xmlns:xlink="http://www.w3.org/1999/xlink" width="14px" height="15px" xmlns="http://www.w3.org/2000/svg">
  <g transform="matrix(1 0 0 1 -191 -542 )">
    <path d="M 5.402099609375 2.97277113970588  C 5.914794921875 2.82915900735294  6.44742838541667 2.75735294117647  7 2.75735294117647  C 7.55257161458333 2.75735294117647  8.085205078125 2.82915900735294  8.597900390625 2.97277113970588  C 9.110595703125 3.11638327205882  9.59053548177083 3.3203125  10.0377197265625 3.58455882352941  C 10.4849039713542 3.84880514705882  10.8907877604167 4.1647518382353  11.25537109375 4.53239889705882  C 11.6199544270833 4.90004595588235  11.9332682291667 5.30934053308824  12.1953125 5.76028262867647  C 12.4573567708333 6.21122472426471  12.6595865885417 6.69519761029412  12.802001953125 7.21220128676471  C 12.9444173177083 7.7292049632353  13.015625 8.2663143382353  13.015625 8.82352941176471  C 13.015625 9.38074448529412  12.9444173177083 9.91785386029412  12.802001953125 10.4348575367647  C 12.6595865885417 10.9518612132353  12.4573567708333 11.4358340992647  12.1953125 11.8867761948529  C 11.9332682291667 12.3377182904412  11.6199544270833 12.7470128676471  11.25537109375 13.1146599264706  C 10.8907877604167 13.4823069852941  10.4849039713542 13.7982536764706  10.0377197265625 14.0625  C 9.59053548177083 14.3267463235294  9.110595703125 14.5306755514706  8.597900390625 14.6742876838235  C 8.085205078125 14.8178998161765  7.55257161458333 14.8897058823529  7 14.8897058823529  C 6.44742838541667 14.8897058823529  5.914794921875 14.8178998161765  5.402099609375 14.6742876838235  C 4.889404296875 14.5306755514706  4.40946451822917 14.3267463235294  3.9622802734375 14.0625  C 3.51509602864583 13.7982536764706  3.10921223958333 13.4823069852941  2.74462890625 13.1146599264706  C 2.38004557291667 12.7470128676471  2.06673177083333 12.3377182904412  1.8046875 11.8867761948529  C 1.54264322916667 11.4358340992647  1.34041341145833 10.9518612132353  1.197998046875 10.4348575367647  C 1.05558268229167 9.91785386029412  0.984375 9.38074448529412  0.984375 8.82352941176471  C 0.984375 8.2663143382353  1.05558268229167 7.7292049632353  1.197998046875 7.21220128676471  C 1.34041341145833 6.69519761029412  1.54264322916667 6.21122472426471  1.8046875 5.76028262867647  C 2.06673177083333 5.30934053308824  2.38004557291667 4.90004595588235  2.74462890625 4.53239889705882  C 3.10921223958333 4.1647518382353  3.51509602864583 3.84880514705882  3.9622802734375 3.58455882352941  C 4.40946451822917 3.3203125  4.889404296875 3.11638327205882  5.402099609375 2.97277113970588  Z M 5.0859375 13.3947035845588  C 5.68408203125 13.6560776654412  6.32210286458333 13.7867647058824  7 13.7867647058824  C 7.67789713541667 13.7867647058824  8.31591796875 13.6560776654412  8.9140625 13.3947035845588  C 9.51220703125 13.1333295036765  10.033447265625 12.7786075367647  10.477783203125 12.3305376838235  C 10.922119140625 11.8824678308824  11.2738850911458 11.3568474264706  11.5330810546875 10.7536764705882  C 11.7922770182292 10.1505055147059  11.921875 9.50712316176471  11.921875 8.82352941176471  C 11.921875 8.13993566176471  11.7922770182292 7.49655330882353  11.5330810546875 6.89338235294118  C 11.2738850911458 6.29021139705882  10.922119140625 5.76459099264706  10.477783203125 5.31652113970588  C 10.033447265625 4.86845128676471  9.51220703125 4.51372931985294  8.9140625 4.25235523897059  C 8.31591796875 3.99098115808824  7.67789713541667 3.86029411764706  7 3.86029411764706  C 6.32210286458333 3.86029411764706  5.68408203125 3.99098115808824  5.0859375 4.25235523897059  C 4.48779296875 4.51372931985294  3.966552734375 4.86845128676471  3.522216796875 5.31652113970588  C 3.077880859375 5.76459099264706  2.72611490885417 6.29021139705882  2.4669189453125 6.89338235294118  C 2.20772298177083 7.49655330882353  2.078125 8.13993566176471  2.078125 8.82352941176471  C 2.078125 9.50712316176471  2.20772298177083 10.1505055147059  2.4669189453125 10.7536764705882  C 2.72611490885417 11.3568474264706  3.077880859375 11.8824678308824  3.522216796875 12.3305376838235  C 3.966552734375 12.7786075367647  4.48779296875 13.1333295036765  5.0859375 13.3947035845588  Z M 7 5.51470588235294  L 7 8.82352941176471  L 9.1875 8.82352941176471  L 9.1875 9.92647058823529  L 5.90625 9.92647058823529  L 5.90625 5.51470588235294  L 7 5.51470588235294  Z M 13.1865234375 2.58501838235294  L 12.41748046875 3.36052389705882  C 11.6883138020833 2.63097426470588  10.8594563802083 2.07232306985294  9.930908203125 1.6845703125  C 9.00236002604167 1.29681755514706  8.025390625 1.10294117647059  7 1.10294117647059  C 5.974609375 1.10294117647059  4.99763997395833 1.29681755514706  4.069091796875 1.6845703125  C 3.14054361979167 2.07232306985294  2.31168619791667 2.63097426470588  1.58251953125 3.36052389705882  L 0.8134765625 2.58501838235294  C 1.2236328125 2.17141544117647  1.66796875 1.80376838235294  2.146484375 1.48207720588235  C 2.625 1.16038602941176  3.12772623697917 0.888959099264706  3.6546630859375 0.667796415441176  C 4.18159993489583 0.446633731617647  4.72562662760417 0.280043658088235  5.2867431640625 0.168026194852941  C 5.84785970052083 0.0560087316176471  6.4189453125 0  7 0  C 7.5810546875 0  8.15214029947917 0.0560087316176471  8.7132568359375 0.168026194852941  C 9.27437337239583 0.280043658088235  9.81840006510417 0.446633731617647  10.3453369140625 0.667796415441176  C 10.8722737630208 0.888959099264706  11.375 1.16038602941176  11.853515625 1.48207720588235  C 12.33203125 1.80376838235294  12.7763671875 2.17141544117647  13.1865234375 2.58501838235294  Z " fill-rule="nonzero" fill="#333333" stroke="none" transform="matrix(1 0 0 1 191 542 )" />
  </g>
</svg>