<?xml version="1.0" encoding="utf-8"?>
<svg version="1.1" xmlns:xlink="http://www.w3.org/1999/xlink" width="15px" height="15px" xmlns="http://www.w3.org/2000/svg">
  <g transform="matrix(1 0 0 1 -191 -582 )">
    <path d="M 9.84375 5.625  L 13.125 5.625  C 13.37890625 5.625  13.62060546875 5.675048828125  13.85009765625 5.775146484375  C 14.07958984375 5.875244140625  14.278564453125 6.009521484375  14.447021484375 6.177978515625  C 14.615478515625 6.346435546875  14.749755859375 6.54541015625  14.849853515625 6.77490234375  C 14.949951171875 7.00439453125  15 7.24609375  15 7.5  C 15 7.7587890625  14.949951171875 8.001708984375  14.849853515625 8.228759765625  C 14.749755859375 8.455810546875  14.615478515625 8.653564453125  14.447021484375 8.822021484375  C 14.278564453125 8.990478515625  14.07958984375 9.124755859375  13.85009765625 9.224853515625  C 13.62060546875 9.324951171875  13.37890625 9.375  13.125 9.375  L 9.84375 9.375  L 7.03125 15  L 3.75 15  L 5.625 9.375  L 3.75 9.375  L 3.28125 10.3125  L 0 10.3125  L 0.9375 7.5  L 0 4.6875  L 3.28125 4.6875  L 3.75 5.625  L 5.625 5.625  L 3.75 0  L 7.03125 0  L 9.84375 5.625  Z M 9.26513671875 8.4375  L 13.125 8.4375  C 13.2568359375 8.4375  13.37890625 8.4130859375  13.4912109375 8.3642578125  C 13.603515625 8.3154296875  13.702392578125 8.248291015625  13.787841796875 8.162841796875  C 13.873291015625 8.077392578125  13.9404296875 7.978515625  13.9892578125 7.8662109375  C 14.0380859375 7.75390625  14.0625 7.6318359375  14.0625 7.5  C 14.0625 7.3681640625  14.0380859375 7.24609375  13.9892578125 7.1337890625  C 13.9404296875 7.021484375  13.873291015625 6.922607421875  13.787841796875 6.837158203125  C 13.702392578125 6.751708984375  13.603515625 6.6845703125  13.4912109375 6.6357421875  C 13.37890625 6.5869140625  13.2568359375 6.5625  13.125 6.5625  L 9.26513671875 6.5625  C 8.78173828125 5.625  8.310546875 4.688720703125  7.8515625 3.753662109375  C 7.392578125 2.818603515625  6.92626953125 1.8798828125  6.45263671875 0.9375  L 5.0537109375 0.9375  C 5.3662109375 1.8798828125  5.67626953125 2.818603515625  5.98388671875 3.753662109375  C 6.29150390625 4.688720703125  6.6064453125 5.625  6.9287109375 6.5625  L 3.17138671875 6.5625  L 2.70263671875 5.625  L 1.3037109375 5.625  C 1.40625 5.9375  1.507568359375 6.25  1.607666015625 6.5625  C 1.707763671875 6.875  1.81396484375 7.1875  1.92626953125 7.5  C 1.81396484375 7.8125  1.707763671875 8.125  1.607666015625 8.4375  C 1.507568359375 8.75  1.40625 9.0625  1.3037109375 9.375  L 2.70263671875 9.375  L 3.17138671875 8.4375  L 6.9287109375 8.4375  C 6.6064453125 9.375  6.29150390625 10.311279296875  5.98388671875 11.246337890625  C 5.67626953125 12.181396484375  5.3662109375 13.1201171875  5.0537109375 14.0625  L 6.45263671875 14.0625  C 6.92626953125 13.1201171875  7.392578125 12.181396484375  7.8515625 11.246337890625  C 8.310546875 10.311279296875  8.78173828125 9.375  9.26513671875 8.4375  Z " fill-rule="nonzero" fill="#333333" stroke="none" transform="matrix(1 0 0 1 191 582 )" />
  </g>
</svg>