<?xml version="1.0" encoding="utf-8"?>
<svg version="1.1" xmlns:xlink="http://www.w3.org/1999/xlink" width="13px" height="15px" xmlns="http://www.w3.org/2000/svg">
  <g transform="matrix(1 0 0 1 -17 -540 )">
    <path d="M 10.7058823529412 3.75  L 12.6176470588235 3.75  L 12.6176470588235 13.125  C 12.6176470588235 13.3837890625  12.5666168811275 13.626708984375  12.4645565257353 13.853759765625  C 12.3624961703431 14.080810546875  12.2255859375 14.278564453125  12.0538258272059 14.447021484375  C 11.8820657169118 14.615478515625  11.6791896446078 14.749755859375  11.4451976102941 14.849853515625  C 11.2112055759804 14.949951171875  10.9647671568627 15  10.7058823529412 15  L 2.10294117647059 15  C 1.83907781862745 15  1.59139476102941 14.949951171875  1.35989200367647 14.849853515625  C 1.12838924632353 14.749755859375  0.9267578125 14.615478515625  0.754997702205882 14.447021484375  C 0.583237591911765 14.278564453125  0.446327359068628 14.080810546875  0.344267003676471 13.853759765625  C 0.242206648284314 13.626708984375  0.191176470588235 13.3837890625  0.191176470588235 13.125  L 0.191176470588235 3.75  L 2.10294117647059 3.75  L 2.10294117647059 2.8125  C 2.10294117647059 2.4267578125  2.17886412377451 2.06298828125  2.33071001838235 1.72119140625  C 2.4825559129902 1.37939453125  2.6879212622549 1.08154296875  2.94680606617647 0.82763671875  C 3.20569087009804 0.57373046875  3.50938265931373 0.372314453125  3.85788143382353 0.223388671875  C 4.20638020833333 0.074462890625  4.5772824754902 0  4.97058823529412 0  C 5.48835784313726 0  5.96878829656863 0.126953125  6.41187959558824 0.380859375  C 6.85497089460785 0.126953125  7.33042279411765 0  7.83823529411765 0  C 8.23154105392157 0  8.60244332107843 0.074462890625  8.95094209558824 0.223388671875  C 9.29944087009804 0.372314453125  9.60313265931373 0.57373046875  9.8620174632353 0.82763671875  C 10.1209022671569 1.08154296875  10.3262676164216 1.37939453125  10.4781135110294 1.72119140625  C 10.6299594056373 2.06298828125  10.7058823529412 2.4267578125  10.7058823529412 2.8125  L 10.7058823529412 3.75  Z M 9.75 3.75  L 9.75 2.8125  C 9.75 2.55859375  9.69896982230392 2.31689453125  9.59690946691176 2.08740234375  C 9.49484911151961 1.85791015625  9.35793887867647 1.658935546875  9.18617876838235 1.490478515625  C 9.01441865808824 1.322021484375  8.81154258578432 1.187744140625  8.57755055147059 1.087646484375  C 8.34355851715686 0.987548828125  8.09712009803922 0.9375  7.83823529411765 0.9375  C 7.61420036764706 0.9375  7.40261182598039 0.97412109375  7.20346966911765 1.04736328125  C 7.34784773284314 1.22314453125  7.46235447303922 1.396484375  7.54698988970588 1.5673828125  C 7.63162530637255 1.73828125  7.69510186887255 1.9091796875  7.73741957720588 2.080078125  C 7.77973728553922 2.2509765625  7.80711933210785 2.425537109375  7.81956571691177 2.603759765625  C 7.83201210171569 2.781982421875  7.83823529411765 2.96875  7.83823529411765 3.1640625  L 7.83823529411765 3.75  L 9.75 3.75  Z M 3.05882352941176 2.8125  L 3.05882352941176 3.75  L 6.88235294117647 3.75  L 6.88235294117647 2.8125  C 6.88235294117647 2.55859375  6.83132276348039 2.31689453125  6.72926240808823 2.08740234375  C 6.62720205269608 1.85791015625  6.49029181985294 1.658935546875  6.31853170955882 1.490478515625  C 6.14677159926471 1.322021484375  5.94389552696078 1.187744140625  5.70990349264706 1.087646484375  C 5.47591145833333 0.987548828125  5.22947303921569 0.9375  4.97058823529412 0.9375  C 4.70672487745098 0.9375  4.45904181985294 0.987548828125  4.2275390625 1.087646484375  C 3.99603630514706 1.187744140625  3.79440487132353 1.322021484375  3.62264476102941 1.490478515625  C 3.45088465073529 1.658935546875  3.31397441789216 1.85791015625  3.2119140625 2.08740234375  C 3.10985370710784 2.31689453125  3.05882352941176 2.55859375  3.05882352941176 2.8125  Z M 2.10294117647059 14.0625  L 9.04802389705882 14.0625  C 8.87875306372549 13.76953125  8.79411764705882 13.45703125  8.79411764705882 13.125  L 8.79411764705882 4.6875  L 1.14705882352941 4.6875  L 1.14705882352941 13.125  C 1.14705882352941 13.2568359375  1.17195159313726 13.37890625  1.22173713235294 13.4912109375  C 1.27152267156863 13.603515625  1.3399777879902 13.702392578125  1.42710248161765 13.787841796875  C 1.5142271752451 13.873291015625  1.61504289215686 13.9404296875  1.72954963235294 13.9892578125  C 1.84405637254902 14.0380859375  1.96852022058824 14.0625  2.10294117647059 14.0625  Z M 11.6617647058824 13.125  L 11.6617647058824 4.6875  L 9.75 4.6875  L 9.75 13.125  C 9.75 13.2568359375  9.77489276960785 13.37890625  9.82467830882353 13.4912109375  C 9.87446384803922 13.603515625  9.94291896446079 13.702392578125  10.0300436580882 13.787841796875  C 10.1171683517157 13.873291015625  10.2179840686275 13.9404296875  10.3324908088235 13.9892578125  C 10.4469975490196 14.0380859375  10.5714613970588 14.0625  10.7058823529412 14.0625  C 10.8403033088235 14.0625  10.9647671568627 14.0380859375  11.0792738970588 13.9892578125  C 11.1937806372549 13.9404296875  11.2945963541667 13.873291015625  11.3817210477941 13.787841796875  C 11.4688457414216 13.702392578125  11.5373008578431 13.603515625  11.5870863970588 13.4912109375  C 11.6368719362745 13.37890625  11.6617647058824 13.2568359375  11.6617647058824 13.125  Z " fill-rule="nonzero" fill="#333333" stroke="none" transform="matrix(1 0 0 1 17 540 )" />
  </g>
</svg>