<?xml version="1.0" encoding="utf-8"?>
<svg version="1.1" xmlns:xlink="http://www.w3.org/1999/xlink" width="16px" height="15px" xmlns="http://www.w3.org/2000/svg">
  <g transform="matrix(1 0 0 1 -17 -620 )">
    <path d="M 13 0.986842105263158  L 16 0.986842105263158  L 16 14.8026315789474  L 0 14.8026315789474  L 0 0.986842105263158  L 3 0.986842105263158  L 3 0  L 4 0  L 4 0.986842105263158  L 12 0.986842105263158  L 12 0  L 13 0  L 13 0.986842105263158  Z M 3 1.97368421052632  L 1 1.97368421052632  L 1 4  L 15 4  L 15 1.97368421052632  L 13 1.97368421052632  L 13 2.96052631578947  L 12 2.96052631578947  L 12 1.97368421052632  L 4 1.97368421052632  L 4 2.96052631578947  L 3 2.96052631578947  L 3 1.97368421052632  Z M 1 13.8157894736842  L 15 13.8157894736842  L 15 5  L 1 5  L 1 13.8157894736842  Z M 10 6.90789473684211  L 11 6.90789473684211  L 11 11.8421052631579  L 10 11.8421052631579  L 10 8.09518914473684  C 9.859375 8.16714638157895  9.69791666666667 8.23396381578947  9.515625 8.29564144736842  C 9.33333333333333 8.35731907894737  9.16145833333333 8.38815789473684  9 8.38815789473684  L 9 7.40131578947368  C 9.0625 7.40131578947369  9.14322916666667 7.38589638157895  9.2421875 7.35505756578947  C 9.34114583333333 7.32421875  9.44270833333333 7.28438527960526  9.546875 7.23555715460526  C 9.65104166666667 7.18672902960526  9.74479166666667 7.13404605263158  9.828125 7.07750822368421  C 9.91145833333333 7.02097039473684  9.96875 6.96700246710526  10 6.91560444078947  L 10 6.90789473684211  Z M 7.8828125 7.80993009868421  C 7.9609375 7.98982319078948  8 8.18256578947369  8 8.38815789473684  C 8 8.58861019736842  7.97005208333333 8.76978824013158  7.91015625 8.93169202302632  C 7.85026041666667 9.09359580592105  7.77083333333333 9.24265008223684  7.671875 9.37885485197369  C 7.57291666666667 9.51505962171053  7.45833333333333 9.6448396381579  7.328125 9.76819490131579  C 7.19791666666667 9.89155016447369  7.06510416666667 10.0110505756579  6.9296875 10.1266961348684  C 6.79427083333333 10.2423416940789  6.66015625 10.3592722039474  6.52734375 10.4774876644737  C 6.39453125 10.595703125  6.2734375 10.7216282894737  6.1640625 10.8552631578947  L 8 10.8552631578947  L 8 11.8421052631579  L 5 11.8421052631579  C 5 11.7547286184211  4.99869791666667 11.6622121710526  4.99609375 11.5645559210526  C 4.99348958333333 11.4668996710526  4.99348958333333 11.3679584703947  4.99609375 11.2677323190789  C 4.99869791666667 11.1675061677632  5.0078125 11.0698499177632  5.0234375 10.9747635690789  C 5.0390625 10.8796772203947  5.06510416666667 10.7884457236842  5.1015625 10.7010690789474  C 5.15885416666667 10.5622944078947  5.24609375 10.4248046875  5.36328125 10.2885999177632  C 5.48046875 10.1523951480263  5.609375 10.0174753289474  5.75 9.88384046052632  C 5.890625 9.75020559210526  6.03385416666667 9.619140625  6.1796875 9.49064555921053  C 6.32552083333333 9.36215049342105  6.45963541666667 9.23622532894737  6.58203125 9.11287006578947  C 6.70442708333333 8.98951480263158  6.8046875 8.86744449013158  6.8828125 8.74665912828947  C 6.9609375 8.62587376644737  7 8.50637335526316  7 8.38815789473684  C 7 8.24938322368421  6.95052083333333 8.13245271381579  6.8515625 8.03736636513158  C 6.75260416666667 7.94228001644737  6.63541666666667 7.89473684210526  6.5 7.89473684210526  C 6.38020833333333 7.89473684210526  6.27473958333333 7.93071546052632  6.18359375 8.00267269736842  C 6.09244791666667 8.07462993421053  6.03385416666667 8.16971628289474  6.0078125 8.28793174342105  L 5.03125 8.08747944078947  C 5.0625 7.91786595394737  5.12369791666667 7.76110197368421  5.21484375 7.6171875  C 5.30598958333333 7.47327302631579  5.41927083333333 7.3486328125  5.5546875 7.24326685855263  C 5.69010416666667 7.13790090460526  5.83854166666667 7.0556640625  6 6.99655633223684  C 6.16145833333333 6.93744860197368  6.328125 6.90789473684211  6.5 6.90789473684211  C 6.70833333333333 6.90789473684211  6.90364583333333 6.94644325657895  7.0859375 7.02354029605263  C 7.26822916666667 7.10063733552632  7.42708333333333 7.20600328947369  7.5625 7.33963815789474  C 7.69791666666667 7.47327302631579  7.8046875 7.63003700657895  7.8828125 7.80993009868421  Z " fill-rule="nonzero" fill="#333333" stroke="none" transform="matrix(1 0 0 1 17 620 )" />
  </g>
</svg>