<?xml version="1.0" encoding="utf-8"?>
<svg version="1.1" xmlns:xlink="http://www.w3.org/1999/xlink" width="15px" height="15px" xmlns="http://www.w3.org/2000/svg">
  <g transform="matrix(1 0 0 1 -122 -298 )">
    <path d="M 5.43148643092105 0.262129934210526  C 6.06111225328948 0.0873766447368421  6.71772203947368 0  7.40131578947368 0  C 8.08490953947369 0  8.7415193256579 0.0873766447368421  9.37114514802632 0.262129934210526  C 10.0007709703947 0.436883223684211  10.5905633223684 0.684878700657895  11.1405222039474 1.00611636513158  C 11.6904810855263 1.32735402960526  12.1903268914474 1.71283922697368  12.6400596217105 2.16257195723684  C 13.0897923519737 2.6123046875  13.4752775493421 3.11215049342105  13.7965152138158 3.662109375  C 14.1177528782895 4.21206825657895  14.3657483552632 4.80186060855263  14.5405016447368 5.43148643092105  C 14.7152549342105 6.06111225328948  14.8026315789474 6.71772203947368  14.8026315789474 7.40131578947368  C 14.8026315789474 8.08490953947369  14.7152549342105 8.7415193256579  14.5405016447368 9.37114514802632  C 14.3657483552632 10.0007709703947  14.1177528782895 10.5905633223684  13.7965152138158 11.1405222039474  C 13.4752775493421 11.6904810855263  13.0897923519737 12.1903268914474  12.6400596217105 12.6400596217105  C 12.1903268914474 13.0897923519737  11.6904810855263 13.4752775493421  11.1405222039474 13.7965152138158  C 10.5905633223684 14.1177528782895  10.0007709703947 14.3657483552632  9.37114514802632 14.5405016447368  C 8.7415193256579 14.7152549342105  8.08490953947369 14.8026315789474  7.40131578947368 14.8026315789474  C 6.71772203947368 14.8026315789474  6.06111225328948 14.7152549342105  5.43148643092105 14.5405016447368  C 4.80186060855263 14.3657483552632  4.21206825657895 14.1177528782895  3.662109375 13.7965152138158  C 3.11215049342105 13.4752775493421  2.6123046875 13.0897923519737  2.16257195723684 12.6400596217105  C 1.71283922697368 12.1903268914474  1.32735402960526 11.6904810855263  1.00611636513158 11.1405222039474  C 0.684878700657895 10.5905633223684  0.436883223684211 10.0007709703947  0.262129934210526 9.37114514802632  C 0.0873766447368421 8.7415193256579  0 8.08490953947369  0 7.40131578947368  C 0 6.71772203947368  0.0873766447368421 6.06111225328948  0.262129934210526 5.43148643092105  C 0.436883223684211 4.80186060855263  0.684878700657895 4.21206825657895  1.00611636513158 3.662109375  C 1.32735402960526 3.11215049342105  1.71283922697368 2.6123046875  2.16257195723684 2.16257195723684  C 2.6123046875 1.71283922697368  3.11215049342105 1.32735402960526  3.662109375 1.00611636513158  C 4.21206825657895 0.684878700657895  4.80186060855263 0.436883223684211  5.43148643092105 0.262129934210526  Z M 5.69747121710526 13.5844983552632  C 6.24229029605263 13.7386924342105  6.81023848684211 13.8157894736842  7.40131578947368 13.8157894736842  C 7.99239309210526 13.8157894736842  8.56034128289474 13.7386924342105  9.1051603618421 13.5844983552632  C 9.64997944078947 13.4303042763158  10.1601048519737 13.2144325657895  10.6355365953947 12.9368832236842  C 11.1109683388158 12.6593338815789  11.5439967105263 12.3252467105263  11.9346217105263 11.9346217105263  C 12.3252467105263 11.5439967105263  12.6593338815789 11.1109683388158  12.9368832236842 10.6355365953947  C 13.2144325657895 10.1601048519737  13.4303042763158 9.64997944078947  13.5844983552632 9.1051603618421  C 13.7386924342105 8.56034128289474  13.8157894736842 7.99239309210526  13.8157894736842 7.40131578947368  C 13.8157894736842 6.81023848684211  13.7386924342105 6.24229029605263  13.5844983552632 5.69747121710526  C 13.4303042763158 5.1526521381579  13.2144325657895 4.64252672697369  12.9368832236842 4.16709498355263  C 12.6593338815789 3.69166324013158  12.3252467105263 3.25863486842105  11.9346217105263 2.86800986842105  C 11.5439967105263 2.47738486842105  11.1109683388158 2.14329769736842  10.6355365953947 1.86574835526316  C 10.1601048519737 1.58819901315789  9.64997944078947 1.37232730263158  9.1051603618421 1.21813322368421  C 8.56034128289474 1.06393914473684  7.99239309210526 0.986842105263158  7.40131578947368 0.986842105263158  C 6.81023848684211 0.986842105263158  6.24229029605263 1.06393914473684  5.69747121710526 1.21813322368421  C 5.1526521381579 1.37232730263158  4.64252672697369 1.58819901315789  4.16709498355263 1.86574835526316  C 3.69166324013158 2.14329769736842  3.25863486842105 2.47738486842105  2.86800986842105 2.86800986842105  C 2.47738486842105 3.25863486842105  2.14329769736842 3.69166324013158  1.86574835526316 4.16709498355263  C 1.58819901315789 4.64252672697369  1.37232730263158 5.1526521381579  1.21813322368421 5.69747121710526  C 1.06393914473684 6.24229029605263  0.986842105263158 6.81023848684211  0.986842105263158 7.40131578947368  C 0.986842105263158 7.99239309210526  1.06393914473684 8.56034128289474  1.21813322368421 9.1051603618421  C 1.37232730263158 9.64997944078947  1.58819901315789 10.1601048519737  1.86574835526316 10.6355365953947  C 2.14329769736842 11.1109683388158  2.47738486842105 11.5439967105263  2.86800986842105 11.9346217105263  C 3.25863486842105 12.3252467105263  3.69166324013158 12.6593338815789  4.16709498355263 12.9368832236842  C 4.64252672697369 13.2144325657895  5.1526521381579 13.4303042763158  5.69747121710526 13.5844983552632  Z M 7.74825246710526 4.79543585526316  L 5.60495476973684 6.90789473684211  L 10.8552631578947 6.90789473684211  L 10.8552631578947 7.89473684210526  L 5.60495476973684 7.89473684210526  L 7.74825246710526 10.0071957236842  L 7.05437911184211 10.7164884868421  L 3.70836759868421 7.40131578947368  L 7.05437911184211 4.08614309210526  L 7.74825246710526 4.79543585526316  Z " fill-rule="nonzero" fill="#333333" stroke="none" transform="matrix(1 0 0 1 122 298 )" />
  </g>
</svg>