<?xml version="1.0" encoding="utf-8"?>
<svg version="1.1" xmlns:xlink="http://www.w3.org/1999/xlink" width="12px" height="12px" viewBox="16 113  12 12" xmlns="http://www.w3.org/2000/svg">
  <path d="M 22 113  C 25.36 113  28 115.64  28 119  C 28 122.36  25.36 125  22 125  C 18.64 125  16 122.36  16 119  C 16 115.64  18.64 113  22 113  Z " fill-rule="nonzero" fill="#ffffff" stroke="none" />
  <path d="M 22 113.5  C 25.08 113.5  27.5 115.92  27.5 119  C 27.5 122.08  25.08 124.5  22 124.5  C 18.92 124.5  16.5 122.08  16.5 119  C 16.5 115.92  18.92 113.5  22 113.5  Z " stroke-width="1" stroke="#797979" fill="none" />
  <path d="M 22 122  C 20.32 122  19 120.68  19 119  C 19 117.32  20.32 116  22 116  C 23.68 116  25 117.32  25 119  C 25 120.68  23.68 122  22 122  " fill-rule="nonzero" fill="#797979" stroke="none" />
</svg>