<?xml version="1.0" encoding="utf-8"?>
<svg version="1.1" xmlns:xlink="http://www.w3.org/1999/xlink" width="15px" height="15px" xmlns="http://www.w3.org/2000/svg">
  <g transform="matrix(1 0 0 1 -18 -333 )">
    <path d="M 5.504150390625 0.267333984375  C 6.141357421875 0.089111328125  6.806640625 0  7.5 0  C 8.1884765625 0  8.8525390625 0.089111328125  9.4921875 0.267333984375  C 10.1318359375 0.445556640625  10.72998046875 0.697021484375  11.28662109375 1.021728515625  C 11.84326171875 1.346435546875  12.349853515625 1.737060546875  12.806396484375 2.193603515625  C 13.262939453125 2.650146484375  13.653564453125 3.15673828125  13.978271484375 3.71337890625  C 14.302978515625 4.27001953125  14.554443359375 4.8681640625  14.732666015625 5.5078125  C 14.910888671875 6.1474609375  15 6.8115234375  15 7.5  C 15 8.1884765625  14.910888671875 8.8525390625  14.732666015625 9.4921875  C 14.554443359375 10.1318359375  14.302978515625 10.72998046875  13.978271484375 11.28662109375  C 13.653564453125 11.84326171875  13.262939453125 12.349853515625  12.806396484375 12.806396484375  C 12.349853515625 13.262939453125  11.84326171875 13.653564453125  11.28662109375 13.978271484375  C 10.72998046875 14.302978515625  10.1318359375 14.554443359375  9.4921875 14.732666015625  C 8.8525390625 14.910888671875  8.1884765625 15  7.5 15  C 6.8115234375 15  6.1474609375 14.910888671875  5.5078125 14.732666015625  C 4.8681640625 14.554443359375  4.27001953125 14.302978515625  3.71337890625 13.978271484375  C 3.15673828125 13.653564453125  2.650146484375 13.262939453125  2.193603515625 12.806396484375  C 1.737060546875 12.349853515625  1.346435546875 11.84326171875  1.021728515625 11.28662109375  C 0.697021484375 10.72998046875  0.445556640625 10.133056640625  0.267333984375 9.495849609375  C 0.089111328125 8.858642578125  0 8.193359375  0 7.5  C 0 6.8115234375  0.089111328125 6.1474609375  0.267333984375 5.5078125  C 0.445556640625 4.8681640625  0.697021484375 4.27001953125  1.021728515625 3.71337890625  C 1.346435546875 3.15673828125  1.737060546875 2.650146484375  2.193603515625 2.193603515625  C 2.650146484375 1.737060546875  3.15673828125 1.346435546875  3.71337890625 1.021728515625  C 4.27001953125 0.697021484375  4.866943359375 0.445556640625  5.504150390625 0.267333984375  Z M 5.7568359375 13.828125  C 6.3134765625 13.984375  6.89453125 14.0625  7.5 14.0625  C 8.1005859375 14.0625  8.680419921875 13.984375  9.239501953125 13.828125  C 9.798583984375 13.671875  10.321044921875 13.450927734375  10.806884765625 13.165283203125  C 11.292724609375 12.879638671875  11.73583984375 12.53662109375  12.13623046875 12.13623046875  C 12.53662109375 11.73583984375  12.879638671875 11.292724609375  13.165283203125 10.806884765625  C 13.450927734375 10.321044921875  13.671875 9.7998046875  13.828125 9.2431640625  C 13.984375 8.6865234375  14.0625 8.10546875  14.0625 7.5  C 14.0625 6.8994140625  13.984375 6.319580078125  13.828125 5.760498046875  C 13.671875 5.201416015625  13.450927734375 4.678955078125  13.165283203125 4.193115234375  C 12.879638671875 3.707275390625  12.53662109375 3.26416015625  12.13623046875 2.86376953125  C 11.73583984375 2.46337890625  11.292724609375 2.120361328125  10.806884765625 1.834716796875  C 10.321044921875 1.549072265625  9.798583984375 1.328125  9.239501953125 1.171875  C 8.680419921875 1.015625  8.1005859375 0.9375  7.5 0.9375  C 6.8994140625 0.9375  6.319580078125 1.015625  5.760498046875 1.171875  C 5.201416015625 1.328125  4.678955078125 1.549072265625  4.193115234375 1.834716796875  C 3.707275390625 2.120361328125  3.26416015625 2.46337890625  2.86376953125 2.86376953125  C 2.46337890625 3.26416015625  2.120361328125 3.707275390625  1.834716796875 4.193115234375  C 1.549072265625 4.678955078125  1.328125 5.201416015625  1.171875 5.760498046875  C 1.015625 6.319580078125  0.9375 6.8994140625  0.9375 7.5  C 0.9375 8.1005859375  1.015625 8.680419921875  1.171875 9.239501953125  C 1.328125 9.798583984375  1.549072265625 10.321044921875  1.834716796875 10.806884765625  C 2.120361328125 11.292724609375  2.46337890625 11.73583984375  2.86376953125 12.13623046875  C 3.26416015625 12.53662109375  3.707275390625 12.879638671875  4.193115234375 13.165283203125  C 4.678955078125 13.450927734375  5.2001953125 13.671875  5.7568359375 13.828125  Z M 6.192626953125 2.75390625  C 6.610107421875 2.63671875  7.0458984375 2.578125  7.5 2.578125  C 7.9541015625 2.578125  8.389892578125 2.63671875  8.807373046875 2.75390625  C 9.224853515625 2.87109375  9.61669921875 3.037109375  9.98291015625 3.251953125  C 10.34912109375 3.466796875  10.68115234375 3.72314453125  10.97900390625 4.02099609375  C 11.27685546875 4.31884765625  11.533203125 4.65087890625  11.748046875 5.01708984375  C 11.962890625 5.38330078125  12.12890625 5.775146484375  12.24609375 6.192626953125  C 12.36328125 6.610107421875  12.421875 7.0458984375  12.421875 7.5  C 12.421875 7.9541015625  12.36328125 8.389892578125  12.24609375 8.807373046875  C 12.12890625 9.224853515625  11.962890625 9.61669921875  11.748046875 9.98291015625  C 11.533203125 10.34912109375  11.27685546875 10.68115234375  10.97900390625 10.97900390625  C 10.68115234375 11.27685546875  10.34912109375 11.533203125  9.98291015625 11.748046875  C 9.61669921875 11.962890625  9.224853515625 12.12890625  8.807373046875 12.24609375  C 8.389892578125 12.36328125  7.9541015625 12.421875  7.5 12.421875  C 7.0458984375 12.421875  6.610107421875 12.36328125  6.192626953125 12.24609375  C 5.775146484375 12.12890625  5.38330078125 11.962890625  5.01708984375 11.748046875  C 4.65087890625 11.533203125  4.31884765625 11.27685546875  4.02099609375 10.97900390625  C 3.72314453125 10.68115234375  3.466796875 10.34912109375  3.251953125 9.98291015625  C 3.037109375 9.61669921875  2.87109375 9.224853515625  2.75390625 8.807373046875  C 2.63671875 8.389892578125  2.578125 7.9541015625  2.578125 7.5  C 2.578125 7.0458984375  2.63671875 6.610107421875  2.75390625 6.192626953125  C 2.87109375 5.775146484375  3.037109375 5.38330078125  3.251953125 5.01708984375  C 3.466796875 4.65087890625  3.72314453125 4.31884765625  4.02099609375 4.02099609375  C 4.31884765625 3.72314453125  4.65087890625 3.466796875  5.01708984375 3.251953125  C 5.38330078125 3.037109375  5.775146484375 2.87109375  6.192626953125 2.75390625  Z " fill-rule="nonzero" fill="#000000" stroke="none" transform="matrix(1 0 0 1 18 333 )" />
  </g>
</svg>