<?xml version="1.0" encoding="utf-8"?>
<svg version="1.1" xmlns:xlink="http://www.w3.org/1999/xlink" width="18px" height="19px" xmlns="http://www.w3.org/2000/svg">
  <g transform="matrix(1 0 0 1 -35 -648 )">
    <path d="M 6.945556640625 3.76551011029412  C 7.604736328125 3.58360140931373  8.28955078125 3.49264705882353  9 3.49264705882353  C 9.71044921875 3.49264705882353  10.395263671875 3.58360140931373  11.054443359375 3.76551011029412  C 11.713623046875 3.94741881127451  12.3306884765625 4.20572916666667  12.9056396484375 4.54044117647059  C 13.4805908203125 4.87515318627451  14.00244140625 5.27535232843137  14.47119140625 5.74103860294118  C 14.93994140625 6.20672487745098  15.3427734375 6.7251646752451  15.6796875 7.29635799632353  C 16.0166015625 7.86755131740196  16.276611328125 8.48058363970588  16.459716796875 9.1354549632353  C 16.642822265625 9.79032628676471  16.734375 10.4706648284314  16.734375 11.1764705882353  C 16.734375 11.8822763480392  16.642822265625 12.5626148897059  16.459716796875 13.2174862132353  C 16.276611328125 13.8723575367647  16.0166015625 14.4853898590686  15.6796875 15.0565831801471  C 15.3427734375 15.6277765012255  14.93994140625 16.1462162990196  14.47119140625 16.6119025735294  C 14.00244140625 17.0775888480392  13.4805908203125 17.4777879901961  12.9056396484375 17.8125  C 12.3306884765625 18.1472120098039  11.713623046875 18.4055223651961  11.054443359375 18.5874310661765  C 10.395263671875 18.7693397671569  9.71044921875 18.8602941176471  9 18.8602941176471  C 8.28955078125 18.8602941176471  7.604736328125 18.7693397671569  6.945556640625 18.5874310661765  C 6.286376953125 18.4055223651961  5.6693115234375 18.1472120098039  5.0943603515625 17.8125  C 4.5194091796875 17.4777879901961  3.99755859375 17.0775888480392  3.52880859375 16.6119025735294  C 3.06005859375 16.1462162990196  2.6572265625 15.6277765012255  2.3203125 15.0565831801471  C 1.9833984375 14.4853898590686  1.723388671875 13.8723575367647  1.540283203125 13.2174862132353  C 1.357177734375 12.5626148897059  1.265625 11.8822763480392  1.265625 11.1764705882353  C 1.265625 10.4706648284314  1.357177734375 9.79032628676471  1.540283203125 9.1354549632353  C 1.723388671875 8.48058363970588  1.9833984375 7.86755131740196  2.3203125 7.29635799632353  C 2.6572265625 6.7251646752451  3.06005859375 6.20672487745098  3.52880859375 5.74103860294118  C 3.99755859375 5.27535232843137  4.5194091796875 4.87515318627451  5.0943603515625 4.54044117647059  C 5.6693115234375 4.20572916666667  6.286376953125 3.94741881127451  6.945556640625 3.76551011029412  Z M 6.5390625 16.9666245404412  C 7.30810546875 17.2976983762255  8.12841796875 17.4632352941176  9 17.4632352941176  C 9.87158203125 17.4632352941176  10.69189453125 17.2976983762255  11.4609375 16.9666245404412  C 12.22998046875 16.6355507046569  12.900146484375 16.1862362132353  13.471435546875 15.6186810661765  C 14.042724609375 15.0511259191176  14.4949951171875 14.3853400735294  14.8282470703125 13.6213235294118  C 15.1614990234375 12.8573069852941  15.328125 12.042356004902  15.328125 11.1764705882353  C 15.328125 10.3105851715686  15.1614990234375 9.49563419117647  14.8282470703125 8.73161764705882  C 14.4949951171875 7.96760110294118  14.042724609375 7.30181525735294  13.471435546875 6.73426011029412  C 12.900146484375 6.16670496323529  12.22998046875 5.71739047181373  11.4609375 5.38631663602941  C 10.69189453125 5.0552428002451  9.87158203125 4.88970588235294  9 4.88970588235294  C 8.12841796875 4.88970588235294  7.30810546875 5.0552428002451  6.5390625 5.38631663602941  C 5.77001953125 5.71739047181373  5.099853515625 6.16670496323529  4.528564453125 6.73426011029412  C 3.957275390625 7.30181525735294  3.5050048828125 7.96760110294118  3.1717529296875 8.73161764705882  C 2.8385009765625 9.49563419117647  2.671875 10.3105851715686  2.671875 11.1764705882353  C 2.671875 12.042356004902  2.8385009765625 12.8573069852941  3.1717529296875 13.6213235294118  C 3.5050048828125 14.3853400735294  3.957275390625 15.0511259191176  4.528564453125 15.6186810661765  C 5.099853515625 16.1862362132353  5.77001953125 16.6355507046569  6.5390625 16.9666245404412  Z M 9 6.98529411764706  L 9 11.1764705882353  L 11.8125 11.1764705882353  L 11.8125 12.5735294117647  L 7.59375 12.5735294117647  L 7.59375 6.98529411764706  L 9 6.98529411764706  Z M 16.9541015625 3.27435661764706  L 15.96533203125 4.25666360294118  C 15.02783203125 3.33256740196079  13.962158203125 2.62494255514706  12.768310546875 2.1337890625  C 11.574462890625 1.64263556985294  10.318359375 1.39705882352941  9 1.39705882352941  C 7.681640625 1.39705882352941  6.425537109375 1.64263556985294  5.231689453125 2.1337890625  C 4.037841796875 2.62494255514706  2.97216796875 3.33256740196079  2.03466796875 4.25666360294118  L 1.0458984375 3.27435661764706  C 1.5732421875 2.75045955882353  2.14453125 2.28477328431373  2.759765625 1.87729779411765  C 3.375 1.46982230392157  4.0213623046875 1.12601485906863  4.6988525390625 0.845875459558823  C 5.3763427734375 0.56573606004902  6.0758056640625 0.354721966911765  6.7972412109375 0.212833180147059  C 7.5186767578125 0.0709443933823529  8.2529296875 0  9 0  C 9.7470703125 0  10.4813232421875 0.0709443933823529  11.2027587890625 0.212833180147059  C 11.9241943359375 0.354721966911765  12.6236572265625 0.56573606004902  13.3011474609375 0.845875459558823  C 13.9786376953125 1.12601485906863  14.625 1.46982230392157  15.240234375 1.87729779411765  C 15.85546875 2.28477328431373  16.4267578125 2.75045955882353  16.9541015625 3.27435661764706  Z " fill-rule="nonzero" fill="#00b8ff" stroke="none" transform="matrix(1 0 0 1 35 648 )" />
  </g>
</svg>