<?xml version="1.0" encoding="utf-8"?>
<svg version="1.1" xmlns:xlink="http://www.w3.org/1999/xlink" width="18px" height="14px" xmlns="http://www.w3.org/2000/svg">
  <g transform="matrix(1 0 0 1 -35 -1087 )">
    <path d="M 10.2857142857143 11.4545454545455  L 10.2857142857143 12.7272727272727  L 16.7142857142857 12.7272727272727  L 16.7142857142857 11.4545454545455  L 10.2857142857143 11.4545454545455  Z M 6.42857142857143 6.36363636363636  L 6.42857142857143 7.63636363636364  L 16.7142857142857 7.63636363636364  L 16.7142857142857 6.36363636363636  L 6.42857142857143 6.36363636363636  Z M 12.8571428571429 1.27272727272727  L 12.8571428571429 2.54545454545455  L 16.7142857142857 2.54545454545455  L 16.7142857142857 1.27272727272727  L 12.8571428571429 1.27272727272727  Z M 17.8091517857143 10.3707386363636  C 17.9363839285714 10.4966856060606  18 10.6458333333333  18 10.8181818181818  L 18 13.3636363636364  C 18 13.5359848484848  17.9363839285714 13.6851325757576  17.8091517857143 13.8110795454545  C 17.6819196428571 13.9370265151515  17.53125 14  17.3571428571429 14  L 0.642857142857143 14  C 0.46875 14  0.318080357142857 13.9370265151515  0.190848214285714 13.8110795454545  C 0.0636160714285714 13.6851325757576  0 13.5359848484848  0 13.3636363636364  L 0 10.8181818181818  C 0 10.6458333333333  0.0636160714285714 10.4966856060606  0.190848214285714 10.3707386363636  C 0.318080357142857 10.2447916666667  0.46875 10.1818181818182  0.642857142857143 10  L 17.3571428571429 10  C 17.53125 10.1818181818182  17.6819196428571 10.2447916666667  17.8091517857143 10.3707386363636  Z M 17.8091517857143 5.27982954545455  C 17.9363839285714 5.40577651515151  18 5.55492424242424  18 5.72727272727273  L 18 8.27272727272727  C 18 8.44507575757576  17.9363839285714 8.59422348484848  17.8091517857143 8.72017045454545  C 17.6819196428571 8.84611742424242  17.53125 8.90909090909091  17.3571428571429 9  L 0.642857142857143 9  C 0.46875 8.90909090909091  0.318080357142857 8.84611742424242  0.190848214285714 8.72017045454545  C 0.0636160714285714 8.59422348484848  0 8.44507575757576  0 8.27272727272727  L 0 5.72727272727273  C 0 5.55492424242424  0.0636160714285714 5.40577651515151  0.190848214285714 5.27982954545455  C 0.318080357142857 5.15388257575757  0.46875 5.09090909090909  0.642857142857143 5  L 17.3571428571429 5  C 17.53125 5.09090909090909  17.6819196428571 5.15388257575757  17.8091517857143 5.27982954545455  Z M 17.8091517857143 0.188920454545455  C 17.9363839285714 0.314867424242422  18 0.464015151515151  18 0.636363636363636  L 18 3.18181818181818  C 18 3.35416666666667  17.9363839285714 3.50331439393939  17.8091517857143 3.62926136363636  C 17.6819196428571 3.75520833333333  17.53125 3.81818181818182  17.3571428571429 4  L 0.642857142857143 4  C 0.46875 3.81818181818182  0.318080357142857 3.75520833333333  0.190848214285714 3.62926136363636  C 0.0636160714285714 3.50331439393939  0 3.35416666666667  0 3.18181818181818  L 0 0.636363636363636  C 0 0.464015151515151  0.0636160714285714 0.314867424242422  0.190848214285714 0.188920454545455  C 0.318080357142857 0.0629734848484835  0.46875 0  0.642857142857143 0  L 17.3571428571429 0  C 17.53125 0  17.6819196428571 0.0629734848484835  17.8091517857143 0.188920454545455  Z " fill-rule="nonzero" fill="#00b8ff" stroke="none" transform="matrix(1 0 0 1 35 1087 )" />
  </g>
</svg>