<?xml version="1.0" encoding="utf-8"?>
<svg version="1.1" xmlns:xlink="http://www.w3.org/1999/xlink" width="50px" height="50px" xmlns="http://www.w3.org/2000/svg">
  <g transform="matrix(1 0 0 1 -163 -145 )">
    <path d="M 6.26220703125 9.38720703125  C 5.58675130208333 10.0626627604167  5.06184895833333 10.83984375  4.6875 11.71875  C 4.31315104166667 10.83984375  3.78824869791667 10.0626627604167  3.11279296875 9.38720703125  C 2.43733723958333 8.71175130208333  1.66015625 8.18684895833333  0.78125 7.8125  C 1.66015625 7.43815104166667  2.43733723958333 6.91324869791667  3.11279296875 6.23779296875  C 3.78824869791667 5.56233723958333  4.31315104166667 4.78515625  4.6875 3.90625  C 5.06184895833333 4.78515625  5.58675130208333 5.56233723958333  6.26220703125 6.23779296875  C 6.93766276041667 6.91324869791667  7.71484375 7.43815104166667  8.59375 7.8125  C 7.71484375 8.18684895833333  6.93766276041667 8.71175130208333  6.26220703125 9.38720703125  Z M 43.73779296875 15.61279296875  C 44.4132486979167 14.9373372395833  44.9381510416667 14.16015625  45.3125 13.28125  C 45.6868489583333 14.16015625  46.2117513020833 14.9373372395833  46.88720703125 15.61279296875  C 47.5626627604167 16.2882486979167  48.33984375 16.8131510416667  49.21875 17.1875  C 48.33984375 17.5618489583333  47.5626627604167 18.0867513020833  46.88720703125 18.76220703125  C 46.2117513020833 19.4376627604167  45.6868489583333 20.21484375  45.3125 21.09375  C 44.9381510416667 20.21484375  44.4132486979167 19.4376627604167  43.73779296875 18.76220703125  C 43.0623372395833 18.0867513020833  42.28515625 17.5618489583333  41.40625 17.1875  C 42.28515625 16.8131510416667  43.0623372395833 16.2882486979167  43.73779296875 15.61279296875  Z M 39.0869140625 10.9619140625  C 37.7522786458333 12.2965494791667  36.7024739583333 13.8509114583333  35.9375 15.625  C 35.1725260416667 13.8509114583333  34.1227213541667 12.2965494791667  32.7880859375 10.9619140625  C 31.4534505208333 9.62727864583333  29.8990885416667 8.57747395833333  28.125 7.8125  C 29.8990885416667 7.04752604166667  31.4534505208333 5.99772135416667  32.7880859375 4.6630859375  C 34.1227213541667 3.32845052083333  35.1725260416667 1.77408854166667  35.9375 0  C 36.7024739583333 1.77408854166667  37.7522786458333 3.32845052083333  39.0869140625 4.6630859375  C 40.4215494791667 5.99772135416667  41.9759114583333 7.04752604166667  43.75 7.8125  C 41.9759114583333 8.57747395833333  40.4215494791667 9.62727864583333  39.0869140625 10.9619140625  Z M 39.013671875 7.8125  C 37.8580729166667 6.91731770833333  36.8326822916667 5.89192708333333  35.9375 4.736328125  C 35.0260416666667 5.89192708333333  34.0006510416667 6.91731770833333  32.861328125 7.8125  C 34.0006510416667 8.72395833333333  35.0260416666667 9.74934895833333  35.9375 10.888671875  C 36.8326822916667 9.74934895833333  37.8580729166667 8.72395833333333  39.013671875 7.8125  Z M 19.78759765625 18.90869140625  C 19.2911783854167 19.07958984375  18.7744140625 19.1650390625  18.2373046875 19.1650390625  C 17.4723307291667 19.1650390625  16.7521158854167 19.00634765625  16.07666015625 18.68896484375  C 15.4012044270833 18.37158203125  14.8111979166667 17.9443359375  14.306640625 17.4072265625  C 13.8020833333333 16.8701171875  13.4073893229167 16.2516276041667  13.12255859375 15.5517578125  C 12.8377278645833 14.8518880208333  12.6953125 14.1276041666667  12.6953125 13.37890625  C 12.6953125 12.4186197916667  12.8946940104167 11.5193684895833  13.29345703125 10.68115234375  C 13.6922200520833 9.84293619791667  14.2252604166667 9.11051432291667  14.892578125 8.48388671875  C 15.5598958333333 7.85725911458333  16.3289388020833 7.36083984375  17.19970703125 6.99462890625  C 18.0704752604167 6.62841796875  18.9778645833333 6.4453125  19.921875 6.4453125  C 21.2890625 6.4453125  22.5056966145833 6.73421223958333  23.57177734375 7.31201171875  C 24.6378580729167 7.88981119791667  25.537109375 8.65071614583333  26.26953125 9.5947265625  C 27.001953125 10.5387369791667  27.5594075520833 11.6129557291667  27.94189453125 12.8173828125  C 28.3243815104167 14.0218098958333  28.515625 15.2506510416667  28.515625 16.50390625  C 28.515625 18.212890625  28.2389322916667 19.81201171875  27.685546875 21.30126953125  C 27.1321614583333 22.79052734375  26.3712565104167 24.1455078125  25.40283203125 25.3662109375  C 24.4344075520833 26.5869140625  23.291015625 27.6652018229167  21.97265625 28.60107421875  C 20.654296875 29.5369466145833  19.23828125 30.322265625  17.724609375 30.95703125  C 17.578125 31.0221354166667  17.3909505208333 31.0546875  17.1630859375 31.0546875  C 16.7887369791667 31.0546875  16.4713541666667 30.92041015625  16.2109375 30.65185546875  C 15.9505208333333 30.38330078125  15.8203125 30.0618489583333  15.8203125 29.6875  C 15.8203125 29.1015625  16.0970052083333 28.6783854166667  16.650390625 28.41796875  C 17.8873697916667 27.83203125  19.03076171875 27.2013346354167  20.08056640625 26.52587890625  C 21.13037109375 25.8504231770833  22.0499674479167 25.0773111979167  22.83935546875 24.20654296875  C 23.6287434895833 23.3357747395833  24.2716471354167 22.3429361979167  24.76806640625 21.22802734375  C 25.2644856770833 20.1131184895833  25.5859375 18.8313802083333  25.732421875 17.3828125  C 25.7486979166667 17.2200520833333  25.7609049479167 17.0613606770833  25.76904296875 16.90673828125  C 25.7771809895833 16.7521158854167  25.78125 16.5934244791667  25.78125 16.4306640625  C 25.78125 15.5843098958333  25.6591796875 14.7298177083333  25.4150390625 13.8671875  C 25.1708984375 13.0045572916667  24.8046875 12.2233072916667  24.31640625 11.5234375  C 23.828125 10.8235677083333  23.2177734375 10.2579752604167  22.4853515625 9.82666015625  C 21.7529296875 9.39534505208333  20.8984375 9.1796875  19.921875 9.1796875  C 19.3684895833333 9.1796875  18.8232421875 9.28955078125  18.2861328125 9.50927734375  C 17.7490234375 9.72900390625  17.2688802083333 10.0260416666667  16.845703125 10.400390625  C 16.4225260416667 10.7747395833333  16.0807291666667 11.21826171875  15.8203125 11.73095703125  C 15.5598958333333 12.24365234375  15.4296875 12.79296875  15.4296875 13.37890625  C 15.4296875 13.7532552083333  15.5029296875 14.12353515625  15.6494140625 14.48974609375  C 15.7958984375 14.85595703125  15.9952799479167 15.1814778645833  16.24755859375 15.46630859375  C 16.4998372395833 15.7511393229167  16.8009440104167 15.9830729166667  17.15087890625 16.162109375  C 17.5008138020833 16.3411458333333  17.87109375 16.4306640625  18.26171875 16.4306640625  C 18.65234375 16.4306640625  18.9615885416667 16.36962890625  19.189453125 16.24755859375  C 19.4173177083333 16.12548828125  19.6044921875 15.966796875  19.7509765625 15.771484375  C 19.8974609375 15.576171875  20.0154622395833 15.3727213541667  20.10498046875 15.1611328125  C 20.1944986979167 14.9495442708333  20.2921549479167 14.74609375  20.39794921875 14.55078125  C 20.5037434895833 14.35546875  20.64208984375 14.19677734375  20.81298828125 14.07470703125  C 20.98388671875 13.95263671875  21.2158203125 13.8916015625  21.5087890625 13.8916015625  C 21.8831380208333 13.8916015625  22.2086588541667 14.0299479166667  22.4853515625 14.306640625  C 22.7620442708333 14.5833333333333  22.900390625 14.9088541666667  22.900390625 15.283203125  C 22.900390625 15.3645833333333  22.8841145833333 15.4703776041667  22.8515625 15.6005859375  C 22.7213541666667 16.1214192708333  22.5056966145833 16.6015625  22.20458984375 17.041015625  C 21.9034830729167 17.48046875  21.5494791666667 17.85888671875  21.142578125 18.17626953125  C 20.7356770833333 18.49365234375  20.2840169270833 18.73779296875  19.78759765625 18.90869140625  Z M 30.7861328125 21.875  L 39.7216796875 21.875  L 46.4111328125 28.5888671875  L 44.2138671875 30.7861328125  L 40 27.2216796875  L 40 50  L 7 50  L 7 27.2216796875  L 2.6611328125 30.7861328125  L 0.4638671875 28.5888671875  L 7.1533203125 22  L 20.703125 22  C 20.1334635416667 22.5423177083333  19.5027669270833 23.13232421875  18.81103515625 23.64501953125  C 18.1193033854167 24.15771484375  17.3828125 24.609375  16.6015625 25  L 10 25  L 10 46  L 37 46  L 37 25  L 29.4189453125 25  C 29.6956380208333 24.4954427083333  29.9479166666667 23.9827473958333  30.17578125 23.4619140625  C 30.4036458333333 22.9410807291667  30.6070963541667 22.412109375  30.7861328125 21.875  Z " fill-rule="nonzero" fill="#00b8ff" stroke="none" transform="matrix(1 0 0 1 163 145 )" />
  </g>
</svg>