<?xml version="1.0" encoding="utf-8"?>
<svg version="1.1" xmlns:xlink="http://www.w3.org/1999/xlink" width="34px" height="34px" xmlns="http://www.w3.org/2000/svg">
  <g transform="matrix(1 0 0 1 -16 -1231 )">
    <path d="M 23.7544642857143 29.9112723214286  C 25.8415178571429 28.8045014880952  27.5554315476191 27.3024553571429  28.8962053571429 25.4051339285714  C 28.6179315476191 23.444568452381  28.0645461309524 21.8160342261905  27.2360491071429 20.51953125  C 26.4075520833333 19.2230282738095  25.2406994047619 18.4735863095238  23.7354910714286 18.2712053571429  C 22.8880208333333 19.2072172619048  21.8792782738095 19.9376860119048  20.7092633928571 20.4626116071429  C 19.5392485119048 20.987537202381  18.3028273809524 21.25  17 21.25  C 15.6971726190476 21.25  14.4607514880952 20.987537202381  13.2907366071429 20.4626116071429  C 12.1207217261905 19.9376860119048  11.1119791666667 19.2072172619048  10.2645089285714 18.2712053571429  C 8.75930059523809 18.4735863095238  7.59244791666667 19.2230282738095  6.76395089285714 20.51953125  C 5.93545386904762 21.8160342261905  5.38206845238095 23.444568452381  5.10379464285714 25.4051339285714  C 6.44456845238095 27.3024553571429  8.15848214285714 28.8045014880952  10.2455357142857 29.9112723214286  C 12.3325892857143 31.0180431547619  14.5840773809524 31.5714285714286  17 31.5714285714286  C 19.4159226190476 31.5714285714286  21.6674107142857 31.0180431547619  23.7544642857143 29.9112723214286  Z M 22.1512276785714 17.2940848214286  C 23.57421875 15.87109375  24.2857142857143 14.1540178571429  24.2857142857143 12.1428571428571  C 24.2857142857143 10.1316964285714  23.57421875 8.41462053571429  22.1512276785714 6.99162946428571  C 20.7282366071429 5.56863839285714  19.0111607142857 4.85714285714286  17 4.85714285714286  C 14.9888392857143 4.85714285714286  13.2717633928571 5.56863839285714  11.8487723214286 6.99162946428571  C 10.42578125 8.41462053571429  9.71428571428571 10.1316964285714  9.71428571428571 12.1428571428571  C 9.71428571428571 14.1540178571429  10.42578125 15.87109375  11.8487723214286 17.2940848214286  C 13.2717633928571 18.7170758928571  14.9888392857143 19.4285714285714  17 19.4285714285714  C 19.0111607142857 19.4285714285714  20.7282366071429 18.7170758928571  22.1512276785714 17.2940848214286  Z M 32.6529017857143 10.3973214285714  C 33.5509672619048 12.4970238095238  34 14.6979166666667  34 17  C 34 19.3020833333333  33.5509672619048 21.4998139880952  32.6529017857143 23.5931919642857  C 31.7548363095238 25.6865699404762  30.550037202381 27.495349702381  29.0385044642857 29.01953125  C 27.5269717261905 30.543712797619  25.7213541666667 31.7548363095238  23.6216517857143 32.6529017857143  C 21.5219494047619 33.5509672619048  19.3147321428571 34  17 34  C 14.6979166666667 34  12.4970238095238 33.5509672619048  10.3973214285714 32.6529017857143  C 8.29761904761905 31.7548363095238  6.48883928571429 30.546875  4.97098214285714 29.0290178571429  C 3.453125 27.5111607142857  2.24516369047619 25.702380952381  1.34709821428571 23.6026785714286  C 0.449032738095238 21.5029761904762  0 19.3020833333333  0 17  C 0 14.6979166666667  0.449032738095238 12.4970238095238  1.34709821428571 10.3973214285714  C 2.24516369047619 8.29761904761904  3.453125 6.48883928571429  4.97098214285714 4.97098214285714  C 6.48883928571429 3.453125  8.29761904761905 2.24516369047619  10.3973214285714 1.34709821428571  C 12.4970238095238 0.449032738095238  14.6979166666667 0  17 0  C 19.3020833333333 0  21.5029761904762 0.449032738095238  23.6026785714286 1.34709821428571  C 25.702380952381 2.24516369047619  27.5111607142857 3.453125  29.0290178571429 4.97098214285714  C 30.546875 6.48883928571429  31.7548363095238 8.29761904761904  32.6529017857143 10.3973214285714  Z " fill-rule="nonzero" fill="#000000" stroke="none" transform="matrix(1 0 0 1 16 1231 )" />
  </g>
</svg>