<?xml version="1.0" encoding="utf-8"?>
<svg version="1.1" xmlns:xlink="http://www.w3.org/1999/xlink" width="12px" height="13px" xmlns="http://www.w3.org/2000/svg">
  <g transform="matrix(1 0 0 1 -1255 -1620 )">
    <path d="M 1.74348212389381 8.32891477876106  C 1.11563267256637 6.61536867256637  1.42459284955752 4.72723946902655  2.45132930973451 3.36806185840708  L 2.44139851752212 4.12772019469027  L 3.85323706619469 4.15999588141593  L 3.90675391221239 0.78966995221239  L 0.796248779469027 0.732291633628319  L 0.767008082123894 2.26178339469027  L 1.45389540955752 2.27194425336283  C 0.0321842591150439 4.06031168699115  -0.41031733380531 6.59750443035398  0.430463940530973 8.89370823566372  C 1.35072036530973 11.4076436338938  3.57246535646018 12.9891431029204  5.98454394053097 12.9891431029204  C 6.39170755115044 12.9891431029204  6.80439360424779 12.9437178356637  7.21707965734513 12.8510770976106  L 6.92852850690266 11.3532581684071  C 4.74652815292035 11.8457630533628  2.56551647150442 10.5744737259292  1.7435058520354 8.3288852480531  Z M 11.5689100884956 4.10556451327434  C 10.4930648495575 1.1685596460177  7.6390778761062 -0.495411592920354  4.78336778761062 0.148908672566371  L 5.07136810619469 1.64672760176991  C 7.25336846017699 1.15422271681416  9.43438014159292 2.42551204424779  10.2563907610619 4.66987645132743  C 10.8847910442478 6.38464662831858  10.5752800353982 8.27461193805309  9.54744191150443 9.63363653982301  L 9.55626934513274 8.86739882300885  L 8.14387996460177 8.83870966371681  L 8.09588132389381 12.2084235575221  L 11.2063864566372 12.2604220849558  L 11.2328687575221 10.7309303238938  L 10.550953040708 10.7213672707965  C 11.968850739823 8.9342239079646  12.4096574654867 6.40009134159292  11.5688620672566 4.10557063362832  Z " fill-rule="nonzero" fill="#ffffff" stroke="none" transform="matrix(1 0 0 1 1255 1620 )" />
  </g>
</svg>