<?xml version="1.0" encoding="utf-8"?>
<svg version="1.1" xmlns:xlink="http://www.w3.org/1999/xlink" width="20px" height="20px" xmlns="http://www.w3.org/2000/svg">
  <g transform="matrix(1 0 0 1 -380 -2673 )">
    <path d="M 11.298828125 0.244140625  C 11.884765625 0.0813802083333333  12.4934895833333 0  13.125 0  C 13.7565104166667 0  14.365234375 0.0813802083333333  14.951171875 0.244140625  C 15.537109375 0.406901041666667  16.083984375 0.638020833333333  16.591796875 0.9375  C 17.099609375 1.23697916666667  17.5634765625 1.5966796875  17.9833984375 2.0166015625  C 18.4033203125 2.4365234375  18.7630208333333 2.900390625  19.0625 3.408203125  C 19.3619791666667 3.916015625  19.5930989583333 4.462890625  19.755859375 5.048828125  C 19.9186197916667 5.634765625  20 6.24348958333333  20 6.875  C 20 7.50651041666667  19.9186197916667 8.115234375  19.755859375 8.701171875  C 19.5930989583333 9.287109375  19.3619791666667 9.833984375  19.0625 10.341796875  C 18.7630208333333 10.849609375  18.4033203125 11.3134765625  17.9833984375 11.7333984375  C 17.5634765625 12.1533203125  17.099609375 12.5130208333333  16.591796875 12.8125  C 16.083984375 13.1119791666667  15.537109375 13.3430989583333  14.951171875 13.505859375  C 14.365234375 13.6686197916667  13.7565104166667 13.75  13.125 13.75  C 12.3111979166667 13.75  11.5315755208333 13.61328125  10.7861328125 13.33984375  C 10.0406901041667 13.06640625  9.35546875 12.6725260416667  8.73046875 12.158203125  L 1.064453125 19.814453125  C 0.940755208333333 19.9381510416667  0.794270833333333 20  0.625 20  C 0.455729166666667 20  0.309244791666667 19.9381510416667  0.185546875 19.814453125  C 0.0618489583333333 19.6907552083333  0 19.5442708333333  0 19.375  C 0 19.2057291666667  0.0618489583333333 19.0592447916667  0.185546875 18.935546875  L 7.841796875 11.26953125  C 7.32747395833333 10.64453125  6.93359375 9.95930989583333  6.66015625 9.2138671875  C 6.38671875 8.46842447916667  6.25 7.68880208333333  6.25 6.875  C 6.25 6.24348958333333  6.33138020833333 5.634765625  6.494140625 5.048828125  C 6.65690104166667 4.462890625  6.88802083333333 3.916015625  7.1875 3.408203125  C 7.48697916666667 2.900390625  7.8466796875 2.4365234375  8.2666015625 2.0166015625  C 8.6865234375 1.5966796875  9.150390625 1.23697916666667  9.658203125 0.9375  C 10.166015625 0.638020833333333  10.712890625 0.406901041666667  11.298828125 0.244140625  Z M 10.9375 12.0556640625  C 11.62109375 12.3518880208333  12.3502604166667 12.5  13.125 12.5  C 13.8997395833333 12.5  14.62890625 12.3518880208333  15.3125 12.0556640625  C 15.99609375 11.7594401041667  16.591796875 11.357421875  17.099609375 10.849609375  C 17.607421875 10.341796875  18.0094401041667 9.74609375  18.3056640625 9.0625  C 18.6018880208333 8.37890625  18.75 7.64973958333333  18.75 6.875  C 18.75 6.10026041666667  18.6018880208333 5.37109375  18.3056640625 4.6875  C 18.0094401041667 4.00390625  17.607421875 3.408203125  17.099609375 2.900390625  C 16.591796875 2.392578125  15.99609375 1.99055989583333  15.3125 1.6943359375  C 14.62890625 1.39811197916667  13.8997395833333 1.25  13.125 1.25  C 12.3502604166667 1.25  11.62109375 1.39811197916667  10.9375 1.6943359375  C 10.25390625 1.99055989583333  9.658203125 2.392578125  9.150390625 2.900390625  C 8.642578125 3.408203125  8.24055989583333 4.00390625  7.9443359375 4.6875  C 7.64811197916667 5.37109375  7.5 6.10026041666667  7.5 6.875  C 7.5 7.64973958333333  7.64811197916667 8.37890625  7.9443359375 9.0625  C 8.24055989583333 9.74609375  8.642578125 10.341796875  9.150390625 10.849609375  C 9.658203125 11.357421875  10.25390625 11.7594401041667  10.9375 12.0556640625  Z " fill-rule="nonzero" fill="#333333" stroke="none" transform="matrix(1 0 0 1 380 2673 )" />
  </g>
</svg>