<?xml version="1.0" encoding="utf-8"?>
<svg version="1.1" xmlns:xlink="http://www.w3.org/1999/xlink" width="15px" height="13px" xmlns="http://www.w3.org/2000/svg">
  <g transform="matrix(1 0 0 1 -134 -295 )">
    <path d="M 12.945556640625 3.11931295955882  C 13.187255859375 3.28609451593137  13.41552734375 3.47652420343137  13.63037109375 3.69060202205882  C 14.07470703125 4.14365042892157  14.4140625 4.66017539828431  14.6484375 5.24017693014706  C 14.8828125 5.8201784620098  15 6.43129595588235  15 7.07352941176471  C 15 7.71576286764706  14.8828125 8.32563572303922  14.6484375 8.90314797794118  C 14.4140625 9.48066023284314  14.07470703125 9.99594056372549  13.63037109375 10.4489889705882  C 13.18603515625 10.902037377451  12.679443359375 11.2492915134804  12.110595703125 11.4907513786765  C 11.541748046875 11.7322112438726  10.9423828125 11.8529411764706  10.3125 11.8529411764706  C 9.794921875 11.8529411764706  9.298095703125 11.7720396752451  8.822021484375 11.6102366727941  C 8.345947265625 11.4484336703431  7.9052734375 11.2107077205882  7.5 10.8970588235294  L 5.625 12.8088235294118  L 0 7.07352941176471  L 6.5625 0.382352941176471  L 12.1875 0.382352941176471  L 12.1875 2.68991268382353  C 12.451171875 2.80939797794118  12.703857421875 2.95253140318628  12.945556640625 3.11931295955882  Z M 1.32568359375 7.07352941176471  L 5.625 11.4571461397059  L 11.25 5.72185202205882  L 11.25 3.36948529411765  C 11.0986328125 3.3296568627451  10.94482421875 3.29978553921569  10.78857421875 3.27987132352941  C 10.63232421875 3.25995710784314  10.4736328125 3.25  10.3125 3.25  L 9.84375 3.25  C 9.716796875 3.25  9.60693359375 3.2027037377451  9.51416015625 3.10811121323529  C 9.42138671875 3.01351868872549  9.375 2.9015012254902  9.375 2.77205882352941  C 9.375 2.64261642156863  9.42138671875 2.53059895833333  9.51416015625 2.43600643382353  C 9.60693359375 2.34141390931373  9.716796875 2.29411764705882  9.84375 2.29411764705882  L 10.3125 2.29411764705882  C 10.6396484375 2.29411764705882  10.9521484375 2.32647824754902  11.25 2.39119944852941  L 11.25 1.33823529411765  L 6.95068359375 1.33823529411765  L 1.32568359375 7.07352941176471  Z M 9.1845703125 10.7215647977941  C 9.5458984375 10.838560814951  9.921875 10.8970588235294  10.3125 10.8970588235294  C 10.830078125 10.8970588235294  11.31591796875 10.7962431066176  11.77001953125 10.5946116727941  C 12.22412109375 10.3929802389706  12.620849609375 10.1191597732843  12.960205078125 9.7731502757353  C 13.299560546875 9.42714077818628  13.568115234375 9.02263327205882  13.765869140625 8.55962775735294  C 13.963623046875 8.09662224264706  14.0625 7.60125612745098  14.0625 7.07352941176471  C 14.0625 6.72005208333333  14.017333984375 6.38026577818628  13.927001953125 6.05417049632353  C 13.836669921875 5.72807521446078  13.709716796875 5.42313878676471  13.546142578125 5.13936121323529  C 13.382568359375 4.85558363970588  13.184814453125 4.59669883578431  12.952880859375 4.36270680147059  C 12.720947265625 4.12871476715686  12.4658203125 3.92957261029412  12.1875 3.76528033088235  L 12.1875 6.11764705882353  L 8.173828125 10.2100183823529  C 8.486328125 10.4340533088235  8.8232421875 10.6045687806373  9.1845703125 10.7215647977941  Z " fill-rule="nonzero" fill="#666666" stroke="none" transform="matrix(1 0 0 1 134 295 )" />
  </g>
</svg>