<?xml version="1.0" encoding="utf-8"?>
<svg version="1.1" xmlns:xlink="http://www.w3.org/1999/xlink" width="15px" height="15px" xmlns="http://www.w3.org/2000/svg">
  <g transform="matrix(1 0 0 1 -134 -314 )">
    <path d="M 9.521484375 0.4248046875  L 14.5751953125 5.478515625  C 14.4140625 5.6396484375  14.256591796875 5.787353515625  14.102783203125 5.921630859375  C 13.948974609375 6.055908203125  13.790283203125 6.16943359375  13.626708984375 6.26220703125  C 13.463134765625 6.35498046875  13.284912109375 6.427001953125  13.092041015625 6.478271484375  C 12.899169921875 6.529541015625  12.6806640625 6.55517578125  12.4365234375 6.55517578125  C 12.2705078125 6.55517578125  12.11181640625 6.54052734375  11.96044921875 6.51123046875  L 9.1845703125 9.287109375  C 9.248046875 9.47265625  9.29443359375 9.6630859375  9.32373046875 9.8583984375  C 9.35302734375 10.0537109375  9.36767578125 10.2490234375  9.36767578125 10.4443359375  C 9.36767578125 10.76171875  9.3359375 11.0498046875  9.2724609375 11.30859375  C 9.208984375 11.5673828125  9.117431640625 11.8115234375  8.997802734375 12.041015625  C 8.878173828125 12.2705078125  8.73291015625 12.489013671875  8.56201171875 12.696533203125  C 8.39111328125 12.904052734375  8.1982421875 13.115234375  7.9833984375 13.330078125  L 5.15625 10.5029296875  L 0.99609375 14.67041015625  L 0 15  L 0.32958984375 14.00390625  L 4.4970703125 9.84375  L 1.669921875 7.0166015625  L 1.99951171875 6.68701171875  C 2.34130859375 6.34521484375  2.733154296875 6.083984375  3.175048828125 5.9033203125  C 3.616943359375 5.72265625  4.07958984375 5.63232421875  4.56298828125 5.63232421875  C 4.96337890625 5.63232421875  5.3466796875 5.693359375  5.712890625 5.8154296875  L 8.48876953125 3.03955078125  C 8.45947265625 2.88818359375  8.44482421875 2.7294921875  8.44482421875 2.5634765625  C 8.44482421875 2.32421875  8.470458984375 2.108154296875  8.521728515625 1.915283203125  C 8.572998046875 1.722412109375  8.64501953125 1.54296875  8.73779296875 1.376953125  C 8.83056640625 1.2109375  8.944091796875 1.051025390625  9.078369140625 0.897216796875  C 9.212646484375 0.743408203125  9.3603515625 0.5859375  9.521484375 0.4248046875  Z M 12.052001953125 5.570068359375  C 12.171630859375 5.601806640625  12.2998046875 5.61767578125  12.4365234375 5.61767578125  C 12.705078125 5.61767578125  12.958984375 5.55419921875  13.1982421875 5.42724609375  L 9.57275390625 1.8017578125  C 9.44580078125 2.041015625  9.38232421875 2.294921875  9.38232421875 2.5634765625  C 9.38232421875 2.7001953125  9.398193359375 2.828369140625  9.429931640625 2.947998046875  C 9.461669921875 3.067626953125  9.4970703125 3.19091796875  9.5361328125 3.31787109375  L 5.9326171875 6.9140625  C 5.810546875 6.865234375  5.69580078125 6.81884765625  5.58837890625 6.77490234375  C 5.48095703125 6.73095703125  5.37353515625 6.6943359375  5.26611328125 6.6650390625  C 5.15869140625 6.6357421875  5.047607421875 6.612548828125  4.932861328125 6.595458984375  C 4.818115234375 6.578369140625  4.69482421875 6.56982421875  4.56298828125 6.56982421875  C 4.28466796875 6.56982421875  4.014892578125 6.610107421875  3.753662109375 6.690673828125  C 3.492431640625 6.771240234375  3.24951171875 6.8896484375  3.02490234375 7.0458984375  L 7.9541015625 11.97509765625  C 8.1103515625 11.75048828125  8.22998046875 11.507568359375  8.31298828125 11.246337890625  C 8.39599609375 10.985107421875  8.4375 10.7177734375  8.4375 10.4443359375  C 8.4375 10.3125  8.428955078125 10.189208984375  8.411865234375 10.074462890625  C 8.394775390625 9.959716796875  8.370361328125 9.847412109375  8.338623046875 9.737548828125  C 8.306884765625 9.627685546875  8.26904296875 9.51904296875  8.22509765625 9.41162109375  C 8.18115234375 9.30419921875  8.134765625 9.189453125  8.0859375 9.0673828125  L 11.68212890625 5.4638671875  C 11.80908203125 5.5029296875  11.932373046875 5.538330078125  12.052001953125 5.570068359375  Z " fill-rule="nonzero" fill="#666666" stroke="none" transform="matrix(1 0 0 1 134 314 )" />
  </g>
</svg>