<?xml version="1.0" encoding="utf-8"?>
<svg version="1.1" xmlns:xlink="http://www.w3.org/1999/xlink" width="28px" height="28px" xmlns="http://www.w3.org/2000/svg">
  <g transform="matrix(1 0 0 1 -16 -80 )">
    <path d="M 13.125 22.75  L 23.625 22.75  C 23.8619791666667 22.75  24.0670572916667 22.8365885416667  24.240234375 23.009765625  C 24.4134114583333 23.1829427083333  24.5 23.3880208333333  24.5 23.625  C 24.5 23.8619791666667  24.4134114583333 24.0670572916667  24.240234375 24.240234375  C 24.0670572916667 24.4134114583333  23.8619791666667 24.5  23.625 24  L 13.125 24  C 12.8880208333333 24.5  12.6829427083333 24.4134114583333  12.509765625 24.240234375  C 12.3365885416667 24.0670572916667  12.25 23.8619791666667  12.25 23.625  C 12.25 23.3880208333333  12.3365885416667 23.1829427083333  12.509765625 23.009765625  C 12.6829427083333 22.8365885416667  12.8880208333333 22.75  13.125 22.75  Z M 14.875 26.25  L 21.875 26.25  C 22.1119791666667 26.25  22.3170572916667 26.3365885416667  22.490234375 26.509765625  C 22.6634114583333 26.6829427083333  22.75 26.8880208333333  22.75 27.125  C 22.75 27.3619791666667  22.6634114583333 27.5670572916667  22.490234375 27.740234375  C 22.3170572916667 27.9134114583333  22.1119791666667 28  21.875 28  L 14.875 28  C 14.6380208333333 28  14.4329427083333 27.9134114583333  14.259765625 27.740234375  C 14.0865885416667 27.5670572916667  14 27.3619791666667  14 27.125  C 14 26.8880208333333  14.0865885416667 26.6829427083333  14.259765625 26.509765625  C 14.4329427083333 26.3365885416667  14.6380208333333 26.25  14.875 26.25  Z M 24.185546875 17.1376953125  C 24.6139322916667 17.7802734375  24.9283854166667 18.484375  25.12890625 19.25  L 28 19.25  L 28 21  L 7.341796875 21  C 7.25065104166667 21.5833333333333  7.1845703125 22.1666666666667  7.1435546875 22.75  C 7.1025390625 23.3333333333333  7.07063802083333 23.9143880208333  7.0478515625 24.4931640625  C 7.02506510416667 25.0719401041667  7.013671875 25.6529947916667  7.013671875 26.236328125  C 7.013671875 26.8196614583333  7.00911458333333 27.4075520833333  7 28  L 1.75 28  L 1.75 25.361328125  C 1.75 24.623046875  1.77734375 23.8938802083333  1.83203125 23.173828125  C 1.88671875 22.4537760416667  1.96419270833333 21.7291666666667  2.064453125 21  L 0 21  L 0 19.25  L 2.3515625 19.25  C 2.80729166666667 17.0169270833333  3.49544270833333 14.8704427083333  4.416015625 12.810546875  C 5.33658854166667 10.7506510416667  6.47591145833333 8.8046875  7.833984375 6.97265625  C 6.50325520833333 6.92708333333333  5.28190104166667 6.64680989583333  4.169921875 6.1318359375  C 3.05794270833333 5.61686197916667  2.04166666666667 4.88997395833333  1.12109375 3.951171875  L 0.505859375 3.322265625  L 1.1484375 2.720703125  C 2.09635416666667 1.83658854166667  3.13541666666667 1.16438802083333  4.265625 0.7041015625  C 5.39583333333333 0.243815104166667  6.61263020833333 0.013671875  7.916015625 0.013671875  C 9.337890625 0.013671875  10.6412760416667 0.2802734375  11.826171875 0.8134765625  C 13.0110677083333 1.3466796875  14.1002604166667 2.11002604166667  15.09375 3.103515625  C 15.7955729166667 3.12174479166667  16.474609375 3.23111979166667  17.130859375 3.431640625  C 17.787109375 3.63216145833333  18.3977864583333 3.90559895833333  18.962890625 4.251953125  C 19.5279947916667 4.59830729166667  20.04296875 5.00846354166667  20.5078125 5.482421875  C 20.97265625 5.95638020833333  21.3714192708333 6.48046875  21.7041015625 7.0546875  C 22.0367838541667 7.62890625  22.2942708333333 8.244140625  22.4765625 8.900390625  C 22.6588541666667 9.556640625  22.75 10.240234375  22.75 10.951171875  L 22.75 11.826171875  L 21.875 11.826171875  C 20.671875 11.826171875  19.5439453125 11.5686848958333  18.4912109375 11.0537109375  C 17.4384765625 10.5387369791667  16.5338541666667 9.81640625  15.77734375 8.88671875  C 15.0846354166667 10.14453125  14.2141927083333 11.1790364583333  13.166015625 11.990234375  C 12.1178385416667 12.8014322916667  10.8919270833333 13.37109375  9.48828125 13.69921875  C 9.09635416666667 14.6015625  8.74772135416667 15.5130208333333  8.4423828125 16.43359375  C 8.13704427083333 17.3541666666667  7.87955729166667 18.29296875  7.669921875 19.25  L 11.62109375 19.25  C 11.8216145833333 18.484375  12.1360677083333 17.7802734375  12.564453125 17.1376953125  C 12.9928385416667 16.4951171875  13.5055338541667 15.94140625  14.1025390625 15.4765625  C 14.6995442708333 15.01171875  15.3626302083333 14.6494140625  16.091796875 14.3896484375  C 16.8209635416667 14.1298828125  17.58203125 14  18.375 14  C 19.16796875 14  19.9290364583333 14.1298828125  20.658203125 14.3896484375  C 21.3873697916667 14.6494140625  22.0504557291667 15.01171875  22.6474609375 15.4765625  C 23.2444661458333 15.94140625  23.7571614583333 16.4951171875  24.185546875 17.1376953125  Z M 18.388671875 5.9541015625  C 17.9420572916667 5.6396484375  17.4544270833333 5.38671875  16.92578125 5.1953125  C 16.87109375 5.78776041666667  16.7526041666667 6.38932291666667  16.5703125 7  C 17.03515625 7.80208333333333  17.6481119791667 8.46744791666667  18.4091796875 8.99609375  C 19.1702473958333 9.52473958333333  20.0110677083333 9.86197916666667  20.931640625 10.0078125  C 20.8404947916667 9.45182291666667  20.6809895833333 8.92545572916667  20.453125 8.4287109375  C 20.2252604166667 7.93196614583333  19.9358723958333 7.47395833333333  19.5849609375 7.0546875  C 19.2340494791667 6.63541666666667  18.8352864583333 6.2685546875  18.388671875 5.9541015625  Z M 15.0048828125 6.234375  C 15.0914713541667 5.92447916666667  15.1575520833333 5.61002604166667  15.203125 5.291015625  C 14.2734375 5.36393229166667  13.3961588541667 5.59407552083333  12.5712890625 5.9814453125  C 11.7464192708333 6.36881510416667  11.0126953125 6.8701171875  10.3701171875 7.4853515625  C 9.7275390625 8.1005859375  9.1943359375 8.81380208333333  8.7705078125 9.625  C 8.3466796875 10.4361979166667  8.07096354166667 11.2975260416667  7.943359375 12.208984375  C 8.71809895833333 12.1451822916667  9.45182291666667 11.9788411458333  10.14453125 11.7099609375  C 10.8372395833333 11.4410807291667  11.470703125 11.087890625  12.044921875 10.650390625  C 12.619140625 10.212890625  13.1295572916667 9.7001953125  13.576171875 9.1123046875  C 14.0227864583333 8.5244140625  14.3919270833333 7.87044270833333  14.68359375 7.150390625  C 14.8111979166667 6.849609375  14.9182942708333 6.54427083333333  15.0048828125 6.234375  Z M 5.3525390625 2.173828125  C 4.52766927083333 2.447265625  3.76432291666667 2.84830729166667  3.0625 3.376953125  C 3.79166666666667 3.978515625  4.59830729166667 4.43880208333333  5.482421875 4.7578125  C 6.36653645833333 5.07682291666667  7.28255208333333 5.236328125  8.23046875 5.236328125  C 9.11458333333333 5.236328125  9.96907552083333 5.099609375  10.7939453125 4.826171875  C 11.6188151041667 4.552734375  12.3821614583333 4.15169270833333  13.083984375 3.623046875  C 12.3548177083333 3.021484375  11.5481770833333 2.56119791666667  10.6640625 2.2421875  C 9.77994791666667 1.92317708333333  8.86393229166667 1.763671875  7.916015625 1.763671875  C 7.03190104166667 1.763671875  6.17740885416667 1.900390625  5.3525390625 2.173828125  Z M 6.3984375 17.0078125  C 6.671875 16.0143229166667  7.00911458333333 15.0026041666667  7.41015625 13.97265625  C 7.33723958333333 13.9908854166667  7.26432291666667 14  7.19140625 14  L 6.97265625 14  C 6.82682291666667 14  6.68098958333333 13.9977213541667  6.53515625 13.9931640625  C 6.38932291666667 13.9886067708333  6.24348958333333 13.9817708333333  6.09765625 13.97265625  L 6.09765625 13.330078125  C 5.61458333333333 14.4055989583333  5.20670572916667 15.462890625  4.8740234375 16.501953125  C 4.54134114583333 17.541015625  4.2724609375 18.5891927083333  4.0673828125 19.646484375  C 3.8623046875 20.7037760416667  3.71647135416667 21.7770182291667  3.6298828125 22.8662109375  C 3.54329427083333 23.9554036458333  3.5 25.0833333333333  3.5 26.25  L 5.25 26.25  C 5.25 25.1471354166667  5.28873697916667 24.0807291666667  5.3662109375 23.05078125  C 5.44368489583333 22.0208333333333  5.56673177083333 21.0045572916667  5.7353515625 20.001953125  C 5.90397135416667 18.9993489583333  6.125 18.0013020833333  6.3984375 17.0078125  Z M 14.21875 17.8212890625  C 13.890625 18.2542317708333  13.6354166666667 18.73046875  13.453125 19.25  L 23.296875 19.25  C 23.1145833333333 18.73046875  22.859375 18.2542317708333  22.53125 17.8212890625  C 22.203125 17.3883463541667  21.8225911458333 17.0192057291667  21.3896484375 16.7138671875  C 20.9567057291667 16.4085286458333  20.4850260416667 16.1715494791667  19.974609375 16.0029296875  C 19.4641927083333 15.8343098958333  18.9309895833333 15.75  18.375 15.75  C 17.8190104166667 15.75  17.2858072916667 15.8343098958333  16.775390625 16.0029296875  C 16.2649739583333 16.1715494791667  15.7932942708333 16.4085286458333  15.3603515625 16.7138671875  C 14.9274088541667 17.0192057291667  14.546875 17.3883463541667  14.21875 17.8212890625  Z " fill-rule="nonzero" fill="#000000" stroke="none" transform="matrix(1 0 0 1 16 80 )" />
  </g>
</svg>