<?xml version="1.0" encoding="utf-8"?>
<svg version="1.1" xmlns:xlink="http://www.w3.org/1999/xlink" width="28px" height="25px" xmlns="http://www.w3.org/2000/svg">
  <g transform="matrix(1 0 0 1 -47 -512 )">
    <path d="M 22.490234375 4.42437065972222  C 22.6634114583333 4.59617332175926  22.75 4.79962384259259  22.75 5.03472222222222  C 22.75 5.26982060185185  22.6634114583333 5.47327112268519  22.490234375 5.64507378472222  C 22.3170572916667 5.81687644675926  22.1119791666667 5.90277777777778  21.875 5.90277777777778  C 21.6380208333333 5.90277777777778  21.4329427083333 5.81687644675926  21.259765625 5.64507378472222  C 21.0865885416667 5.47327112268519  21 5.26982060185185  21 5.03472222222222  C 21 4.79962384259259  21.0865885416667 4.59617332175926  21.259765625 4.42437065972222  C 21.4329427083333 4.25256799768519  21.6380208333333 4.16666666666667  21.875 4.16666666666667  C 22.1119791666667 4.16666666666667  22.3170572916667 4.25256799768519  22.490234375 4.42437065972222  Z M 0 1  L 28 1  L 28 9.36143663194444  C 27.7447916666667 9.10825376157408  27.4690755208333 8.87993706597223  27.1728515625 8.67648654513889  C 26.8766276041667 8.47303602430556  26.5690104166667 8.28540943287037  26.25 8.11360677083333  L 26.25 2.43055555555556  L 1.75 2.43055555555556  L 1.75 11.6129557291667  L 7.875 5.55013020833333  L 15.4765625 13.0777994791667  C 15.3671875 13.5660807291667  15.3125 14.0679253472222  15.3125 14.5833333333333  C 15.3125 14.7280092592593  15.3216145833333 14.8726851851852  15.33984375 15.0173611111111  L 15.39453125 15.4513888888889  L 7.875 7.99153645833333  L 1.75 14.0814887152778  L 1.75 19.7916666666667  L 13.166015625 19.7916666666667  L 11.416015625 21.5277777777778  L 0 21.5277777777778  L 0 1  Z M 20.7060546875 9.78190104166667  C 21.3395182291667 9.51063368055556  22.0208333333333 9.375  22.75 9.375  C 23.4700520833333 9.375  24.1490885416667 9.51063368055556  24.787109375 9.78190104166667  C 25.4251302083333 10.0531684027778  25.9833984375 10.4261610243056  26.4619140625 10.90087890625  C 26.9404296875 11.3755967881944  27.31640625 11.9294343171296  27.58984375 12.5623914930556  C 27.86328125 13.1953486689815  28 13.8689959490741  28 14.5833333333333  C 28 15.306712962963  27.86328125 15.9826208043982  27.58984375 16.6110568576389  C 27.31640625 17.2394929108796  26.9404296875 17.7910698784722  26.4619140625 18.2657877604167  C 25.9833984375 18.7405056423611  25.4251302083333 19.1134982638889  24.787109375 19.384765625  C 24.1490885416667 19.6560329861111  23.4700520833333 19.7916666666667  22.75 19.7916666666667  C 22.203125 19.7916666666667  21.6722005208333 19.7080258969907  21.1572265625 19.5407443576389  C 20.6422526041667 19.373462818287  20.1614583333333 19.1315827546296  19.71484375 18.8151041666667  L 13.740234375 24.7422960069444  C 13.5670572916667 24.9140986689815  13.3619791666667 25  13.125 25  C 12.8880208333333 25  12.6829427083333 24.9140986689815  12.509765625 24.7422960069444  C 12.3365885416667 24.5704933449074  12.25 24.3670428240741  12.25 24.1319444444444  C 12.25 23.8968460648148  12.3365885416667 23.6933955439815  12.509765625 23.5215928819444  L 18.484375 17.5944010416667  C 18.1653645833333 17.1513310185185  17.9215494791667 16.6743525752315  17.7529296875 16.1634657118056  C 17.5843098958333 15.6525788483796  17.5 15.1258680555556  17.5 14.5833333333333  C 17.5 13.8689959490741  17.63671875 13.1953486689815  17.91015625 12.5623914930556  C 18.18359375 11.9294343171296  18.5595703125 11.3755967881944  19.0380859375 10.90087890625  C 19.5166015625 10.4261610243056  20.0725911458333 10.0531684027778  20.7060546875 9.78190104166667  Z M 21.3896484375 17.7842881944444  C 21.8134765625 17.9651331018518  22.2669270833333 18.0555555555556  22.75 18.0555555555556  C 23.2330729166667 18.0555555555556  23.6865234375 17.9651331018518  24.1103515625 17.7842881944444  C 24.5341796875 17.603443287037  24.9055989583333 17.3547815393519  25.224609375 17.0383029513889  C 25.5436197916667 16.7218243634259  25.7942708333333 16.3533528645833  25.9765625 15.9328884548611  C 26.1588541666667 15.5124240451389  26.25 15.062572337963  26.25 14.5833333333333  C 26.25 14.1040943287037  26.1588541666667 13.6542426215278  25.9765625 13.2337782118056  C 25.7942708333333 12.8133138020833  25.5436197916667 12.4448423032407  25.224609375 12.1283637152778  C 24.9055989583333 11.8118851273148  24.5341796875 11.5632233796296  24.1103515625 11.3823784722222  C 23.6865234375 11.2015335648148  23.2330729166667 11.1111111111111  22.75 11.1111111111111  C 22.2669270833333 11.1111111111111  21.8134765625 11.2015335648148  21.3896484375 11.3823784722222  C 20.9658203125 11.5632233796296  20.5944010416667 11.8118851273148  20.275390625 12.1283637152778  C 19.9563802083333 12.4448423032407  19.7057291666667 12.8133138020833  19.5234375 13.2337782118056  C 19.3411458333333 13.6542426215278  19.25 14.1040943287037  19.25 14.5833333333333  C 19.25 15.062572337963  19.3411458333333 15.5124240451389  19.5234375 15.9328884548611  C 19.7057291666667 16.3533528645833  19.9563802083333 16.7218243634259  20.275390625 17.0383029513889  C 20.5944010416667 17.3547815393519  20.9658203125 17.603443287037  21.3896484375 17.7842881944444  Z " fill-rule="nonzero" fill="#6fd6f3" stroke="none" transform="matrix(1 0 0 1 47 512 )" />
  </g>
</svg>