<?xml version="1.0" encoding="utf-8"?>
<svg version="1.1" xmlns:xlink="http://www.w3.org/1999/xlink" width="27px" height="24px" xmlns="http://www.w3.org/2000/svg">
  <g transform="matrix(1 0 0 1 -878 -1078 )">
    <path d="M 21.68701171875 4.24739583333333  C 21.85400390625 4.41232638888889  21.9375 4.60763888888889  21.9375 4.83333333333333  C 21.9375 5.05902777777778  21.85400390625 5.25434027777778  21.68701171875 5.41927083333333  C 21.52001953125 5.58420138888889  21.322265625 5.66666666666667  21.09375 5.66666666666667  C 20.865234375 5.66666666666667  20.66748046875 5.58420138888889  20.50048828125 5.41927083333333  C 20.33349609375 5.25434027777778  20.25 5.05902777777778  20.25 4.83333333333333  C 20.25 4.60763888888889  20.33349609375 4.41232638888889  20.50048828125 4.24739583333333  C 20.66748046875 4.08246527777778  20.865234375 4  21.09375 4  C 21.322265625 4  21.52001953125 4.08246527777778  21.68701171875 4.24739583333333  Z M 0 1  L 27 1  L 27 8.98697916666667  C 26.75390625 8.74392361111111  26.488037109375 8.52473958333334  26.202392578125 8.32942708333333  C 25.916748046875 8.13411458333334  25.6201171875 7.95399305555556  25.3125 7.7890625  L 25.3125 2.33333333333333  L 1.6875 2.33333333333333  L 1.6875 11.1484375  L 7.59375 5.328125  L 14.923828125 12.5546875  C 14.818359375 13.0234375  14.765625 13.5052083333333  14.765625 14  C 14.765625 14.1388888888889  14.7744140625 14.2777777777778  14.7919921875 14.4166666666667  L 14.8447265625 14.8333333333333  L 7.59375 7.671875  L 1.6875 13.5182291666667  L 1.6875 19  L 12.69580078125 19  L 11.00830078125 20.6666666666667  L 0 20.6666666666667  L 0 1  Z M 19.966552734375 9.390625  C 20.577392578125 9.13020833333333  21.234375 9  21.9375 9  C 22.6318359375 9  23.28662109375 9.13020833333333  23.90185546875 9.390625  C 24.51708984375 9.65104166666667  25.055419921875 10.0091145833333  25.516845703125 10.46484375  C 25.978271484375 10.9205729166667  26.3408203125 11.4522569444444  26.6044921875 12.0598958333333  C 26.8681640625 12.6675347222222  27 13.3142361111111  27 14  C 27 14.6944444444444  26.8681640625 15.3433159722222  26.6044921875 15.9466145833333  C 26.3408203125 16.5499131944445  25.978271484375 17.0794270833333  25.516845703125 17.53515625  C 25.055419921875 17.9908854166667  24.51708984375 18.3489583333333  23.90185546875 18.609375  C 23.28662109375 18.8697916666667  22.6318359375 19  21.9375 19  C 21.41015625 19  20.898193359375 18.9197048611111  20.401611328125 18.7591145833333  C 19.905029296875 18.5985243055556  19.44140625 18.3663194444445  19.0107421875 18.0625  L 13.24951171875 23.7526041666667  C 13.08251953125 23.9175347222222  12.884765625 24  12.65625 24  C 12.427734375 24  12.22998046875 23.9175347222222  12.06298828125 23.7526041666667  C 11.89599609375 23.5876736111111  11.8125 23.3923611111111  11.8125 23.1666666666667  C 11.8125 22.9409722222222  11.89599609375 22.7456597222222  12.06298828125 22.5807291666667  L 17.82421875 16.890625  C 17.5166015625 16.4652777777778  17.281494140625 16.0073784722222  17.118896484375 15.5169270833333  C 16.956298828125 15.0264756944444  16.875 14.5208333333333  16.875 14  C 16.875 13.3142361111111  17.0068359375 12.6675347222222  17.2705078125 12.0598958333333  C 17.5341796875 11.4522569444444  17.896728515625 10.9205729166667  18.358154296875 10.46484375  C 18.819580078125 10.0091145833333  19.355712890625 9.65104166666667  19.966552734375 9.390625  Z M 20.625732421875 17.0729166666667  C 21.034423828125 17.2465277777778  21.4716796875 17.3333333333333  21.9375 17.3333333333333  C 22.4033203125 17.3333333333333  22.840576171875 17.2465277777778  23.249267578125 17.0729166666667  C 23.657958984375 16.8993055555556  24.01611328125 16.6605902777778  24.32373046875 16.3567708333333  C 24.63134765625 16.0529513888889  24.873046875 15.69921875  25.048828125 15.2955729166667  C 25.224609375 14.8919270833333  25.3125 14.4600694444444  25.3125 14  C 25.3125 13.5399305555556  25.224609375 13.1080729166667  25.048828125 12.7044270833333  C 24.873046875 12.30078125  24.63134765625 11.9470486111111  24.32373046875 11.6432291666667  C 24.01611328125 11.3394097222222  23.657958984375 11.1006944444444  23.249267578125 10.9270833333333  C 22.840576171875 10.7534722222222  22.4033203125 10.6666666666667  21.9375 10.6666666666667  C 21.4716796875 10.6666666666667  21.034423828125 10.7534722222222  20.625732421875 10.9270833333333  C 20.217041015625 11.1006944444444  19.85888671875 11.3394097222222  19.55126953125 11.6432291666667  C 19.24365234375 11.9470486111111  19.001953125 12.30078125  18.826171875 12.7044270833333  C 18.650390625 13.1080729166667  18.5625 13.5399305555556  18.5625 14  C 18.5625 14.4600694444444  18.650390625 14.8919270833333  18.826171875 15.2955729166667  C 19.001953125 15.69921875  19.24365234375 16.0529513888889  19.55126953125 16.3567708333333  C 19.85888671875 16.6605902777778  20.217041015625 16.8993055555556  20.625732421875 17.0729166666667  Z " fill-rule="nonzero" fill="#d2d2d2" stroke="none" transform="matrix(1 0 0 1 878 1078 )" />
  </g>
</svg>