<svg xmlns="http://www.w3.org/2000/svg" width="36" height="36" viewBox="0 0 36 36">
    <g>
        <path fill="#fff" stroke="rgba(0,0,0,0)" stroke-miterlimit="10" d="M31.836 22.437a5.259 5.259 0 0 0 3.664-1.986 6.457 6.457 0 0 0 1.427-3.9 2.655 2.655 0 0 0-.051-.551 5.958 5.958 0 0 0-3.976 2.127 6.121 6.121 0 0 0-1.48 3.777 2.44 2.44 0 0 0 .053.5 1.79 1.79 0 0 0 .363.033zm-4.3 21.453c1.669 0 2.409-1.152 4.49-1.152 2.115 0 2.579 1.117 4.437 1.117 1.823 0 3.044-1.738 4.2-3.439a15.855 15.855 0 0 0 1.858-3.954 6.106 6.106 0 0 1-3.612-5.638 6.346 6.346 0 0 1 2.908-5.32 6.291 6.291 0 0 0-5.35-2.765c-2.048 0-3.715 1.277-4.765 1.277-1.136 0-2.632-1.207-4.4-1.207-3.372 0-6.795 2.873-6.795 8.3a17.509 17.509 0 0 0 2.839 9.237c1.335 1.948 2.504 3.544 4.19 3.544z" transform="translate(-97 -393) translate(83.5 381.055)"/>
    </g>
</svg>
