<svg xmlns="http://www.w3.org/2000/svg" width="50" height="50">
    <defs>
        <style>
            .cls-2{fill:#fff}
        </style>
    </defs>
    <g id="sns_blog" transform="translate(-440 -6168)">
        <circle id="타원_980" data-name="타원 980" cx="25" cy="25" r="25" transform="translate(440 6168)" style="fill:#bbb"/>
        <g id="그룹_15957" data-name="그룹 15957" transform="translate(220.555 6133.964)">
            <path id="패스_12622" data-name="패스 12622" class="cls-2" d="M259.6 99.8a.9.9 0 1 0 .9.9.9.9 0 0 0-.9-.9z" transform="translate(-22.484 -41.869)"/>
            <circle id="타원_1015" data-name="타원 1015" class="cls-2" cx=".964" cy=".964" r=".964" transform="translate(244.997 57.841)"/>
            <path id="패스_12623" data-name="패스 12623" class="cls-2" d="M253.966 49.036h-19.044a3.478 3.478 0 0 0-3.478 3.478v11.3a3.478 3.478 0 0 0 3.478 3.478h6.726l2.288 5.39s.157.467.539.467c.381 0 .539-.467.539-.467l2.288-5.39h6.664a3.478 3.478 0 0 0 3.478-3.478v-11.3a3.478 3.478 0 0 0-3.478-3.478zm-14.354 9.991a2.154 2.154 0 0 1-2.147 2.125 1.786 1.786 0 0 1-1.293-.548v.372h-1.556v-6.415c-.007 0-.007 0 0 0 .1.015 1.556 0 1.556 0v2.454c.366-.624 1.424-.613 1.424-.613a2.278 2.278 0 0 1 2.016 2.625zm2.739-2.432v4.393h-1.523v-4.349c0-.592-.734-.756-.734-.756v-1.534a2.106 2.106 0 0 1 2.257 2.246zm3.61 4.56a2.358 2.358 0 1 1 2.552-2.35 2.457 2.457 0 0 1-2.552 2.35zm8.342 0a2.172 2.172 0 0 1-2.246 2.232h-.69v-1.446h.416s.953.088.942-1.38c0 0-.186.594-1.523.594a2.007 2.007 0 0 1-1.9-1.986v-.7a2.165 2.165 0 0 1 2.125-2.07 1.55 1.55 0 0 1 1.326.592v-.471h1.547z"/>
            <circle id="타원_1016" data-name="타원 1016" class="cls-2" cx=".942" cy=".942" r=".942" transform="translate(250.94 57.863)"/>
        </g>
    </g>
</svg>
