<svg xmlns="http://www.w3.org/2000/svg" width="67" height="60" viewBox="0 0 67 60">
    <defs>
        <style>
            .cls-3{fill:#fff}
        </style>
    </defs>
    <g id="logo_white" transform="translate(-20 -9)">
        <g id="그룹_15358" transform="translate(21.818 10.363)">
            <path id="패스_12278" fill="#00dca5" d="M207.741 118.467a12.333 12.333 0 1 0-12.333 12.333 12.332 12.332 0 0 0 12.333-12.333z" transform="translate(-178.186 -98.093)"/>
            <g id="그룹_15357">
                <path id="패스_12279" d="M251.048 96.68v23.08l6.542-1.154V95.527z" class="cls-3" transform="translate(-194.63 -95.527)"/>
                <path id="패스_12280" d="M202.986 139.858l-6.542 1.153v11.2l-5.191.915v-11.2l-6.542 1.154v11.2l-8.084 1.425v6.542l34.444-6.073v-6.542l-8.084 1.425z" class="cls-3" transform="translate(-176.626 -106.251)"/>
                <path id="패스_12281" d="M222.061 142.915l21.974-3.875v11.288l6.542-1.154v-17.83l-28.516 5.029z" class="cls-3" transform="translate(-187.618 -104.192)"/>
                <path id="패스_12282" d="M218.172 111.838l10.241-1.806V123.3l6.541-1.153v-19.811l-16.783 2.96V101.6l-12.189 9.114 12.189 4.816z" class="cls-3" transform="translate(-183.728 -96.996)"/>
            </g>
        </g>
    </g>
</svg>
