<svg xmlns="http://www.w3.org/2000/svg" width="50" height="50" viewBox="0 0 50 50">
    <defs>
        <style>
            .cls-2{fill:#fff}
        </style>
    </defs>
    <g id="sns_instar" transform="translate(-495 -6168)">
        <circle id="타원_981" cx="25" cy="25" r="25" fill="#bbb" transform="translate(495 6168)"/>
        <g id="instagram" transform="translate(509 6181.999)">
            <path id="패스_12604" d="M11.491 5.838a5.645 5.645 0 1 0 5.645 5.645 5.644 5.644 0 0 0-5.645-5.645zm0 9.309a3.664 3.664 0 1 1 3.664-3.664 3.663 3.663 0 0 1-3.664 3.664z" class="cls-2" transform="translate(-0.487 -0.487)"/>
            <path id="패스_12605" d="M15.535.07C13.511-.025 8.5-.02 6.472.07a6.574 6.574 0 0 0-4.616 1.779C-.259 3.965.011 6.815.011 11c0 4.279-.238 7.064 1.845 9.147C3.98 22.266 6.872 21.989 11 21.989c4.239 0 5.7 0 7.2-.577 2.038-.791 3.576-2.612 3.726-5.884.1-2.025.09-7.037 0-9.063C21.748 2.6 19.676.26 15.535.07zm3.2 18.674c-1.387 1.387-3.311 1.263-7.762 1.263-4.583 0-6.421.068-7.762-1.277-1.541-1.537-1.261-4.006-1.261-7.748 0-5.064-.52-8.712 4.563-8.972 1.168-.041 1.512-.055 4.451-.055l.041.027c4.885 0 8.717-.511 8.947 4.57.052 1.16.064 1.508.064 4.443 0 4.53.084 6.379-1.277 7.749z" class="cls-2" transform="translate(0 0)"/>
            <circle id="타원_1003" cx="1.319" cy="1.319" r="1.319" class="cls-2" transform="translate(15.553 3.81)"/>
        </g>
    </g>
</svg>
