<svg xmlns="http://www.w3.org/2000/svg" width="36" height="36" viewBox="0 0 36 36">
    <g>
        <g>
            <path fill="#3bccff" d="M1242.68 632.893a2.169 2.169 0 0 0-.444 1.554v24.531a2.2 2.2 0 0 0 .555 1.554l.111.111 13.764-13.764v-.222z" transform="translate(-97 -393) translate(-1139.237 -233.709) translate(0 -1.819)"/>
            <path fill="#ffd400" d="M1332.456 697.448l-4.551-4.551v-.333l4.551-4.551.111.111 5.439 3.108c1.554.888 1.554 2.331 0 3.219z" transform="translate(-97 -393) translate(-1139.237 -233.709) translate(-71.35 -47.726)"/>
            <path fill="#f33" d="M1263.429 720.567l-4.662-4.662-13.875 13.875c.555.555 1.332.555 2.331.111l16.206-9.324" transform="translate(-97 -393) translate(-1139.237 -233.709) translate(-2.213 -70.956)"/>
            <path fill="#48ff48" d="M1263.429 640.287l-16.206-9.213a1.8 1.8 0 0 0-2.331.111l13.875 13.764 4.662-4.662z" transform="translate(-97 -393) translate(-1139.237 -233.709) translate(-2.213 0)"/>
        </g>
    </g>
</svg>
