<svg xmlns="http://www.w3.org/2000/svg" width="50" height="50" viewBox="0 0 50 50">
    <defs>
        <style>
            .cls-1{fill:#bbb}
        </style>
    </defs>
    <g id="sns_youtube" transform="translate(-550 -6168)">
        <circle id="타원_982" cx="25" cy="25" r="25" class="cls-1" transform="translate(550 6168)"/>
        <g id="youtube" transform="translate(564 6185)">
            <path id="패스_12606" fill="#fff" d="M25.464 2.848A3.257 3.257 0 0 0 23.173.557C21.138 0 13 0 13 0S4.861 0 2.827.536A3.324 3.324 0 0 0 .535 2.848 34.325 34.325 0 0 0 0 9.1a34.2 34.2 0 0 0 .535 6.254 3.258 3.258 0 0 0 2.292 2.292C4.883 18.2 13 18.2 13 18.2s8.138 0 10.173-.536a3.257 3.257 0 0 0 2.292-2.291A34.326 34.326 0 0 0 26 9.124a32.581 32.581 0 0 0-.536-6.276zm0 0" transform="translate(-2 -1)"/>
            <path id="패스_12607" d="M204.969 110.076l6.59-3.8-6.59-3.8zm0 0" class="cls-1" transform="translate(-196.594 -98.578)"/>
        </g>
    </g>
</svg>
