<svg width="24" height="24" viewBox="0 0 24 24" fill="none" xmlns="http://www.w3.org/2000/svg">
<g clip-path="url(#clip0_306_1648)">
<path fill-rule="evenodd" clip-rule="evenodd" d="M18 10C18 12.1217 17.1571 14.1566 15.6569 15.6569C14.1566 17.1571 12.1217 18 10 18C7.87827 18 5.84344 17.1571 4.34315 15.6569C2.84285 14.1566 2 12.1217 2 10C2 7.87827 2.84285 5.84344 4.34315 4.34315C5.84344 2.84285 7.87827 2 10 2C12.1217 2 14.1566 2.84285 15.6569 4.34315C17.1571 5.84344 18 7.87827 18 10ZM16.329 17.743C14.5445 19.2059 12.3074 20.0037 10 20C4.477 20 0 15.523 0 10C0 4.477 4.477 0 10 0C15.523 0 20 4.477 20 10C20.0037 12.3074 19.2059 14.5445 17.743 16.329L23.207 21.793L21.793 23.207L16.329 17.743Z" fill="#222222"/>
</g>
<defs>
<clipPath id="clip0_306_1648">
<rect width="24" height="24" fill="white"/>
</clipPath>
</defs>
</svg>
