<svg width="51" height="19" viewBox="0 0 51 19" fill="none" xmlns="http://www.w3.org/2000/svg">
<path fill-rule="evenodd" clip-rule="evenodd" d="M23.5 0H23.4172L23.3356 0.0136061L20.3356 0.513606L20.1873 0.538326L20.0528 0.605573L15.2364 3.01378L6.94128 3.50173L6.68646 3.51671L6.47 3.652L2.47 6.152L2.43398 6.17451L2.4 6.2L0.4 7.7L0 8V8.5V15V15.8198L0.803884 15.9806L3.30388 16.4806L3.69612 14.5194L2 14.1802V9L3.56602 7.82548L7.31354 5.48328L15.0636 5.0274L17.7407 8.15079L18.0401 8.5H18.5H25.5H31H31.3205L31.5812 8.31373L35.0812 5.81373L33.9188 4.18627L30.6795 6.5H27.4432L28.8137 4.58124L27.1863 3.41876L24.9854 6.5H18.9599L17.0928 4.32165L20.8127 2.46167L23.5828 2H32.7297L38.4961 5.36378L38.7297 5.5H39H46.6315L45.6679 6.9453L45.4486 7.27433L45.5136 7.6644L45.9771 10.4454L44.9866 14H43V16H45.7461H46.5055L46.7094 15.2684L47.9633 10.7684L48.0229 10.5546L47.9864 10.3356L47.5514 7.72567L49.3321 5.0547L50.3685 3.5H48.5H39.2704L33.5039 0.136221L33.2703 0H33H23.5ZM9 18C11.2091 18 13 16.2091 13 14C13 11.7909 11.2091 10 9 10C6.79086 10 5 11.7909 5 14C5 16.2091 6.79086 18 9 18ZM9 19C11.7614 19 14 16.7614 14 14C14 11.2386 11.7614 9 9 9C6.23858 9 4 11.2386 4 14C4 16.7614 6.23858 19 9 19ZM37 18C39.2091 18 41 16.2091 41 14C41 11.7909 39.2091 10 37 10C34.7909 10 33 11.7909 33 14C33 16.2091 34.7909 18 37 18ZM37 19C39.7614 19 42 16.7614 42 14C42 11.2386 39.7614 9 37 9C34.2386 9 32 11.2386 32 14H15V16H32V14C32 16.7614 34.2386 19 37 19Z" fill="#EDEAE7"/>
</svg>
