<svg xmlns="http://www.w3.org/2000/svg" viewBox="0 0 170 33.78"><defs><style>.cls-1{fill:#fff;}</style></defs><g id="Layer_2" data-name="Layer 2"><g id="Layer_1-2" data-name="Layer 1"><rect class="cls-1" width="31.05" height="1.93"/><rect class="cls-1" y="13.57" width="31.05" height="1.93"/><path class="cls-1" d="M60.69,11.57V8.92h6.38V6.1H60.69V2.83H68V0H56.23V11.31c0,2.9,1.35,4.19,4.36,4.19h7.6V12.68H62c-.82,0-1.26-.39-1.26-1.11"/><path class="cls-1" d="M89.78,11.57V8.92h6.38V6.1H89.78V2.83H97V0H85.32V11.31c0,2.9,1.34,4.19,4.36,4.19h7.59V12.68H91c-.82,0-1.26-.39-1.26-1.11"/><path class="cls-1" d="M162.51,11.57V8.92h6.37V6.1h-6.37V2.83h7.25V0H158.05V11.31c0,2.9,1.34,4.19,4.36,4.19H170V12.68h-6.23c-.83,0-1.26-.39-1.26-1.11"/><rect class="cls-1" x="134.87" width="4.32" height="15.5"/><path class="cls-1" d="M152.44,8.53l.15,0s3.18-.76,3.18-3.83V4.45c0-.37-.12-3.58-4.18-4.26A15.06,15.06,0,0,0,149.07,0h-6.7V15.5h4.38V9.73H148c2.87,0,3.46,3.54,4.2,5.77h4.74a25.38,25.38,0,0,1-1.17-2.72c-1.32-3.56-3.33-4.25-3.33-4.25M151.61,5a1.69,1.69,0,0,1-.73,1.53,5.31,5.31,0,0,1-2.58.44h-1.55V2.77h1.55a4.59,4.59,0,0,1,2.55.44,1.88,1.88,0,0,1,.76,1.62Z"/><polygon class="cls-1" points="124.79 15.5 129.19 15.5 129.19 2.83 133.56 2.83 133.56 0 120.09 0 120.09 2.83 124.79 2.83 124.79 15.5"/><path class="cls-1" d="M45.84,2.25A3.31,3.31,0,0,0,43,0H40.18V15.5h3.58v-11l.11.26c0,.05,2.06,4.62,3.37,8,.95,2.42,1.94,2.77,3.19,2.78h3.24V0H50.08V11.71Z"/><path class="cls-1" d="M105,2.25A3.31,3.31,0,0,0,102.18,0H99.35V15.5h3.59v-11l.1.26c0,.05,2.06,4.62,3.37,8,1,2.42,1.94,2.77,3.2,2.78h3.24V0h-3.6V11.71Z"/><path class="cls-1" d="M79.32,7.37,84.71,0H80.94a2.07,2.07,0,0,0-1.81,1.15L76.88,4.66,74.62,1.15A2.06,2.06,0,0,0,72.81,0H69.05l5.44,7.53,0,0L68.9,15.5H72a2.21,2.21,0,0,0,2.09-1l2.75-4.42.05.09,2.7,4.33a2.19,2.19,0,0,0,2.08,1h3.14L79.3,7.4Z"/><path class="cls-1" d="M29,3.43V10L26.45,4.68a2.21,2.21,0,0,0-.64-.87,1.57,1.57,0,0,0-1-.38H17.69L15.52,6.22,13.35,3.43H7.23a1.46,1.46,0,0,0-1.05.36,1.27,1.27,0,0,0-.37.87V10L3.3,4.68a2.3,2.3,0,0,0-.63-.87,1.6,1.6,0,0,0-1-.38H0v8.64H2.1V6.13l2.46,5.2a1.22,1.22,0,0,0,.63.58,2.09,2.09,0,0,0,.8.16H13.4l2.12-2.72,2.12,2.72h6.18a1.47,1.47,0,0,0,1.06-.35,1.32,1.32,0,0,0,.37-.89V6.13l2.46,5.2a1.19,1.19,0,0,0,.62.58,2,2,0,0,0,.81.15s.43,0,.89,0h1V3.43ZM12.18,10.5H7.91v-2h3.42V7H7.91V5h4.22L14.3,7.78Zm11-3.66V7H19.73V8.53h3.41v2H18.86L16.74,7.78,18.92,5h4.22Z"/><path class="cls-1" d="M113.74,23.86a3.47,3.47,0,1,0,3,5.13h-1.25a2.46,2.46,0,0,1-1.79.77,2.42,2.42,0,0,1-2.37-1.88l0-.15h5.84a3,3,0,0,0,0-.41A3.46,3.46,0,0,0,113.74,23.86Zm-2.36,2.84.05-.15a2.44,2.44,0,0,1,4.63,0l0,.15Z"/><path class="cls-1" d="M127.62,24.84l-.2-.17a3.46,3.46,0,0,0-5.68,2.64,3.37,3.37,0,0,0,.32,1.46A3.45,3.45,0,0,0,127.41,30l.17-.14,0,.22c0,.06,0,.28,0,.28a2.43,2.43,0,0,1-2.43,2.43,2.16,2.16,0,0,1-1.76-.76h-1.26a3.42,3.42,0,0,0,3,1.79,3.46,3.46,0,0,0,3.46-3.46V23.86h-1Zm0,2.56h-.12l.12,0c0,.06,0,.12,0,.18a2.36,2.36,0,0,1-.57,1.3,2.43,2.43,0,0,1-4.25-1.3,2.46,2.46,0,0,1,0-.28,2.43,2.43,0,0,1,4.86-.1Z"/><path class="cls-1" d="M134.08,23.85a3.47,3.47,0,1,0,3.47,3.47A3.48,3.48,0,0,0,134.08,23.85Zm0,5.91a2.44,2.44,0,1,1,2.44-2.44A2.44,2.44,0,0,1,134.08,29.76Z"/><path class="cls-1" d="M157.69,23.85a3.47,3.47,0,1,0,3.47,3.47A3.48,3.48,0,0,0,157.69,23.85Zm0,5.91a2.44,2.44,0,1,1,2.44-2.44A2.44,2.44,0,0,1,157.69,29.76Z"/><path class="cls-1" d="M140.83,27.42V24.93h1.1v-1h-1.1V20.58h-1.06v3.31H138.7v1h1.07v2.43a3.47,3.47,0,0,0,2.91,3.43V29.74A2.37,2.37,0,0,1,140.83,27.42Z"/><path class="cls-1" d="M150,29.41l-2.14-5.56h-1.15l2.7,7,0,.05a2.76,2.76,0,0,1-2.45,1.85l-.2,1a4,4,0,0,0,2.77-1,5.56,5.56,0,0,0,1.08-1.87l2.68-7h-1.12Z"/><path class="cls-1" d="M169,23.88v3.45a2.44,2.44,0,1,1-4.88,0V23.88h-1v3.45a3.46,3.46,0,0,0,5.7,2.65l.2-.17v1h1l0-6.91Z"/><polygon class="cls-1" points="109.02 23.85 106.78 29.47 105.47 26.76 104.81 25.4 104.08 23.88 102.94 23.88 104.28 26.75 103.19 29.47 100.49 23.88 99.35 23.88 102.56 30.79 103.79 30.79 104.91 28.11 106.15 30.79 107.38 30.79 110.28 23.85 109.02 23.85"/></g></g></svg>