<svg width="26" height="26" viewBox="0 0 26 26" fill="none" xmlns="http://www.w3.org/2000/svg">
    <path fill-rule="evenodd" clip-rule="evenodd" d="M19.882 1.53H6.118a4.588 4.588 0 0 0-4.589 4.588v13.764a4.588 4.588 0 0 0 4.589 4.589h13.764a4.588 4.588 0 0 0 4.589-4.589V6.118a4.588 4.588 0 0 0-4.589-4.589zM6.118 0A6.118 6.118 0 0 0 0 6.118v13.764A6.118 6.118 0 0 0 6.118 26h13.764A6.118 6.118 0 0 0 26 19.882V6.118A6.118 6.118 0 0 0 19.882 0H6.118zM13 17.588a4.588 4.588 0 1 0 0-9.176 4.588 4.588 0 0 0 0 9.176zm0 1.53a6.118 6.118 0 1 0 0-12.235 6.118 6.118 0 0 0 0 12.235zm6.5-10.706a1.147 1.147 0 1 0 0-2.294 1.147 1.147 0 0 0 0 2.294z" fill="#fff"/>
</svg>
